<?xml version="1.0" encoding="utf-8"?>
<!-- Generator: Adobe Illustrator 16.0.0, SVG Export Plug-In . SVG Version: 6.00 Build 0)  -->
<!DOCTYPE svg PUBLIC "-//W3C//DTD SVG 1.1//EN" "http://www.w3.org/Graphics/SVG/1.1/DTD/svg11.dtd">
<svg version="1.1" id="Layer_1" xmlns="http://www.w3.org/2000/svg" xmlns:xlink="http://www.w3.org/1999/xlink" x="0px" y="0px"
	 width="600px" height="400px" viewBox="0 0 600 400" enable-background="new 0 0 600 400" xml:space="preserve">
<g>
	<g>
		<g>
			<polyline fill="none" stroke="#FFFFFF" stroke-width="0.8698" stroke-miterlimit="10" points="512.1,378.4 512.1,381 509.5,381 
							"/>
			
				<line fill="none" stroke="#FFFFFF" stroke-width="0.8698" stroke-miterlimit="10" stroke-dasharray="5.2061,5.2061" x1="504.3" y1="381" x2="100.9" y2="381"/>
			<polyline fill="none" stroke="#FFFFFF" stroke-width="0.8698" stroke-miterlimit="10" points="98.3,381 95.6,381 95.6,378.4 			
				"/>
			
				<line fill="none" stroke="#FFFFFF" stroke-width="0.8698" stroke-miterlimit="10" stroke-dasharray="5.1534,5.1534" x1="95.6" y1="373.2" x2="95.6" y2="35.7"/>
			<polyline fill="none" stroke="#FFFFFF" stroke-width="0.8698" stroke-miterlimit="10" points="95.6,33.1 95.6,30.5 98.3,30.5 			
				"/>
			
				<line fill="none" stroke="#FFFFFF" stroke-width="0.8698" stroke-miterlimit="10" stroke-dasharray="5.2061,5.2061" x1="103.5" y1="30.5" x2="506.9" y2="30.5"/>
			<polyline fill="none" stroke="#FFFFFF" stroke-width="0.8698" stroke-miterlimit="10" points="509.5,30.5 512.1,30.5 512.1,33.1 
							"/>
			
				<line fill="none" stroke="#FFFFFF" stroke-width="0.8698" stroke-miterlimit="10" stroke-dasharray="5.1534,5.1534" x1="512.1" y1="38.3" x2="512.1" y2="375.8"/>
		</g>
	</g>
	<rect x="263.4" y="19" fill="#36474F" width="81" height="23"/>
	<g>
		<path fill="#F2F2F2" d="M275.2,23.1l4.1,10.9l4.1-10.9h3.2v14.2h-2.5v-4.7l0.2-6.3l-4.2,11h-1.8l-4.2-10.9l0.2,6.3v4.7H272V23.1
			H275.2z"/>
		<path fill="#F2F2F2" d="M288.9,32c0-1,0.2-2,0.6-2.8s1-1.5,1.7-1.9s1.6-0.7,2.6-0.7c1.4,0,2.6,0.5,3.5,1.4s1.4,2.1,1.4,3.7l0,0.6
			c0,1-0.2,2-0.6,2.8s-1,1.5-1.7,1.9s-1.6,0.7-2.6,0.7c-1.5,0-2.7-0.5-3.6-1.5s-1.3-2.3-1.3-4V32z M291.2,32.2
			c0,1.1,0.2,1.9,0.7,2.6s1.1,0.9,1.9,0.9s1.4-0.3,1.9-0.9s0.7-1.5,0.7-2.7c0-1.1-0.2-1.9-0.7-2.5s-1.1-0.9-1.9-0.9
			c-0.8,0-1.4,0.3-1.8,0.9S291.2,30.9,291.2,32.2z"/>
		<path fill="#F2F2F2" d="M300.2,32c0-1.6,0.4-2.9,1.1-3.9c0.8-1,1.8-1.5,3-1.5c1.1,0,2,0.4,2.7,1.2v-5.4h2.4v15h-2.1l-0.1-1.1
			c-0.7,0.9-1.7,1.3-2.8,1.3c-1.2,0-2.2-0.5-3-1.5C300.6,35,300.2,33.7,300.2,32z M302.6,32.2c0,1.1,0.2,1.9,0.6,2.5
			c0.4,0.6,1,0.9,1.8,0.9c1,0,1.7-0.4,2.1-1.3v-4.5c-0.4-0.8-1.1-1.3-2.1-1.3c-0.8,0-1.4,0.3-1.8,0.9C302.8,30,302.6,31,302.6,32.2z
			"/>
		<path fill="#F2F2F2" d="M318.4,36.3c-0.7,0.8-1.7,1.2-3,1.2c-1.1,0-2-0.3-2.6-1c-0.6-0.7-0.9-1.6-0.9-2.9v-6.8h2.4v6.8
			c0,1.3,0.6,2,1.7,2c1.2,0,1.9-0.4,2.3-1.2v-7.6h2.4v10.6h-2.2L318.4,36.3z"/>
		<path fill="#F2F2F2" d="M325.6,37.3h-2.4v-15h2.4V37.3z"/>
		<path fill="#F2F2F2" d="M332.8,37.5c-1.5,0-2.7-0.5-3.7-1.4c-0.9-0.9-1.4-2.2-1.4-3.8V32c0-1.1,0.2-2,0.6-2.8
			c0.4-0.8,1-1.5,1.7-1.9c0.7-0.5,1.6-0.7,2.5-0.7c1.4,0,2.6,0.5,3.3,1.4c0.8,0.9,1.2,2.2,1.2,3.9v1h-6.9c0.1,0.9,0.4,1.6,0.9,2.1
			c0.5,0.5,1.2,0.8,1.9,0.8c1.1,0,2-0.4,2.7-1.3l1.3,1.2c-0.4,0.6-1,1.1-1.7,1.5C334.5,37.4,333.7,37.5,332.8,37.5z M332.6,28.5
			c-0.7,0-1.2,0.2-1.6,0.7s-0.7,1.1-0.8,1.9h4.5v-0.2c-0.1-0.8-0.3-1.4-0.6-1.8S333.2,28.5,332.6,28.5z"/>
	</g>
</g>
<g>
	<g>
		<path fill="#F2F2F2" d="M585,275.1v4.1c0,4.6-11.1,8.3-24.9,8.3s-24.9-3.7-24.9-8.3v-4.1c0-4.6,11.1-8.3,24.9-8.3
			S585,270.5,585,275.1z M585,286.1v5.5c0,4.6-11.1,8.3-24.9,8.3s-24.9-3.7-24.9-8.3v-5.5c5.3,3.8,15.1,5.5,24.9,5.5
			S579.7,289.9,585,286.1z M585,298.6v5.5c0,4.6-11.1,8.3-24.9,8.3s-24.9-3.7-24.9-8.3v-5.5c5.3,3.8,15.1,5.5,24.9,5.5
			S579.7,302.3,585,298.6z M585,311v5.5c0,4.6-11.1,8.3-24.9,8.3s-24.9-3.7-24.9-8.3V311c5.3,3.8,15.1,5.5,24.9,5.5
			S579.7,314.7,585,311z"/>
	</g>
	<g>
		<g>
			<line fill="none" stroke="#F2F2F2" stroke-width="2.2" stroke-miterlimit="10" x1="472.9" y1="295.8" x2="474.8" y2="295.8"/>
			
				<line fill="none" stroke="#F2F2F2" stroke-width="2.2" stroke-miterlimit="10" stroke-dasharray="4.0758,4.0758" x1="478.9" y1="295.8" x2="517.6" y2="295.8"/>
			<line fill="none" stroke="#F2F2F2" stroke-width="2.2" stroke-miterlimit="10" x1="519.6" y1="295.8" x2="521.5" y2="295.8"/>
			<g>
				<polygon fill="#F2F2F2" points="530.9,295.8 517.7,301.1 520.9,295.8 517.7,290.4 				"/>
			</g>
		</g>
	</g>
</g>
<g>
	<g>
		<path fill="#F2F2F2" d="M30.6,301.3c3.1,6.1,9.6,9.7,16.3,8.5l-7.4,14.6C25.6,322.3,15,310.3,15,295.8c0-5.9,1.7-11.3,4.7-15.9
			L30.6,301.3z M58.5,270.7c5.1,2.9,8.9,7.2,11.4,12l-24-1.3c-6.8-0.4-13.3,3.4-15.5,9.8l-8.9-13.7c5.6-6.9,13.9-10.7,22.5-10.8
			C48.8,266.7,53.9,268,58.5,270.7z M53.7,295.8c0,5.4-4.4,9.8-9.8,9.8s-9.8-4.4-9.8-9.8s4.4-9.8,9.8-9.8S53.7,290.4,53.7,295.8z
			 M58.5,320.9c-5.1,2.9-10.7,4.1-16.1,3.9l13.1-20.2c3.7-5.7,3.7-13.2-0.8-18.4l16.3-0.8C76.1,298.4,71,313.6,58.5,320.9z"/>
	</g>
	<g>
		<g>
			<line fill="none" stroke="#F2F2F2" stroke-width="2.2" stroke-miterlimit="10" x1="135" y1="295.8" x2="133" y2="295.8"/>
			
				<line fill="none" stroke="#F2F2F2" stroke-width="2.2" stroke-miterlimit="10" stroke-dasharray="4.0763,4.0763" x1="129" y1="295.8" x2="90.2" y2="295.8"/>
			<line fill="none" stroke="#F2F2F2" stroke-width="2.2" stroke-miterlimit="10" x1="88.2" y1="295.8" x2="86.3" y2="295.8"/>
			<g>
				<polygon fill="#F2F2F2" points="77,295.8 90.1,290.4 87,295.8 90.1,301.1 				"/>
			</g>
		</g>
	</g>
</g>
<g>
	<g>
		<polygon fill="#69B145" points="409.9,64.3 462.8,85.8 462.8,90.3 409,111.3 355.3,90.3 355.3,85.3 		"/>
		<g>
			<path fill="#F2F2F2" d="M468.8,143.2c0,3.4-1.9,6.5-4.8,8.1l-50.7,27.6c-1.4,0.8-2.9,1.2-4.4,1.2s-3-0.4-4.4-1.2l-50.7-27.6
				c-3-1.6-4.8-4.7-4.8-8.1V87.9c0-3.9,2.4-7.3,6-8.6l50.7-18.4c1-0.4,2.1-0.6,3.2-0.6s2.2,0.2,3.2,0.6l50.7,18.4
				c3.6,1.3,6,4.8,6,8.6V143.2z M459.2,87.7L409,69.5l-50.2,18.3L409,106L459.2,87.7z M459.6,143.2V97.4l-46.1,16.8v54.1
				L459.6,143.2z"/>
		</g>
		<g>
			<path fill="#F2F2F2" d="M386.8,91.9c0.5,0,0.8-0.1,1.2-0.4s0.5-0.6,0.6-1h1.2c0,0.4-0.2,0.8-0.4,1.2s-0.6,0.7-1.1,0.9
				c-0.4,0.2-0.9,0.3-1.4,0.3c-1,0-1.8-0.3-2.4-1c-0.6-0.7-0.9-1.6-0.9-2.8v-0.2c0-0.7,0.1-1.4,0.4-1.9s0.6-1,1.1-1.3
				c0.5-0.3,1.1-0.5,1.8-0.5c0.8,0,1.5,0.2,2.1,0.7c0.5,0.5,0.8,1.1,0.9,1.9h-1.2c0-0.5-0.2-0.9-0.5-1.2c-0.3-0.3-0.7-0.5-1.2-0.5
				c-0.6,0-1.1,0.2-1.5,0.7c-0.4,0.5-0.5,1.1-0.5,2v0.2c0,0.9,0.2,1.5,0.5,2S386.1,91.9,386.8,91.9z"/>
			<path fill="#F2F2F2" d="M390.2,89c0-0.7,0.1-1.4,0.4-2c0.3-0.6,0.7-1,1.2-1.3c0.5-0.3,1.1-0.5,1.7-0.5c1,0,1.8,0.3,2.4,1
				c0.6,0.7,0.9,1.6,0.9,2.8v0.1c0,0.7-0.1,1.4-0.4,1.9c-0.3,0.6-0.7,1-1.2,1.3c-0.5,0.3-1.1,0.5-1.8,0.5c-1,0-1.8-0.3-2.4-1
				C390.5,91.2,390.2,90.3,390.2,89L390.2,89z M391.5,89.2c0,0.8,0.2,1.5,0.6,2c0.4,0.5,0.9,0.7,1.5,0.7c0.6,0,1.2-0.3,1.5-0.8
				s0.6-1.2,0.6-2.1c0-0.8-0.2-1.5-0.6-2c-0.4-0.5-0.9-0.8-1.5-0.8c-0.6,0-1.1,0.2-1.5,0.7S391.5,88.2,391.5,89.2z"/>
			<path fill="#F2F2F2" d="M399.2,85.4l0,0.9c0.6-0.7,1.3-1.1,2.2-1.1c1.6,0,2.4,0.9,2.4,2.6v4.9h-1.3v-4.9c0-0.5-0.1-0.9-0.4-1.2
				c-0.2-0.3-0.6-0.4-1.1-0.4c-0.4,0-0.8,0.1-1.1,0.3s-0.6,0.5-0.7,0.9v5.3H398v-7.4H399.2z"/>
			<path fill="#F2F2F2" d="M406.9,83.6v1.8h1.4v1h-1.4V91c0,0.3,0.1,0.5,0.2,0.7c0.1,0.1,0.3,0.2,0.6,0.2c0.1,0,0.3,0,0.6-0.1v1
				c-0.3,0.1-0.7,0.1-1,0.1c-0.6,0-1-0.2-1.3-0.5s-0.4-0.8-0.4-1.5v-4.6h-1.3v-1h1.3v-1.8H406.9z"/>
			<path fill="#F2F2F2" d="M412.7,86.5c-0.2,0-0.4,0-0.6,0c-0.8,0-1.4,0.4-1.7,1.1v5.3h-1.3v-7.4h1.2l0,0.9c0.4-0.7,1-1,1.8-1
				c0.2,0,0.4,0,0.6,0.1V86.5z"/>
			<path fill="#F2F2F2" d="M412.9,89c0-0.7,0.1-1.4,0.4-2c0.3-0.6,0.7-1,1.2-1.3c0.5-0.3,1.1-0.5,1.7-0.5c1,0,1.8,0.3,2.4,1
				c0.6,0.7,0.9,1.6,0.9,2.8v0.1c0,0.7-0.1,1.4-0.4,1.9c-0.3,0.6-0.7,1-1.2,1.3c-0.5,0.3-1.1,0.5-1.8,0.5c-1,0-1.8-0.3-2.4-1
				C413.2,91.2,412.9,90.3,412.9,89L412.9,89z M414.1,89.2c0,0.8,0.2,1.5,0.6,2c0.4,0.5,0.9,0.7,1.5,0.7c0.6,0,1.2-0.3,1.5-0.8
				s0.6-1.2,0.6-2.1c0-0.8-0.2-1.5-0.6-2c-0.4-0.5-0.9-0.8-1.5-0.8c-0.6,0-1.1,0.2-1.5,0.7S414.1,88.2,414.1,89.2z"/>
			<path fill="#F2F2F2" d="M422,92.8h-1.3V82.3h1.3V92.8z"/>
			<path fill="#F2F2F2" d="M424.8,92.8h-1.3V82.3h1.3V92.8z"/>
			<path fill="#F2F2F2" d="M429.4,92.9c-1,0-1.8-0.3-2.4-1s-0.9-1.5-0.9-2.6v-0.2c0-0.7,0.1-1.4,0.4-2c0.3-0.6,0.7-1,1.2-1.4
				c0.5-0.3,1-0.5,1.6-0.5c1,0,1.7,0.3,2.2,1s0.8,1.5,0.8,2.7v0.5h-5c0,0.7,0.2,1.3,0.6,1.8c0.4,0.4,0.9,0.7,1.6,0.7
				c0.4,0,0.8-0.1,1.1-0.3s0.6-0.4,0.8-0.7l0.8,0.6C431.5,92.4,430.6,92.9,429.4,92.9z M429.2,86.3c-0.5,0-0.9,0.2-1.3,0.6
				s-0.6,0.9-0.6,1.6h3.7v-0.1c0-0.6-0.2-1.1-0.5-1.5S429.7,86.3,429.2,86.3z"/>
			<path fill="#F2F2F2" d="M436.7,86.5c-0.2,0-0.4,0-0.6,0c-0.8,0-1.4,0.4-1.7,1.1v5.3h-1.3v-7.4h1.2l0,0.9c0.4-0.7,1-1,1.8-1
				c0.2,0,0.4,0,0.6,0.1V86.5z"/>
		</g>
		<g>
			<path fill="#36474F" d="M387.6,135.1c0,0.4-0.2,0.7-0.6,0.6l-4-1.3c-0.2,0.6-0.4,1.2-0.8,1.7c0.8,1.5,1.6,2.9,2.4,4.5
				c0.1,0.2,0.2,0.4,0.2,0.7c0,0.2,0,0.4-0.2,0.4c-0.5,0.5-3.3,2.4-4,2c-0.2-0.1-0.4-0.3-0.5-0.5l-2.9-4.1c-0.6,0-1.2,0-1.9-0.1
				c-0.1,1.3-0.2,2.8-0.5,4c-0.1,0.3-0.4,0.5-0.7,0.3l-4.4-2.4c-0.3-0.2-0.7-0.7-0.7-1.1l-0.6-4.4c-0.6-0.5-1.2-1.1-1.7-1.7
				l-2.6,0.9c-0.1,0.1-0.3,0-0.4-0.1c-0.2-0.1-0.3-0.3-0.5-0.5c-0.6-0.9-3.1-5-3.1-5.8c0-0.2,0.1-0.3,0.1-0.4
				c0.6-0.6,1.3-1.3,1.9-1.9c-0.3-0.8-0.6-1.7-0.8-2.5l-3.2-2.2c-0.3-0.2-0.5-0.6-0.5-1v-4.6c0-0.3,0.2-0.6,0.5-0.5l3.2,0.9
				c0.2-0.6,0.4-1.1,0.7-1.6c-0.6-1.3-1.2-2.5-1.9-3.7c-0.1-0.2-0.1-0.4-0.1-0.6c0-0.2,0-0.3,0.1-0.4c0.4-0.5,2.8-2.4,3.4-2.2
				c0.2,0.1,0.3,0.2,0.5,0.4l2.5,3.3c0.5-0.1,1.1-0.1,1.7-0.1c0.1-1.2,0.2-2.6,0.5-3.7c0.1-0.3,0.3-0.5,0.7-0.3l4.2,1.7
				c0.3,0.1,0.7,0.6,0.7,0.9l0.6,4.2c0.6,0.5,1.2,1,1.8,1.6l2.8-1.1c0.1-0.1,0.3-0.1,0.5,0c0.2,0.1,0.4,0.2,0.5,0.4
				c0.7,0.9,3.7,5.1,3.7,5.9c0,0.2-0.1,0.3-0.2,0.4c-0.7,0.7-1.4,1.4-2.1,2.1c0.3,0.9,0.7,1.8,0.9,2.7l4,2.5
				c0.4,0.3,0.6,0.7,0.7,1.1L387.6,135.1z M371.6,118.1c-3.2-1.4-5.7,0.3-5.7,3.9c0,3.6,2.7,7.9,5.9,9.6c3.4,1.7,6.1,0,6-3.9
				C377.7,123.9,374.9,119.6,371.6,118.1z M405.1,127.7c0,0.4-3.8-0.8-4.4-1c-0.2,0.5-0.5,0.8-0.8,1.2c0.3,0.7,1.7,4.2,1.7,4.8
				c0,0.1,0,0.1-0.1,0.2c-0.3,0-3.4,0.5-3.5,0.5c-0.4-0.2-2.6-4.1-2.9-4.6c-0.3-0.1-0.6-0.2-0.8-0.3c-0.3-0.1-0.6-0.3-0.8-0.4
				c-0.3,0.3-2.2,2.2-2.6,2.1c-0.1-0.1-3.1-3.2-3.4-3.5c-0.1-0.1-0.1-0.2-0.1-0.2c0-0.5,1-2.8,1.2-3.3c-0.3-0.6-0.6-1.2-0.8-1.8
				c-0.5-0.3-3.9-2.1-3.9-2.5l-0.1-3.8c0-0.4,3.3,0.6,3.8,0.7c0.2-0.4,0.4-0.8,0.7-1.1c-0.3-0.6-1.4-3.8-1.5-4.3
				c0-0.1,0-0.1,0.1-0.1c0.3,0,3-0.7,3.2-0.6c0.3,0.1,2.5,3.6,2.7,4.2c0.3,0.1,0.5,0.2,0.8,0.3c0.3,0.1,0.5,0.2,0.8,0.4
				c0.7-0.8,1.5-1.6,2.4-2.2l0.2,0c0.1,0.1,3.3,3,3.6,3.4c0.1,0.1,0.1,0.2,0.1,0.2c0,0.5-1,2.9-1.3,3.4c0.4,0.6,0.7,1.2,0.9,1.9
				c0.6,0.3,4.4,2.3,4.4,2.7L405.1,127.7z M406.7,159.5c0,0.5-3.9-1.3-4.5-1.5c-0.2,0.5-0.5,0.8-0.8,1.1c0.3,0.8,1.7,4.7,1.8,5.3
				c0,0.1,0,0.1-0.1,0.2c-0.4,0-3.5,0.2-3.6,0.1c-0.4-0.2-2.7-4.6-3-5.3c-0.3-0.1-0.6-0.3-0.9-0.4c-0.3-0.2-0.6-0.4-0.9-0.6
				c-0.3,0.3-2.3,2.1-2.6,1.9c-0.1-0.1-3.2-3.7-3.5-4.1c-0.1-0.1-0.1-0.2-0.1-0.3c0-0.5,1-2.9,1.3-3.3c-0.3-0.7-0.6-1.3-0.9-2
				c-0.5-0.4-4-2.7-4-3.1l-0.1-4.1c0-0.4,3.4,1,3.9,1.2c0.2-0.4,0.5-0.8,0.8-1.1c-0.3-0.7-1.5-4.2-1.5-4.7c0-0.1,0-0.1,0.1-0.1
				c0.3,0,3.2-0.4,3.3-0.3c0.4,0.2,2.6,4.1,2.8,4.7c0.3,0.1,0.6,0.2,0.8,0.4c0.3,0.1,0.6,0.3,0.9,0.5c0.8-0.8,1.6-1.5,2.5-2l0.2,0
				c0.1,0.1,3.4,3.6,3.8,4c0.1,0.1,0.1,0.2,0.1,0.3c0,0.6-1.1,3-1.3,3.5c0.4,0.7,0.7,1.4,1,2.1c0.6,0.4,4.6,2.9,4.6,3.4L406.7,159.5
				z M393.8,117.4c-1.9-0.8-3.4,0.2-3.3,2.2c0.1,2,1.7,4.3,3.6,5.1c2,0.9,3.5-0.1,3.4-2.1C397.4,120.5,395.7,118.2,393.8,117.4z
				 M395,147.2c-2-1-3.5-0.2-3.4,1.9c0.1,2.1,1.8,4.7,3.8,5.8c2.1,1.1,3.7,0.3,3.6-1.9C398.8,150.9,397,148.2,395,147.2z"/>
		</g>
	</g>
	<g>
		<polygon fill="#E16B26" points="409.9,240 462.8,261.5 462.8,266 409,287 355.3,266 355.3,261 		"/>
		<g>
			<path fill="#F2F2F2" d="M468.8,318.9c0,3.4-1.9,6.5-4.8,8.1l-50.7,27.6c-1.4,0.8-2.9,1.2-4.4,1.2s-3-0.4-4.4-1.2L353.9,327
				c-3-1.6-4.8-4.7-4.8-8.1v-55.3c0-3.9,2.4-7.3,6-8.6l50.7-18.4c1-0.4,2.1-0.6,3.2-0.6s2.2,0.2,3.2,0.6l50.7,18.4
				c3.6,1.3,6,4.8,6,8.6V318.9z M459.2,263.5L409,245.2l-50.2,18.3l50.2,18.3L459.2,263.5z M459.6,318.9v-45.8l-46.1,16.8V344
				L459.6,318.9z"/>
		</g>
		<g>
			<path fill="#F2F2F2" d="M394.6,266.6c0-0.3-0.1-0.6-0.4-0.8c-0.3-0.2-0.7-0.4-1.3-0.5c-0.6-0.1-1.1-0.3-1.5-0.5
				c-0.4-0.2-0.7-0.4-0.8-0.7c-0.2-0.3-0.3-0.6-0.3-0.9c0-0.6,0.3-1.1,0.8-1.5c0.5-0.4,1.2-0.6,2-0.6c0.8,0,1.5,0.2,2,0.6
				c0.5,0.4,0.8,1,0.8,1.7h-1.3c0-0.3-0.1-0.6-0.4-0.9c-0.3-0.3-0.7-0.4-1.1-0.4c-0.5,0-0.8,0.1-1.1,0.3s-0.4,0.5-0.4,0.8
				c0,0.3,0.1,0.5,0.4,0.7s0.7,0.3,1.3,0.4c0.6,0.1,1.1,0.3,1.5,0.5s0.7,0.4,0.9,0.7c0.2,0.3,0.3,0.6,0.3,1c0,0.7-0.3,1.2-0.8,1.6
				c-0.5,0.4-1.2,0.6-2.1,0.6c-0.6,0-1.1-0.1-1.6-0.3s-0.8-0.5-1.1-0.9c-0.3-0.4-0.4-0.8-0.4-1.2h1.3c0,0.4,0.2,0.8,0.5,1
				c0.3,0.2,0.7,0.4,1.3,0.4c0.5,0,0.9-0.1,1.2-0.3C394.5,267.2,394.6,266.9,394.6,266.6z"/>
			<path fill="#F2F2F2" d="M400,268.7c-1,0-1.8-0.3-2.4-1c-0.6-0.7-0.9-1.5-0.9-2.6v-0.2c0-0.7,0.1-1.4,0.4-2c0.3-0.6,0.7-1,1.2-1.4
				c0.5-0.3,1-0.5,1.6-0.5c1,0,1.7,0.3,2.2,1s0.8,1.5,0.8,2.7v0.5h-5c0,0.7,0.2,1.3,0.6,1.8c0.4,0.4,0.9,0.7,1.6,0.7
				c0.4,0,0.8-0.1,1.1-0.3s0.6-0.4,0.8-0.7l0.8,0.6C402.2,268.2,401.3,268.7,400,268.7z M399.9,262.1c-0.5,0-0.9,0.2-1.3,0.6
				c-0.3,0.4-0.6,0.9-0.6,1.6h3.7v-0.1c0-0.6-0.2-1.1-0.5-1.5C400.8,262.2,400.4,262.1,399.9,262.1z"/>
			<path fill="#F2F2F2" d="M407.4,262.3c-0.2,0-0.4,0-0.6,0c-0.8,0-1.4,0.4-1.7,1.1v5.3h-1.3v-7.4h1.2l0,0.9c0.4-0.7,1-1,1.8-1
				c0.2,0,0.4,0,0.6,0.1V262.3z"/>
			<path fill="#F2F2F2" d="M410.6,266.8l1.8-5.7h1.3l-2.7,7.4h-1l-2.7-7.4h1.3L410.6,266.8z"/>
			<path fill="#F2F2F2" d="M414.4,259.2c0-0.2,0.1-0.4,0.2-0.5c0.1-0.1,0.3-0.2,0.6-0.2s0.4,0.1,0.6,0.2s0.2,0.3,0.2,0.5
				s-0.1,0.4-0.2,0.5s-0.3,0.2-0.6,0.2s-0.4-0.1-0.6-0.2C414.4,259.6,414.4,259.4,414.4,259.2z M415.7,268.5h-1.3v-7.4h1.3V268.5z"
				/>
			<path fill="#F2F2F2" d="M420.2,267.7c0.5,0,0.8-0.1,1.2-0.4s0.5-0.6,0.6-1h1.2c0,0.4-0.2,0.8-0.4,1.2s-0.6,0.7-1.1,0.9
				c-0.4,0.2-0.9,0.3-1.4,0.3c-1,0-1.8-0.3-2.4-1c-0.6-0.7-0.9-1.6-0.9-2.8v-0.2c0-0.7,0.1-1.4,0.4-1.9s0.6-1,1.1-1.3
				c0.5-0.3,1.1-0.5,1.8-0.5c0.8,0,1.5,0.2,2.1,0.7c0.5,0.5,0.8,1.1,0.9,1.9h-1.2c0-0.5-0.2-0.9-0.5-1.2c-0.3-0.3-0.7-0.5-1.2-0.5
				c-0.6,0-1.1,0.2-1.5,0.7c-0.4,0.5-0.5,1.1-0.5,2v0.2c0,0.9,0.2,1.5,0.5,2S419.5,267.7,420.2,267.7z"/>
			<path fill="#F2F2F2" d="M427,268.7c-1,0-1.8-0.3-2.4-1c-0.6-0.7-0.9-1.5-0.9-2.6v-0.2c0-0.7,0.1-1.4,0.4-2c0.3-0.6,0.7-1,1.2-1.4
				c0.5-0.3,1-0.5,1.6-0.5c1,0,1.7,0.3,2.2,1s0.8,1.5,0.8,2.7v0.5h-5c0,0.7,0.2,1.3,0.6,1.8c0.4,0.4,0.9,0.7,1.6,0.7
				c0.4,0,0.8-0.1,1.1-0.3s0.6-0.4,0.8-0.7l0.8,0.6C429.2,268.2,428.3,268.7,427,268.7z M426.9,262.1c-0.5,0-0.9,0.2-1.3,0.6
				c-0.3,0.4-0.6,0.9-0.6,1.6h3.7v-0.1c0-0.6-0.2-1.1-0.5-1.5C427.8,262.2,427.4,262.1,426.9,262.1z"/>
		</g>
		<g>
			<path fill="#36474F" d="M404.8,306.5l-10.7,8.5c-0.2,0.2-0.5,0.2-0.7,0c-0.5-0.2-0.9-1-0.8-1.6l0.6-7.5l-37.1-16
				c-0.4-0.2-0.8-0.9-0.8-1.6v-7.5c0-0.7,0.4-1.1,0.8-0.9l38,15.6l0.7-8.1c0.1-0.8,0.5-1.2,1.1-1c0.3,0.1,0.5,0.4,0.7,0.7l8.4,17.4
				c0.2,0.3,0.2,0.7,0.2,1.1C405.2,306.1,405,306.4,404.8,306.5z M402,333.9c-0.1,0.6-0.6,0.9-1,0.7l-36.4-17.4l-0.1,6.5
				c0,0.6-0.4,0.9-0.8,0.7c-0.2-0.1-0.4-0.3-0.6-0.6l-7.6-14.6c-0.1-0.3-0.2-0.6-0.2-0.9c0-0.3,0.1-0.6,0.2-0.7l8-8
				c0.2-0.2,0.4-0.2,0.6-0.1c0.4,0.2,0.8,0.9,0.8,1.6l-0.2,7l37.2,17.1c0.5,0.2,0.9,0.9,0.8,1.6L402,333.9z"/>
		</g>
	</g>
	<g>
		<polygon fill="#3360AD" points="199.8,64.3 252.7,85.8 252.7,90.3 198.8,111.3 145.2,90.3 145.2,85.3 		"/>
		<g>
			<path fill="#F2F2F2" d="M258.7,143.2c0,3.4-1.9,6.5-4.8,8.1l-50.7,27.6c-1.4,0.8-2.9,1.2-4.4,1.2s-3-0.4-4.4-1.2l-50.7-27.6
				c-3-1.6-4.8-4.7-4.8-8.1V87.9c0-3.9,2.4-7.3,6-8.6l50.7-18.4c1-0.4,2.1-0.6,3.2-0.6s2.2,0.2,3.2,0.6l50.7,18.4
				c3.6,1.3,6,4.8,6,8.6V143.2z M249.1,87.7l-50.2-18.3l-50.2,18.3l50.2,18.3L249.1,87.7z M249.5,143.2V97.4l-46.1,16.8v54.1
				L249.5,143.2z"/>
		</g>
		<g>
			<path fill="#F2F2F2" d="M189.9,91.1l1.8-5.7h1.3l-2.7,7.4h-1l-2.7-7.4h1.3L189.9,91.1z"/>
			<path fill="#F2F2F2" d="M193.7,83.4c0-0.2,0.1-0.4,0.2-0.5c0.1-0.1,0.3-0.2,0.6-0.2s0.4,0.1,0.6,0.2s0.2,0.3,0.2,0.5
				s-0.1,0.4-0.2,0.5s-0.3,0.2-0.6,0.2s-0.4-0.1-0.6-0.2C193.8,83.8,193.7,83.6,193.7,83.4z M195.1,92.8h-1.3v-7.4h1.3V92.8z"/>
			<path fill="#F2F2F2" d="M199.6,92.9c-1,0-1.8-0.3-2.4-1s-0.9-1.5-0.9-2.6v-0.2c0-0.7,0.1-1.4,0.4-2c0.3-0.6,0.7-1,1.2-1.4
				c0.5-0.3,1-0.5,1.6-0.5c1,0,1.7,0.3,2.2,1s0.8,1.5,0.8,2.7v0.5h-5c0,0.7,0.2,1.3,0.6,1.8c0.4,0.4,0.9,0.7,1.6,0.7
				c0.4,0,0.8-0.1,1.1-0.3s0.6-0.4,0.8-0.7l0.8,0.6C201.8,92.4,200.9,92.9,199.6,92.9z M199.5,86.3c-0.5,0-0.9,0.2-1.3,0.6
				s-0.6,0.9-0.6,1.6h3.7v-0.1c0-0.6-0.2-1.1-0.5-1.5S200,86.3,199.5,86.3z"/>
			<path fill="#F2F2F2" d="M210,91l1.4-5.7h1.3l-2.2,7.4h-1l-1.8-5.6l-1.8,5.6h-1l-2.1-7.4h1.3l1.5,5.5l1.7-5.5h1L210,91z"/>
		</g>
		<g>
			<path fill="#36474F" d="M159.8,143.8c-0.4,0.3-0.9,0-1.3-0.6l-12.9-22.6c-0.4-0.6-0.4-1.4,0-1.7l13.1-11.7c0.4-0.3,1-0.1,1.3,0.6
				l1.4,2.6c0.4,0.7,0.4,1.4,0,1.8l-11.1,9.7l10.8,19.2c0.4,0.6,0.3,1.3,0,1.6L159.8,143.8z M167,153.3c-0.1,0.5-0.6,0.6-1.1,0.3
				l-1.7-1.4c-0.5-0.4-0.7-1.1-0.6-1.7l11.5-42.7c0.2-0.6,0.7-0.8,1.2-0.4l1.8,1.5c0.5,0.4,0.8,1.2,0.6,1.8L167,153.3z M182.8,154.4
				c-0.4,0.3-0.9,0-1.3-0.6l-1.3-2.4c-0.3-0.6-0.3-1.3,0.1-1.6l11.7-9L181.2,121c-0.4-0.7-0.3-1.4,0.1-1.8l1.5-1.3
				c0.4-0.3,1-0.1,1.3,0.6l12.7,23.5c0.3,0.6,0.3,1.4-0.1,1.7L182.8,154.4z"/>
		</g>
	</g>
	<g>
		<polygon fill="#E51B4A" points="199.8,240 252.7,261.5 252.7,266 198.8,287 145.2,266 145.2,261 		"/>
		<g>
			<path fill="#F2F2F2" d="M258.7,318.9c0,3.4-1.9,6.5-4.8,8.1l-50.7,27.6c-1.4,0.8-2.9,1.2-4.4,1.2s-3-0.4-4.4-1.2L143.8,327
				c-3-1.6-4.8-4.7-4.8-8.1v-55.3c0-3.9,2.4-7.3,6-8.6l50.7-18.4c1-0.4,2.1-0.6,3.2-0.6s2.2,0.2,3.2,0.6l50.7,18.4
				c3.6,1.3,6,4.8,6,8.6V318.9z M249.1,263.5l-50.2-18.3l-50.2,18.3l50.2,18.3L249.1,263.5z M249.5,318.9v-45.8l-46.1,16.8V344
				L249.5,318.9z"/>
		</g>
		<g>
			<path fill="#F2F2F2" d="M176.3,264.8c0-1.1,0.3-2,0.8-2.7c0.5-0.7,1.2-1,2.1-1c0.9,0,1.6,0.3,2.1,0.9V258h1.3v10.5h-1.2l-0.1-0.8
				c-0.5,0.6-1.2,0.9-2.1,0.9c-0.9,0-1.6-0.4-2.1-1.1C176.6,266.9,176.3,266,176.3,264.8L176.3,264.8z M177.5,264.9
				c0,0.8,0.2,1.5,0.5,2s0.8,0.7,1.4,0.7c0.8,0,1.4-0.4,1.8-1.1v-3.4c-0.4-0.7-1-1-1.7-1c-0.6,0-1.1,0.2-1.4,0.7
				S177.5,264,177.5,264.9z"/>
			<path fill="#F2F2F2" d="M183.9,259.2c0-0.2,0.1-0.4,0.2-0.5c0.1-0.1,0.3-0.2,0.6-0.2s0.4,0.1,0.6,0.2s0.2,0.3,0.2,0.5
				s-0.1,0.4-0.2,0.5s-0.3,0.2-0.6,0.2s-0.4-0.1-0.6-0.2C184,259.6,183.9,259.4,183.9,259.2z M185.3,268.5H184v-7.4h1.3V268.5z"/>
			<path fill="#F2F2F2" d="M190.3,262.3c-0.2,0-0.4,0-0.6,0c-0.8,0-1.4,0.4-1.7,1.1v5.3h-1.3v-7.4h1.2l0,0.9c0.4-0.7,1-1,1.8-1
				c0.2,0,0.4,0,0.6,0.1V262.3z"/>
			<path fill="#F2F2F2" d="M193.9,268.7c-1,0-1.8-0.3-2.4-1c-0.6-0.7-0.9-1.5-0.9-2.6v-0.2c0-0.7,0.1-1.4,0.4-2
				c0.3-0.6,0.7-1,1.2-1.4c0.5-0.3,1-0.5,1.6-0.5c1,0,1.7,0.3,2.2,1s0.8,1.5,0.8,2.7v0.5h-5c0,0.7,0.2,1.3,0.6,1.8
				c0.4,0.4,0.9,0.7,1.6,0.7c0.4,0,0.8-0.1,1.1-0.3s0.6-0.4,0.8-0.7l0.8,0.6C196.1,268.2,195.1,268.7,193.9,268.7z M193.7,262.1
				c-0.5,0-0.9,0.2-1.3,0.6c-0.3,0.4-0.6,0.9-0.6,1.6h3.7v-0.1c0-0.6-0.2-1.1-0.5-1.5C194.7,262.2,194.3,262.1,193.7,262.1z"/>
			<path fill="#F2F2F2" d="M200.6,267.7c0.5,0,0.8-0.1,1.2-0.4s0.5-0.6,0.6-1h1.2c0,0.4-0.2,0.8-0.4,1.2s-0.6,0.7-1.1,0.9
				c-0.4,0.2-0.9,0.3-1.4,0.3c-1,0-1.8-0.3-2.4-1c-0.6-0.7-0.9-1.6-0.9-2.8v-0.2c0-0.7,0.1-1.4,0.4-1.9s0.6-1,1.1-1.3
				c0.5-0.3,1.1-0.5,1.8-0.5c0.8,0,1.5,0.2,2.1,0.7c0.5,0.5,0.8,1.1,0.9,1.9h-1.2c0-0.5-0.2-0.9-0.5-1.2c-0.3-0.3-0.7-0.5-1.2-0.5
				c-0.6,0-1.1,0.2-1.5,0.7c-0.4,0.5-0.5,1.1-0.5,2v0.2c0,0.9,0.2,1.5,0.5,2S200,267.7,200.6,267.7z"/>
			<path fill="#F2F2F2" d="M206.2,259.4v1.8h1.4v1h-1.4v4.6c0,0.3,0.1,0.5,0.2,0.7s0.3,0.2,0.6,0.2c0.1,0,0.3,0,0.6-0.1v1
				c-0.3,0.1-0.7,0.1-1,0.1c-0.6,0-1-0.2-1.3-0.5s-0.4-0.8-0.4-1.5v-4.6h-1.3v-1h1.3v-1.8H206.2z"/>
			<path fill="#F2F2F2" d="M208.5,259.2c0-0.2,0.1-0.4,0.2-0.5c0.1-0.1,0.3-0.2,0.6-0.2s0.4,0.1,0.6,0.2s0.2,0.3,0.2,0.5
				s-0.1,0.4-0.2,0.5s-0.3,0.2-0.6,0.2s-0.4-0.1-0.6-0.2C208.5,259.6,208.5,259.4,208.5,259.2z M209.8,268.5h-1.3v-7.4h1.3V268.5z"
				/>
			<path fill="#F2F2F2" d="M213.7,266.8l1.8-5.7h1.3l-2.7,7.4h-1l-2.7-7.4h1.3L213.7,266.8z"/>
			<path fill="#F2F2F2" d="M220.5,268.7c-1,0-1.8-0.3-2.4-1c-0.6-0.7-0.9-1.5-0.9-2.6v-0.2c0-0.7,0.1-1.4,0.4-2
				c0.3-0.6,0.7-1,1.2-1.4c0.5-0.3,1-0.5,1.6-0.5c1,0,1.7,0.3,2.2,1s0.8,1.5,0.8,2.7v0.5h-5c0,0.7,0.2,1.3,0.6,1.8
				c0.4,0.4,0.9,0.7,1.6,0.7c0.4,0,0.8-0.1,1.1-0.3s0.6-0.4,0.8-0.7l0.8,0.6C222.7,268.2,221.7,268.7,220.5,268.7z M220.3,262.1
				c-0.5,0-0.9,0.2-1.3,0.6c-0.3,0.4-0.6,0.9-0.6,1.6h3.7v-0.1c0-0.6-0.2-1.1-0.5-1.5C221.3,262.2,220.9,262.1,220.3,262.1z"/>
		</g>
		<g>
			<path fill="#36474F" d="M189.5,299.7l-34.3,25.7c-0.6,0.4-1.4,0.4-1.9,0c-0.1-0.1-0.3-0.3-0.4-0.4c-0.5-0.8-0.4-1.9,0.3-2.6
				l20.2-20.8l-12-2.9c-0.1,0-0.2-0.1-0.3-0.1c-0.3-0.1-0.5-0.4-0.6-0.6c-0.1-0.3,0-0.7,0.3-1l14.6-12.2c0.3-0.2,0.8-0.3,1.3-0.1
				l7.7,2.6c0.6,0.2,1,0.7,0.8,1.1c0,0.1-0.1,0.2-0.3,0.2l-8.8,6.6l12.1,2.5c0.1,0,0.3,0.1,0.4,0.1c0.4,0.2,0.7,0.4,0.9,0.7
				C189.9,299.1,189.9,299.5,189.5,299.7z"/>
		</g>
	</g>
	<g>
		<g>
			<line fill="none" stroke="#F2F2F2" stroke-width="2.2" stroke-miterlimit="10" x1="409" y1="186.4" x2="409" y2="188"/>
			
				<line fill="none" stroke="#F2F2F2" stroke-width="2.2" stroke-miterlimit="10" stroke-dasharray="3.5426,3.5426" x1="409" y1="191.6" x2="409" y2="218.1"/>
			<line fill="none" stroke="#F2F2F2" stroke-width="2.2" stroke-miterlimit="10" x1="409" y1="219.9" x2="409" y2="221.6"/>
			<g>
				<polygon fill="#F2F2F2" points="409,230.9 403.6,217.7 409,220.9 414.3,217.7 				"/>
			</g>
		</g>
	</g>
	<g>
		<g>
			<line fill="none" stroke="#F2F2F2" stroke-width="2.2" stroke-miterlimit="10" x1="198.8" y1="186.4" x2="198.8" y2="188"/>
			
				<line fill="none" stroke="#F2F2F2" stroke-width="2.2" stroke-miterlimit="10" stroke-dasharray="3.5426,3.5426" x1="198.8" y1="191.6" x2="198.8" y2="218.1"/>
			<line fill="none" stroke="#F2F2F2" stroke-width="2.2" stroke-miterlimit="10" x1="198.8" y1="219.9" x2="198.8" y2="221.6"/>
			<g>
				<polygon fill="#F2F2F2" points="198.8,230.9 193.5,217.7 198.8,220.9 204.2,217.7 				"/>
			</g>
		</g>
	</g>
	<g>
		<g>
			<path fill="#F2F2F2" d="M290.4,139.3c0-0.4-0.1-0.7-0.4-0.9s-0.7-0.5-1.3-0.7c-0.8-0.3-1.4-0.6-1.8-1s-0.6-0.9-0.6-1.6
				c0-0.6,0.2-1.2,0.6-1.6s0.9-0.7,1.5-0.7v-1.3h0.9v1.3c0.7,0.1,1.2,0.4,1.5,0.8s0.5,1.1,0.5,1.9h-1.1c0-0.6-0.1-1-0.4-1.3
				c-0.3-0.3-0.6-0.5-1.1-0.5c-0.5,0-0.8,0.1-1.1,0.4c-0.2,0.2-0.4,0.6-0.4,1c0,0.4,0.1,0.7,0.4,1s0.7,0.5,1.3,0.6s1.1,0.4,1.4,0.6
				s0.6,0.5,0.7,0.8s0.2,0.7,0.2,1.1c0,0.7-0.2,1.2-0.6,1.6s-1,0.6-1.7,0.7v1.1h-0.9v-1.1c-0.7-0.1-1.3-0.3-1.7-0.8
				s-0.6-1.1-0.6-1.8h1.1c0,0.5,0.1,1,0.4,1.3s0.7,0.4,1.2,0.4c0.5,0,0.9-0.1,1.2-0.4S290.4,139.7,290.4,139.3z"/>
			<path fill="#F2F2F2" d="M296.1,139.8c0-0.3-0.1-0.5-0.3-0.7s-0.6-0.3-1.2-0.4s-1-0.3-1.3-0.4s-0.6-0.4-0.7-0.6s-0.2-0.5-0.2-0.8
				c0-0.5,0.2-1,0.7-1.3s1-0.5,1.7-0.5c0.7,0,1.3,0.2,1.7,0.6s0.7,0.8,0.7,1.4h-1.1c0-0.3-0.1-0.6-0.4-0.8s-0.6-0.3-1-0.3
				c-0.4,0-0.7,0.1-0.9,0.3s-0.3,0.4-0.3,0.7c0,0.3,0.1,0.5,0.3,0.6s0.6,0.3,1.1,0.4s1,0.3,1.3,0.4s0.6,0.4,0.7,0.6s0.2,0.5,0.2,0.9
				c0,0.6-0.2,1-0.7,1.4s-1,0.5-1.8,0.5c-0.5,0-1-0.1-1.3-0.3s-0.7-0.4-0.9-0.8s-0.3-0.7-0.3-1h1.1c0,0.4,0.2,0.7,0.4,0.9
				s0.6,0.3,1.1,0.3c0.4,0,0.7-0.1,1-0.2S296.1,140.1,296.1,139.8z"/>
			<path fill="#F2F2F2" d="M300.7,140.7c0.4,0,0.7-0.1,1-0.4s0.4-0.5,0.5-0.9h1c0,0.4-0.1,0.7-0.4,1s-0.5,0.6-0.9,0.8
				s-0.8,0.3-1.2,0.3c-0.9,0-1.5-0.3-2.1-0.9s-0.8-1.4-0.8-2.4v-0.2c0-0.6,0.1-1.2,0.3-1.6s0.6-0.9,1-1.1s0.9-0.4,1.5-0.4
				c0.7,0,1.3,0.2,1.8,0.6s0.7,1,0.8,1.7h-1c0-0.4-0.2-0.7-0.5-1s-0.6-0.4-1-0.4c-0.6,0-1,0.2-1.3,0.6s-0.5,1-0.5,1.7v0.2
				c0,0.7,0.2,1.3,0.5,1.7S300.1,140.7,300.7,140.7z"/>
			<path fill="#F2F2F2" d="M303.7,138.3c0-0.6,0.1-1.2,0.4-1.7s0.6-0.9,1-1.1s0.9-0.4,1.5-0.4c0.9,0,1.6,0.3,2.1,0.9
				s0.8,1.4,0.8,2.4v0.1c0,0.6-0.1,1.2-0.4,1.7s-0.6,0.9-1,1.1s-0.9,0.4-1.5,0.4c-0.9,0-1.6-0.3-2.1-0.9S303.7,139.3,303.7,138.3
				L303.7,138.3z M304.8,138.4c0,0.7,0.2,1.3,0.5,1.7s0.8,0.6,1.3,0.6c0.6,0,1-0.2,1.3-0.6s0.5-1,0.5-1.8c0-0.7-0.2-1.3-0.5-1.7
				s-0.8-0.6-1.3-0.6c-0.5,0-1,0.2-1.3,0.6S304.8,137.6,304.8,138.4z"/>
			<path fill="#F2F2F2" d="M315.7,138.4c0,1-0.2,1.7-0.7,2.3s-1,0.9-1.8,0.9c-0.8,0-1.4-0.2-1.8-0.7v3.1h-1.1v-8.8h1l0.1,0.7
				c0.4-0.5,1.1-0.8,1.8-0.8c0.8,0,1.4,0.3,1.8,0.9S315.7,137.3,315.7,138.4L315.7,138.4z M314.6,138.3c0-0.7-0.2-1.3-0.5-1.7
				s-0.7-0.6-1.3-0.6c-0.7,0-1.1,0.3-1.5,0.9v3c0.3,0.6,0.8,0.9,1.5,0.9c0.5,0,0.9-0.2,1.2-0.6S314.6,139.1,314.6,138.3z"/>
			<path fill="#F2F2F2" d="M319.2,141.6c-0.9,0-1.6-0.3-2.1-0.8s-0.8-1.3-0.8-2.3v-0.2c0-0.6,0.1-1.2,0.4-1.7s0.6-0.9,1-1.2
				s0.9-0.4,1.4-0.4c0.8,0,1.5,0.3,1.9,0.8s0.7,1.3,0.7,2.3v0.5h-4.3c0,0.6,0.2,1.1,0.5,1.5s0.8,0.6,1.3,0.6c0.4,0,0.7-0.1,1-0.2
				s0.5-0.4,0.7-0.6l0.7,0.5C321.1,141.2,320.3,141.6,319.2,141.6z M319.1,135.9c-0.4,0-0.8,0.2-1.1,0.5s-0.5,0.8-0.6,1.3h3.2v-0.1
				c0-0.6-0.2-1-0.4-1.3S319.5,135.9,319.1,135.9z"/>
		</g>
		<g>
			<path fill="none" stroke="#F2F2F2" stroke-width="2.2" stroke-miterlimit="10" d="M305.1,126.8c-0.8,0.7-2.2,0.6-3-0.1l-6.5-5.4
				c-0.8-0.7-0.8-1.8,0-2.4l6.5-5.4c0.8-0.7,2.2-0.7,3-0.1l6.8,5.4c0.9,0.7,0.9,1.8,0,2.5L305.1,126.8z"/>
			<line fill="none" stroke="#F2F2F2" stroke-width="2.2" stroke-miterlimit="10" x1="311.9" y1="120.1" x2="349.1" y2="120.1"/>
			<line fill="none" stroke="#F2F2F2" stroke-width="2.2" stroke-miterlimit="10" x1="257.1" y1="120.1" x2="294.3" y2="120.1"/>
		</g>
	</g>
</g>
</svg>
