<?xml version="1.0" encoding="utf-8"?>
<!-- Generator: Adobe Illustrator 16.0.0, SVG Export Plug-In . SVG Version: 6.00 Build 0)  -->
<!DOCTYPE svg PUBLIC "-//W3C//DTD SVG 1.1//EN" "http://www.w3.org/Graphics/SVG/1.1/DTD/svg11.dtd">
<svg version="1.1" xmlns="http://www.w3.org/2000/svg" xmlns:xlink="http://www.w3.org/1999/xlink" x="0px" y="0px" width="600px"
	 height="400px" viewBox="0 0 600 400" enable-background="new 0 0 600 400" xml:space="preserve">
<g id="Layer_1">
	<rect x="-7" y="-6.5" fill="#36474F" width="615" height="413"/>
	<rect x="-7" y="-6.5" opacity="0.2" fill="#FFFFFF" width="211.3" height="413"/>
	<rect x="396.7" y="-6.5" opacity="0.2" width="211.3" height="413"/>
</g>
<g id="Layer_2">
	<g>
		<path fill="#F2F2F2" d="M49.7,43l11.5,4.4v4.7l-16.3-7.3v-3.8l16.3-7.3v4.7L49.7,43z"/>
		<path fill="#F2F2F2" d="M70.3,36.5c1.5-1.8,3.5-2.7,5.9-2.7c4.5,0,6.8,2.6,6.9,7.7v13.8h-4.7V41.7c0-1.5-0.3-2.5-0.9-3.1
			c-0.6-0.6-1.6-0.9-2.8-0.9c-1.9,0-3.3,0.8-4.3,2.5v15.1h-4.7v-30h4.7V36.5z"/>
		<path fill="#F2F2F2" d="M93,29.1v5.1h3.7v3.5H93v11.8c0,0.8,0.2,1.4,0.5,1.7c0.3,0.4,0.9,0.5,1.7,0.5c0.5,0,1.1-0.1,1.7-0.2v3.7
			c-1.1,0.3-2.1,0.4-3.1,0.4c-3.6,0-5.5-2-5.5-6v-12h-3.5v-3.5h3.5v-5.1H93z"/>
		<path fill="#F2F2F2" d="M104,34.2l0.1,2.2c1.5-1.7,3.5-2.6,6.1-2.6c2.8,0,4.8,1.1,5.8,3.2c1.5-2.2,3.7-3.2,6.5-3.2
			c2.3,0,4.1,0.6,5.2,1.9c1.1,1.3,1.7,3.2,1.7,5.7v13.9h-4.7V41.6c0-1.3-0.3-2.3-0.9-2.9s-1.6-0.9-2.9-0.9c-1.1,0-2,0.3-2.6,0.9
			c-0.7,0.6-1.2,1.3-1.4,2.3l0,14.5h-4.7V41.4c-0.1-2.5-1.3-3.7-3.8-3.7c-1.9,0-3.2,0.8-4,2.3v15.3h-4.7V34.2H104z"/>
		<path fill="#F2F2F2" d="M138.6,55.3h-4.7v-30h4.7V55.3z"/>
		<path fill="#F2F2F2" d="M155.1,42.9L143,38.5v-4.7l16.9,7.3v3.8L143,52.1v-4.7L155.1,42.9z"/>
	</g>
	<g>
		
			<rect x="21.5" y="124.3" fill="#3360AC" stroke="#F2F2F2" stroke-width="2.6316" stroke-miterlimit="10" width="163.1" height="45.3"/>
		<g>
			<path fill="#F2F2F2" d="M60.9,152c0-0.5-0.2-0.8-0.6-1.1c-0.4-0.2-1-0.5-1.9-0.6c-0.9-0.2-1.6-0.4-2.2-0.7c-1.3-0.6-2-1.5-2-2.7
				c0-1,0.4-1.8,1.3-2.5c0.8-0.7,1.9-1,3.2-1c1.4,0,2.5,0.3,3.4,1c0.9,0.7,1.3,1.6,1.3,2.7h-2.6c0-0.5-0.2-0.9-0.6-1.3
				s-0.9-0.5-1.5-0.5c-0.6,0-1,0.1-1.4,0.4c-0.4,0.3-0.5,0.6-0.5,1.1c0,0.4,0.2,0.7,0.5,0.9c0.3,0.2,1,0.4,2,0.7s1.8,0.5,2.4,0.8
				c0.6,0.3,1,0.7,1.3,1.1c0.3,0.4,0.4,1,0.4,1.6c0,1-0.4,1.9-1.3,2.5c-0.9,0.6-2,1-3.4,1c-1,0-1.8-0.2-2.5-0.5s-1.3-0.8-1.7-1.4
				s-0.6-1.2-0.6-1.9h2.5c0,0.6,0.3,1.1,0.7,1.4s1,0.5,1.7,0.5c0.7,0,1.2-0.1,1.6-0.4C60.7,152.7,60.9,152.4,60.9,152z"/>
			<path fill="#F2F2F2" d="M68.6,140.7v2.8h2.1v1.9h-2.1v6.5c0,0.4,0.1,0.8,0.3,1c0.2,0.2,0.5,0.3,0.9,0.3c0.3,0,0.6,0,0.9-0.1v2
				c-0.6,0.2-1.2,0.2-1.7,0.2c-2,0-3-1.1-3-3.3v-6.6H64v-1.9H66v-2.8H68.6z"/>
			<path fill="#F2F2F2" d="M79.1,155.1c-0.1-0.2-0.2-0.6-0.3-1.1c-0.8,0.9-1.8,1.3-3.1,1.3c-1.2,0-2.1-0.3-2.9-1s-1.1-1.5-1.1-2.5
				c0-1.2,0.5-2.2,1.4-2.9c0.9-0.7,2.2-1,3.9-1h1.6v-0.8c0-0.6-0.2-1.1-0.5-1.4c-0.3-0.4-0.8-0.5-1.5-0.5c-0.6,0-1.1,0.1-1.5,0.4
				c-0.4,0.3-0.6,0.7-0.6,1.1h-2.6c0-0.6,0.2-1.2,0.6-1.8c0.4-0.6,1-1,1.7-1.3c0.7-0.3,1.5-0.5,2.4-0.5c1.4,0,2.4,0.3,3.3,1
				c0.8,0.7,1.2,1.6,1.2,2.9v5.2c0,1,0.1,1.9,0.4,2.5v0.2H79.1z M76.3,153.3c0.5,0,1-0.1,1.5-0.4c0.5-0.3,0.8-0.6,1-1v-2.2h-1.4
				c-1,0-1.7,0.2-2.2,0.5c-0.5,0.3-0.7,0.8-0.7,1.4c0,0.5,0.2,0.9,0.5,1.2C75.2,153.1,75.7,153.3,76.3,153.3z"/>
			<path fill="#F2F2F2" d="M86.9,140.7v2.8H89v1.9h-2.1v6.5c0,0.4,0.1,0.8,0.3,1c0.2,0.2,0.5,0.3,0.9,0.3c0.3,0,0.6,0,0.9-0.1v2
				c-0.6,0.2-1.2,0.2-1.7,0.2c-2,0-3-1.1-3-3.3v-6.6h-1.9v-1.9h1.9v-2.8H86.9z"/>
			<path fill="#F2F2F2" d="M90.5,140.5c0-0.4,0.1-0.7,0.4-1c0.3-0.3,0.6-0.4,1.1-0.4s0.8,0.1,1.1,0.4c0.3,0.3,0.4,0.6,0.4,1
				c0,0.4-0.1,0.7-0.4,1c-0.3,0.3-0.6,0.4-1.1,0.4s-0.8-0.1-1.1-0.4C90.6,141.2,90.5,140.9,90.5,140.5z M93.3,155.1h-2.6v-11.6h2.6
				V155.1z"/>
			<path fill="#F2F2F2" d="M100.5,153.3c0.7,0,1.2-0.2,1.6-0.6c0.4-0.4,0.7-0.8,0.7-1.4h2.5c0,0.7-0.3,1.4-0.7,2
				c-0.4,0.6-1,1.1-1.7,1.5s-1.5,0.5-2.3,0.5c-1.6,0-2.9-0.5-3.9-1.6s-1.4-2.5-1.4-4.4v-0.3c0-1.8,0.5-3.2,1.4-4.2s2.2-1.6,3.9-1.6
				c1.4,0,2.5,0.4,3.4,1.2s1.3,1.9,1.4,3.2h-2.5c0-0.7-0.3-1.2-0.7-1.6c-0.4-0.4-1-0.6-1.6-0.6c-0.8,0-1.5,0.3-2,0.9
				s-0.7,1.5-0.7,2.8v0.4c0,1.3,0.2,2.2,0.7,2.8C99,153,99.6,153.3,100.5,153.3z"/>
			<path fill="#F2F2F2" d="M111.3,149.2c0-1.8,0.4-3.2,1.2-4.3s1.9-1.6,3.3-1.6c1.2,0,2.2,0.4,3,1.3v-6h2.6v16.5h-2.4l-0.1-1.2
				c-0.8,0.9-1.8,1.4-3.1,1.4c-1.4,0-2.5-0.5-3.3-1.6C111.7,152.6,111.3,151.1,111.3,149.2z M113.9,149.5c0,1.2,0.2,2.1,0.7,2.8
				c0.5,0.7,1.1,1,1.9,1c1.1,0,1.8-0.5,2.3-1.4v-5c-0.5-0.9-1.3-1.4-2.3-1.4c-0.8,0-1.5,0.3-2,1
				C114.2,147.1,113.9,148.1,113.9,149.5z"/>
			<path fill="#F2F2F2" d="M123.3,149.2c0-1.1,0.2-2.2,0.7-3.1s1.1-1.6,1.9-2.1c0.8-0.5,1.8-0.7,2.8-0.7c1.6,0,2.8,0.5,3.8,1.5
				s1.5,2.3,1.6,4l0,0.6c0,1.1-0.2,2.2-0.7,3.1s-1.1,1.6-1.9,2.1s-1.8,0.7-2.8,0.7c-1.6,0-3-0.5-3.9-1.6c-1-1.1-1.5-2.5-1.5-4.4
				V149.2z M125.9,149.4c0,1.2,0.2,2.1,0.7,2.8s1.2,1,2.1,1s1.6-0.3,2.1-1s0.7-1.7,0.7-3c0-1.2-0.3-2.1-0.8-2.8s-1.2-1-2.1-1
				c-0.9,0-1.5,0.3-2,1C126.2,147.1,125.9,148.1,125.9,149.4z"/>
			<path fill="#F2F2F2" d="M138.3,143.5l0.1,1.2c0.8-1,1.9-1.4,3.4-1.4c1.6,0,2.6,0.6,3.2,1.8c0.8-1.2,2-1.8,3.6-1.8
				c1.3,0,2.2,0.4,2.9,1.1c0.6,0.7,0.9,1.8,1,3.1v7.6h-2.6v-7.6c0-0.7-0.2-1.3-0.5-1.6s-0.9-0.5-1.6-0.5c-0.6,0-1.1,0.2-1.5,0.5
				c-0.4,0.3-0.6,0.7-0.8,1.3l0,8h-2.6v-7.6c0-1.4-0.7-2.1-2.1-2.1c-1,0-1.8,0.4-2.2,1.3v8.4h-2.6v-11.6H138.3z"/>
		</g>
	</g>
	<g>
		
			<rect x="21.5" y="262" fill="#3360AC" stroke="#F2F2F2" stroke-width="2.6316" stroke-miterlimit="10" width="163.1" height="45.3"/>
		<g>
			<path fill="#F2F2F2" d="M39.8,284.7c0-1.8,0.4-3.2,1.2-4.3c0.8-1.1,1.9-1.6,3.3-1.6c1.2,0,2.2,0.4,3,1.3v-6H50v16.5h-2.4
				l-0.1-1.2c-0.8,0.9-1.8,1.4-3.1,1.4c-1.4,0-2.5-0.5-3.3-1.6C40.3,288.1,39.8,286.6,39.8,284.7z M42.4,284.9
				c0,1.2,0.2,2.1,0.7,2.8c0.5,0.7,1.1,1,1.9,1c1.1,0,1.8-0.5,2.3-1.4v-5c-0.5-0.9-1.3-1.4-2.3-1.4c-0.8,0-1.5,0.3-2,1
				C42.7,282.6,42.4,283.6,42.4,284.9z"/>
			<path fill="#F2F2F2" d="M56.4,286.9l2.4-7.9h2.8l-4.6,13.4c-0.7,2-1.9,2.9-3.6,2.9c-0.4,0-0.8-0.1-1.3-0.2v-2l0.5,0
				c0.7,0,1.2-0.1,1.5-0.4c0.3-0.2,0.6-0.6,0.8-1.2l0.4-1L51.1,279h2.8L56.4,286.9z"/>
			<path fill="#F2F2F2" d="M65,279l0.1,1.3c0.9-1,2-1.6,3.4-1.6c2.4,0,3.7,1.4,3.7,4.2v7.7h-2.6v-7.5c0-0.7-0.2-1.3-0.5-1.6
				c-0.3-0.4-0.8-0.5-1.6-0.5c-1.1,0-1.8,0.5-2.4,1.4v8.3h-2.6V279H65z"/>
			<path fill="#F2F2F2" d="M81.3,290.6c-0.1-0.2-0.2-0.6-0.3-1.1c-0.8,0.9-1.8,1.3-3.1,1.3c-1.2,0-2.1-0.3-2.9-1
				c-0.7-0.7-1.1-1.5-1.1-2.5c0-1.2,0.5-2.2,1.4-2.9c0.9-0.7,2.2-1,3.9-1h1.6v-0.8c0-0.6-0.2-1.1-0.5-1.4c-0.3-0.4-0.8-0.5-1.5-0.5
				c-0.6,0-1.1,0.1-1.5,0.4c-0.4,0.3-0.6,0.7-0.6,1.1h-2.6c0-0.6,0.2-1.2,0.6-1.8c0.4-0.6,1-1,1.7-1.3c0.7-0.3,1.5-0.5,2.4-0.5
				c1.4,0,2.4,0.3,3.3,1c0.8,0.7,1.2,1.6,1.2,2.9v5.2c0,1,0.1,1.9,0.4,2.5v0.2H81.3z M78.4,288.7c0.5,0,1-0.1,1.5-0.4
				c0.5-0.3,0.8-0.6,1-1v-2.2h-1.4c-1,0-1.7,0.2-2.2,0.5c-0.5,0.3-0.7,0.8-0.7,1.4c0,0.5,0.2,0.9,0.5,1.2
				C77.4,288.6,77.9,288.7,78.4,288.7z"/>
			<path fill="#F2F2F2" d="M88.3,279l0.1,1.2c0.8-1,1.9-1.4,3.4-1.4c1.6,0,2.6,0.6,3.2,1.8c0.8-1.2,2-1.8,3.6-1.8
				c1.3,0,2.2,0.4,2.9,1.1c0.6,0.7,0.9,1.8,1,3.1v7.6h-2.6v-7.6c0-0.7-0.2-1.3-0.5-1.6s-0.9-0.5-1.6-0.5c-0.6,0-1.1,0.2-1.5,0.5
				c-0.4,0.3-0.6,0.7-0.8,1.3l0,8h-2.6V283c0-1.4-0.7-2.1-2.1-2.1c-1,0-1.8,0.4-2.2,1.3v8.4h-2.6V279H88.3z"/>
			<path fill="#F2F2F2" d="M104.5,276c0-0.4,0.1-0.7,0.4-1c0.3-0.3,0.6-0.4,1.1-0.4s0.8,0.1,1.1,0.4c0.3,0.3,0.4,0.6,0.4,1
				c0,0.4-0.1,0.7-0.4,1s-0.6,0.4-1.1,0.4s-0.8-0.1-1.1-0.4C104.7,276.7,104.5,276.4,104.5,276z M107.3,290.6h-2.6V279h2.6V290.6z"
				/>
			<path fill="#F2F2F2" d="M114.5,288.7c0.7,0,1.2-0.2,1.6-0.6s0.7-0.8,0.7-1.4h2.5c0,0.7-0.3,1.4-0.7,2c-0.4,0.6-1,1.1-1.7,1.5
				c-0.7,0.4-1.5,0.5-2.3,0.5c-1.6,0-2.9-0.5-3.9-1.6c-1-1.1-1.4-2.5-1.4-4.4v-0.3c0-1.8,0.5-3.2,1.4-4.2c0.9-1.1,2.2-1.6,3.9-1.6
				c1.4,0,2.5,0.4,3.4,1.2c0.9,0.8,1.3,1.9,1.4,3.2h-2.5c0-0.7-0.3-1.2-0.7-1.6c-0.4-0.4-1-0.6-1.6-0.6c-0.8,0-1.5,0.3-2,0.9
				c-0.5,0.6-0.7,1.5-0.7,2.8v0.4c0,1.3,0.2,2.2,0.7,2.8C113,288.4,113.6,288.7,114.5,288.7z"/>
			<path fill="#F2F2F2" d="M125.3,284.7c0-1.8,0.4-3.2,1.2-4.3c0.8-1.1,1.9-1.6,3.3-1.6c1.2,0,2.2,0.4,3,1.3v-6h2.6v16.5h-2.4
				l-0.1-1.2c-0.8,0.9-1.8,1.4-3.1,1.4c-1.4,0-2.5-0.5-3.3-1.6C125.8,288.1,125.3,286.6,125.3,284.7z M127.9,284.9
				c0,1.2,0.2,2.1,0.7,2.8c0.5,0.7,1.1,1,1.9,1c1.1,0,1.8-0.5,2.3-1.4v-5c-0.5-0.9-1.3-1.4-2.3-1.4c-0.8,0-1.5,0.3-2,1
				C128.2,282.6,127.9,283.6,127.9,284.9z"/>
			<path fill="#F2F2F2" d="M137.3,284.7c0-1.1,0.2-2.2,0.7-3.1c0.5-0.9,1.1-1.6,1.9-2.1s1.8-0.7,2.8-0.7c1.6,0,2.8,0.5,3.8,1.5
				s1.5,2.3,1.6,4l0,0.6c0,1.1-0.2,2.2-0.7,3.1s-1.1,1.6-1.9,2.1c-0.8,0.5-1.8,0.7-2.8,0.7c-1.6,0-3-0.5-3.9-1.6
				c-1-1.1-1.5-2.5-1.5-4.4V284.7z M139.9,284.9c0,1.2,0.2,2.1,0.7,2.8c0.5,0.7,1.2,1,2.1,1s1.6-0.3,2.1-1c0.5-0.7,0.7-1.7,0.7-3
				c0-1.2-0.3-2.1-0.8-2.8s-1.2-1-2.1-1c-0.9,0-1.5,0.3-2,1C140.2,282.6,139.9,283.6,139.9,284.9z"/>
			<path fill="#F2F2F2" d="M152.3,279l0.1,1.2c0.8-1,1.9-1.4,3.4-1.4c1.6,0,2.6,0.6,3.2,1.8c0.8-1.2,2-1.8,3.6-1.8
				c1.3,0,2.2,0.4,2.9,1.1c0.6,0.7,0.9,1.8,1,3.1v7.6h-2.6v-7.6c0-0.7-0.2-1.3-0.5-1.6s-0.9-0.5-1.6-0.5c-0.6,0-1.1,0.2-1.5,0.5
				c-0.4,0.3-0.6,0.7-0.8,1.3l0,8h-2.6V283c0-1.4-0.7-2.1-2.1-2.1c-1,0-1.8,0.4-2.2,1.3v8.4h-2.6V279H152.3z"/>
		</g>
	</g>
	<g opacity="0.2">
		<path d="M44.2,373.7c0,4.1-0.9,7.4-2.7,9.8c-1.8,2.4-4.4,3.6-7.6,3.6c-3.1,0-5.5-1.1-7.2-3.3l-0.3,2.9H21v-37.5h5.9v13.6
			c1.7-2,4-3,6.9-3c3.2,0,5.8,1.2,7.6,3.6c1.8,2.4,2.8,5.7,2.8,10V373.7z M38.2,373.2c0-2.9-0.5-5-1.5-6.4c-1-1.4-2.5-2.1-4.4-2.1
			c-2.6,0-4.4,1.1-5.4,3.4v10.9c1.1,2.3,2.9,3.4,5.5,3.4c1.9,0,3.3-0.7,4.3-2.1c1-1.4,1.5-3.5,1.6-6.3V373.2z"/>
		<path d="M61,365.7c-0.8-0.1-1.6-0.2-2.4-0.2c-2.7,0-4.5,1-5.5,3.1v18.1h-5.9v-26.4h5.7l0.1,3c1.4-2.3,3.4-3.4,6-3.4
			c0.8,0,1.5,0.1,2.1,0.3L61,365.7z"/>
		<path d="M60.7,373.2c0-2.6,0.5-4.9,1.5-7c1-2.1,2.5-3.7,4.3-4.8c1.9-1.1,4-1.7,6.4-1.7c3.6,0,6.5,1.1,8.7,3.4s3.4,5.3,3.6,9.1
			l0,1.4c0,2.6-0.5,4.9-1.5,7s-2.4,3.6-4.3,4.8c-1.9,1.1-4,1.7-6.5,1.7c-3.7,0-6.7-1.2-8.9-3.7c-2.2-2.5-3.4-5.8-3.4-9.9V373.2z
			 M66.7,373.7c0,2.7,0.6,4.8,1.7,6.4c1.1,1.5,2.7,2.3,4.7,2.3s3.6-0.8,4.7-2.3c1.1-1.6,1.7-3.8,1.7-6.9c0-2.7-0.6-4.8-1.7-6.3
			s-2.7-2.3-4.7-2.3c-1.9,0-3.5,0.8-4.6,2.3C67.2,368.4,66.7,370.7,66.7,373.7z"/>
		<path d="M111.5,378.5l4.2-18.2h5.8l-7.2,26.4h-4.9l-5.7-18.1l-5.6,18.1h-4.9l-7.2-26.4h5.8l4.3,18l5.4-18h4.5L111.5,378.5z"/>
		<path d="M138.3,379.5c0-1.1-0.4-1.9-1.3-2.4c-0.9-0.6-2.3-1-4.3-1.5c-2-0.4-3.7-1-5.1-1.6c-3-1.4-4.4-3.5-4.4-6.2
			c0-2.3,1-4.2,2.9-5.7c1.9-1.5,4.4-2.3,7.3-2.3c3.2,0,5.7,0.8,7.7,2.3c1.9,1.6,2.9,3.6,2.9,6.1H138c0-1.1-0.4-2.1-1.3-2.8
			c-0.8-0.8-2-1.1-3.4-1.1c-1.3,0-2.4,0.3-3.2,0.9c-0.8,0.6-1.2,1.4-1.2,2.4c0,0.9,0.4,1.6,1.1,2.1c0.8,0.5,2.3,1,4.6,1.5
			c2.3,0.5,4.2,1.1,5.5,1.8c1.3,0.7,2.3,1.6,3,2.6c0.6,1,1,2.2,1,3.6c0,2.4-1,4.3-3,5.8c-2,1.5-4.5,2.2-7.7,2.2
			c-2.2,0-4.1-0.4-5.8-1.2c-1.7-0.8-3-1.9-4-3.2c-0.9-1.4-1.4-2.8-1.4-4.4h5.8c0.1,1.4,0.6,2.5,1.6,3.2c1,0.8,2.3,1.1,3.9,1.1
			c1.6,0,2.8-0.3,3.6-0.9C137.9,381.2,138.3,380.4,138.3,379.5z"/>
		<path d="M158.9,387.2c-3.8,0-6.8-1.2-9.1-3.6c-2.3-2.4-3.5-5.5-3.5-9.5v-0.7c0-2.6,0.5-5,1.5-7.1c1-2.1,2.4-3.7,4.3-4.8
			c1.8-1.2,3.9-1.7,6.2-1.7c3.6,0,6.4,1.1,8.3,3.4c2,2.3,2.9,5.5,2.9,9.7v2.4h-17.3c0.2,2.2,0.9,3.9,2.2,5.2
			c1.3,1.3,2.9,1.9,4.8,1.9c2.7,0,4.9-1.1,6.6-3.3l3.2,3.1c-1.1,1.6-2.5,2.8-4.2,3.7C163.1,386.7,161.1,387.2,158.9,387.2z
			 M158.2,364.5c-1.6,0-2.9,0.6-3.9,1.7c-1,1.1-1.6,2.7-1.9,4.8h11.3v-0.4c-0.1-2-0.7-3.5-1.6-4.5
			C161.1,365,159.8,364.5,158.2,364.5z"/>
		<path d="M185.9,365.7c-0.8-0.1-1.6-0.2-2.4-0.2c-2.7,0-4.5,1-5.5,3.1v18.1h-5.9v-26.4h5.7l0.1,3c1.4-2.3,3.4-3.4,6-3.4
			c0.8,0,1.5,0.1,2.1,0.3L185.9,365.7z"/>
	</g>
	<g opacity="0.2">
		<path fill="#FFFFFF" d="M445.9,386.7c-0.3-0.5-0.5-1.3-0.7-2.5c-1.9,2-4.2,3-6.9,3c-2.7,0-4.8-0.8-6.5-2.3
			c-1.7-1.5-2.5-3.4-2.5-5.6c0-2.8,1-5,3.1-6.5c2.1-1.5,5.1-2.3,9-2.3h3.6v-1.7c0-1.4-0.4-2.5-1.1-3.3c-0.8-0.8-1.9-1.2-3.5-1.2
			c-1.4,0-2.5,0.3-3.3,1c-0.9,0.7-1.3,1.5-1.3,2.6h-5.9c0-1.4,0.5-2.8,1.4-4.1c1-1.3,2.3-2.3,3.9-3c1.7-0.7,3.5-1.1,5.5-1.1
			c3.1,0,5.6,0.8,7.4,2.3c1.8,1.6,2.8,3.7,2.8,6.6v11.9c0,2.4,0.3,4.3,1,5.7v0.4H445.9z M439.4,382.4c1.2,0,2.3-0.3,3.3-0.9
			c1-0.6,1.8-1.3,2.3-2.3v-5h-3.2c-2.2,0-3.8,0.4-5,1.1c-1.1,0.8-1.7,1.8-1.7,3.2c0,1.1,0.4,2,1.1,2.7
			C437.1,382.1,438.1,382.4,439.4,382.4z"/>
		<path fill="#FFFFFF" d="M460.7,360.3l0.2,3.1c2-2.4,4.5-3.5,7.7-3.5c5.5,0,8.3,3.1,8.4,9.4v17.5H471v-17.1c0-1.7-0.4-2.9-1.1-3.7
			c-0.7-0.8-1.9-1.2-3.6-1.2c-2.4,0-4.2,1.1-5.3,3.2v18.8h-5.9v-26.4H460.7z"/>
		<path fill="#FFFFFF" d="M480,373.3c0-4.1,1-7.4,2.9-9.8c1.9-2.4,4.5-3.7,7.7-3.7c3,0,5.4,1,7.1,3.1l0.3-2.7h5.3v25.6
			c0,3.5-1.1,6.2-3.2,8.2c-2.2,2-5.1,3-8.7,3c-1.9,0-3.8-0.4-5.7-1.2c-1.8-0.8-3.3-1.9-4.2-3.2l2.8-3.6c1.8,2.2,4.1,3.2,6.7,3.2
			c2,0,3.5-0.5,4.7-1.6c1.1-1.1,1.7-2.6,1.7-4.7v-1.8c-1.7,1.9-4,2.9-6.8,2.9c-3.1,0-5.6-1.2-7.6-3.7C480.9,381,480,377.6,480,373.3
			z M485.9,373.8c0,2.7,0.5,4.7,1.6,6.3c1.1,1.5,2.6,2.3,4.5,2.3c2.4,0,4.2-1,5.3-3.1v-11.6c-1.1-2-2.9-3-5.3-3
			c-2,0-3.5,0.8-4.6,2.3C486.4,368.5,485.9,370.8,485.9,373.8z"/>
		<path fill="#FFFFFF" d="M523.3,384.1c-1.7,2.1-4.2,3.1-7.4,3.1c-2.9,0-5-0.8-6.5-2.5c-1.5-1.7-2.2-4.1-2.2-7.3v-17.1h5.9v17
			c0,3.4,1.4,5,4.2,5c2.9,0,4.8-1,5.8-3.1v-19h5.9v26.4h-5.6L523.3,384.1z"/>
		<path fill="#FFFFFF" d="M539.4,386.7h-5.9v-37.5h5.9V386.7z"/>
		<path fill="#FFFFFF" d="M559.7,386.7c-0.3-0.5-0.5-1.3-0.7-2.5c-1.9,2-4.2,3-6.9,3c-2.7,0-4.8-0.8-6.5-2.3s-2.5-3.4-2.5-5.6
			c0-2.8,1-5,3.1-6.5c2.1-1.5,5.1-2.3,9-2.3h3.6v-1.7c0-1.4-0.4-2.5-1.1-3.3c-0.8-0.8-1.9-1.2-3.5-1.2c-1.4,0-2.5,0.3-3.3,1
			c-0.9,0.7-1.3,1.5-1.3,2.6h-5.9c0-1.4,0.5-2.8,1.4-4.1c1-1.3,2.3-2.3,3.9-3c1.7-0.7,3.5-1.1,5.5-1.1c3.1,0,5.6,0.8,7.4,2.3
			c1.8,1.6,2.8,3.7,2.8,6.6v11.9c0,2.4,0.3,4.3,1,5.7v0.4H559.7z M553.2,382.4c1.2,0,2.3-0.3,3.3-0.9c1-0.6,1.8-1.3,2.3-2.3v-5h-3.2
			c-2.2,0-3.8,0.4-5,1.1c-1.1,0.8-1.7,1.8-1.7,3.2c0,1.1,0.4,2,1.1,2.7C550.9,382.1,551.9,382.4,553.2,382.4z"/>
		<path fill="#FFFFFF" d="M582.8,365.7c-0.8-0.1-1.6-0.2-2.4-0.2c-2.7,0-4.5,1-5.5,3.1v18.1h-5.9v-26.4h5.7l0.1,3
			c1.4-2.3,3.4-3.4,6-3.4c0.8,0,1.5,0.1,2.1,0.3L582.8,365.7z"/>
	</g>
	<g>
		<path fill="#8E378D" stroke="#F2F2F2" stroke-width="2.2" stroke-miterlimit="10" d="M330.9,153.2c0,0.6-0.5,1.3-1.1,1.4l-7.4,1.1
			c-0.4,1.3-0.9,2.5-1.6,3.7c1.4,2,2.8,3.7,4.3,5.5c0.2,0.3,0.4,0.6,0.4,1c0,0.4-0.1,0.6-0.4,0.9c-1,1.3-6.4,7.2-7.8,7.2
			c-0.4,0-0.7-0.2-1-0.4l-5.5-4.3c-1.2,0.6-2.4,1.1-3.7,1.5c-0.3,2.5-0.5,5.1-1.2,7.5c-0.2,0.6-0.7,1.1-1.4,1.1h-8.9
			c-0.7,0-1.4-0.5-1.4-1.2l-1.1-7.4c-1.2-0.4-2.5-0.9-3.6-1.5l-5.7,4.3c-0.3,0.2-0.6,0.4-1,0.4s-0.7-0.2-1-0.4
			c-2.1-1.9-4.9-4.4-6.6-6.7c-0.2-0.3-0.3-0.6-0.3-0.9c0-0.4,0.1-0.6,0.3-0.9c1.4-1.8,2.9-3.6,4.2-5.5c-0.7-1.3-1.2-2.6-1.6-4
			l-7.4-1.1c-0.7-0.1-1.2-0.8-1.2-1.4v-8.9c0-0.6,0.5-1.3,1.1-1.4l7.5-1.1c0.4-1.3,0.9-2.5,1.6-3.7c-1.4-1.9-2.8-3.7-4.3-5.5
			c-0.2-0.3-0.4-0.6-0.4-1c0-0.4,0.2-0.6,0.4-0.9c1-1.3,6.4-7.2,7.8-7.2c0.4,0,0.7,0.2,1,0.4l5.5,4.3c1.2-0.6,2.4-1.1,3.7-1.5
			c0.3-2.5,0.5-5.1,1.2-7.5c0.2-0.6,0.7-1.1,1.4-1.1h8.9c0.7,0,1.4,0.5,1.4,1.2l1.1,7.4c1.2,0.4,2.5,0.9,3.6,1.5l5.7-4.3
			c0.2-0.2,0.6-0.4,1-0.4s0.7,0.2,1,0.4c2.1,2,4.9,4.5,6.6,6.8c0.2,0.2,0.3,0.6,0.3,0.9c0,0.4-0.1,0.6-0.3,0.9
			c-1.4,1.8-2.9,3.6-4.2,5.5c0.7,1.3,1.2,2.6,1.6,3.9l7.4,1.1c0.7,0.1,1.2,0.8,1.2,1.4V153.2z M300,138.3c-5.7,0-10.3,4.6-10.3,10.3
			s4.6,10.3,10.3,10.3c5.7,0,10.3-4.6,10.3-10.3S305.7,138.3,300,138.3z"/>
	</g>
	<g>
		<path fill="#F2F2F2" d="M251.5,207.2c0-1.5,0.3-2.6,1-3.5s1.6-1.3,2.7-1.3c1,0,1.8,0.4,2.4,1.1v-4.9h2.1V212h-1.9l-0.1-1
			c-0.6,0.8-1.5,1.2-2.6,1.2c-1.1,0-2-0.4-2.7-1.3S251.5,208.7,251.5,207.2z M253.6,207.4c0,1,0.2,1.7,0.6,2.3s0.9,0.8,1.6,0.8
			c0.9,0,1.5-0.4,1.9-1.2v-4.1c-0.4-0.8-1-1.1-1.9-1.1c-0.7,0-1.2,0.3-1.6,0.8S253.6,206.3,253.6,207.4z"/>
		<path fill="#F2F2F2" d="M261.3,207.2c0-0.9,0.2-1.8,0.6-2.5s0.9-1.3,1.6-1.7s1.4-0.6,2.3-0.6c1.3,0,2.3,0.4,3.1,1.2
			s1.2,1.9,1.3,3.3l0,0.5c0,0.9-0.2,1.8-0.5,2.5s-0.9,1.3-1.5,1.7s-1.4,0.6-2.3,0.6c-1.3,0-2.4-0.4-3.2-1.3s-1.2-2.1-1.2-3.6V207.2z
			 M263.4,207.3c0,1,0.2,1.7,0.6,2.3s1,0.8,1.7,0.8s1.3-0.3,1.7-0.8s0.6-1.4,0.6-2.5c0-1-0.2-1.7-0.6-2.3s-1-0.8-1.7-0.8
			c-0.7,0-1.3,0.3-1.7,0.8S263.4,206.2,263.4,207.3z"/>
		<path fill="#F2F2F2" d="M273.5,202.5l0.1,1c0.7-0.8,1.6-1.2,2.7-1.2c1.3,0,2.1,0.5,2.6,1.5c0.7-1,1.7-1.5,2.9-1.5
			c1,0,1.8,0.3,2.3,0.9s0.8,1.4,0.8,2.6v6.3h-2.1v-6.2c0-0.6-0.1-1-0.4-1.3s-0.7-0.4-1.3-0.4c-0.5,0-0.9,0.1-1.2,0.4s-0.5,0.6-0.6,1
			l0,6.5h-2.1v-6.3c0-1.1-0.6-1.7-1.7-1.7c-0.9,0-1.5,0.3-1.8,1v6.9h-2.1v-9.5H273.5z"/>
		<path fill="#F2F2F2" d="M294.9,210.5c0.5,0,1-0.2,1.3-0.5s0.5-0.7,0.6-1.2h2c0,0.6-0.2,1.1-0.6,1.7s-0.8,0.9-1.4,1.2
			s-1.2,0.4-1.9,0.4c-1.3,0-2.4-0.4-3.2-1.3s-1.2-2.1-1.2-3.6v-0.2c0-1.4,0.4-2.6,1.2-3.5s1.8-1.3,3.2-1.3c1.1,0,2.1,0.3,2.8,1
			s1.1,1.5,1.1,2.6h-2c0-0.5-0.2-1-0.6-1.3s-0.8-0.5-1.3-0.5c-0.7,0-1.2,0.3-1.6,0.8s-0.6,1.3-0.6,2.3v0.3c0,1,0.2,1.8,0.6,2.3
			S294.2,210.5,294.9,210.5z"/>
		<path fill="#F2F2F2" d="M299.6,207.2c0-0.9,0.2-1.8,0.6-2.5s0.9-1.3,1.6-1.7s1.4-0.6,2.3-0.6c1.3,0,2.3,0.4,3.1,1.2
			c0.8,0.8,1.2,1.9,1.3,3.3l0,0.5c0,0.9-0.2,1.8-0.5,2.5c-0.4,0.7-0.9,1.3-1.5,1.7c-0.7,0.4-1.4,0.6-2.3,0.6c-1.3,0-2.4-0.4-3.2-1.3
			c-0.8-0.9-1.2-2.1-1.2-3.6V207.2z M301.8,207.3c0,1,0.2,1.7,0.6,2.3s1,0.8,1.7,0.8s1.3-0.3,1.7-0.8c0.4-0.6,0.6-1.4,0.6-2.5
			c0-1-0.2-1.7-0.6-2.3c-0.4-0.6-1-0.8-1.7-0.8c-0.7,0-1.3,0.3-1.7,0.8S301.8,206.2,301.8,207.3z"/>
		<path fill="#F2F2F2" d="M311.9,202.5l0.1,1.1c0.7-0.8,1.6-1.3,2.8-1.3c2,0,3,1.1,3,3.4v6.3h-2.1v-6.2c0-0.6-0.1-1-0.4-1.3
			c-0.3-0.3-0.7-0.4-1.3-0.4c-0.9,0-1.5,0.4-1.9,1.2v6.8h-2.1v-9.5H311.9z"/>
		<path fill="#F2F2F2" d="M322.2,200.2v2.3h1.7v1.6h-1.7v5.3c0,0.4,0.1,0.6,0.2,0.8c0.1,0.2,0.4,0.2,0.8,0.2c0.2,0,0.5,0,0.7-0.1
			v1.7c-0.5,0.1-1,0.2-1.4,0.2c-1.6,0-2.5-0.9-2.5-2.7v-5.4h-1.6v-1.6h1.6v-2.3H322.2z"/>
		<path fill="#F2F2F2" d="M329.4,212.2c-1.4,0-2.5-0.4-3.3-1.3c-0.8-0.9-1.3-2-1.3-3.4v-0.3c0-0.9,0.2-1.8,0.5-2.5
			c0.4-0.7,0.9-1.3,1.5-1.7s1.4-0.6,2.2-0.6c1.3,0,2.3,0.4,3,1.2c0.7,0.8,1.1,2,1.1,3.5v0.9H327c0.1,0.8,0.3,1.4,0.8,1.9
			c0.5,0.5,1,0.7,1.7,0.7c1,0,1.8-0.4,2.4-1.2l1.2,1.1c-0.4,0.6-0.9,1-1.5,1.3C330.9,212,330.2,212.2,329.4,212.2z M329.1,204
			c-0.6,0-1.1,0.2-1.4,0.6c-0.4,0.4-0.6,1-0.7,1.7h4.1v-0.2c0-0.7-0.2-1.3-0.6-1.6S329.7,204,329.1,204z"/>
		<path fill="#F2F2F2" d="M336.5,202.5l0.1,1.1c0.7-0.8,1.6-1.3,2.8-1.3c2,0,3,1.1,3,3.4v6.3h-2.1v-6.2c0-0.6-0.1-1-0.4-1.3
			c-0.3-0.3-0.7-0.4-1.3-0.4c-0.9,0-1.5,0.4-1.9,1.2v6.8h-2.1v-9.5H336.5z"/>
		<path fill="#F2F2F2" d="M346.8,200.2v2.3h1.7v1.6h-1.7v5.3c0,0.4,0.1,0.6,0.2,0.8c0.1,0.2,0.4,0.2,0.8,0.2c0.2,0,0.5,0,0.7-0.1
			v1.7c-0.5,0.1-1,0.2-1.4,0.2c-1.6,0-2.5-0.9-2.5-2.7v-5.4h-1.6v-1.6h1.6v-2.3H346.8z"/>
	</g>
	<g>
		<path fill="#F2F2F2" d="M276.9,227.3h-2.1v-13.5h2.1V227.3z"/>
		<path fill="#F2F2F2" d="M278.5,222.5c0-0.9,0.2-1.8,0.6-2.5s0.9-1.3,1.6-1.7s1.4-0.6,2.3-0.6c1.3,0,2.3,0.4,3.1,1.2
			s1.2,1.9,1.3,3.3l0,0.5c0,0.9-0.2,1.8-0.5,2.5s-0.9,1.3-1.5,1.7s-1.4,0.6-2.3,0.6c-1.3,0-2.4-0.4-3.2-1.3s-1.2-2.1-1.2-3.6V222.5z
			 M280.6,222.7c0,1,0.2,1.7,0.6,2.3s1,0.8,1.7,0.8s1.3-0.3,1.7-0.8s0.6-1.4,0.6-2.5c0-1-0.2-1.7-0.6-2.3s-1-0.8-1.7-0.8
			c-0.7,0-1.3,0.3-1.7,0.8S280.6,221.6,280.6,222.7z"/>
		<path fill="#F2F2F2" d="M294.5,227.3c-0.1-0.2-0.2-0.5-0.2-0.9c-0.7,0.7-1.5,1.1-2.5,1.1c-1,0-1.7-0.3-2.3-0.8s-0.9-1.2-0.9-2
			c0-1,0.4-1.8,1.1-2.3s1.8-0.8,3.2-0.8h1.3v-0.6c0-0.5-0.1-0.9-0.4-1.2s-0.7-0.4-1.3-0.4c-0.5,0-0.9,0.1-1.2,0.4s-0.5,0.6-0.5,0.9
			h-2.1c0-0.5,0.2-1,0.5-1.5s0.8-0.8,1.4-1.1s1.3-0.4,2-0.4c1.1,0,2,0.3,2.7,0.8s1,1.3,1,2.4v4.3c0,0.9,0.1,1.5,0.4,2v0.1H294.5z
			 M292.1,225.8c0.4,0,0.8-0.1,1.2-0.3s0.7-0.5,0.8-0.8v-1.8H293c-0.8,0-1.4,0.1-1.8,0.4s-0.6,0.7-0.6,1.2c0,0.4,0.1,0.7,0.4,1
			S291.7,225.8,292.1,225.8z"/>
		<path fill="#F2F2F2" d="M297.8,222.5c0-1.5,0.3-2.6,1-3.5s1.6-1.3,2.7-1.3c1,0,1.8,0.4,2.4,1.1v-4.9h2.1v13.5h-1.9l-0.1-1
			c-0.6,0.8-1.5,1.2-2.6,1.2c-1.1,0-2-0.4-2.7-1.3S297.8,224,297.8,222.5z M299.9,222.7c0,1,0.2,1.7,0.6,2.3s0.9,0.8,1.6,0.8
			c0.9,0,1.5-0.4,1.9-1.2v-4.1c-0.4-0.8-1-1.1-1.9-1.1c-0.7,0-1.2,0.3-1.6,0.8S299.9,221.6,299.9,222.7z"/>
		<path fill="#F2F2F2" d="M312.2,227.5c-1.4,0-2.5-0.4-3.3-1.3s-1.3-2-1.3-3.4v-0.3c0-0.9,0.2-1.8,0.5-2.5s0.9-1.3,1.5-1.7
			s1.4-0.6,2.2-0.6c1.3,0,2.3,0.4,3,1.2s1.1,2,1.1,3.5v0.9h-6.2c0.1,0.8,0.3,1.4,0.8,1.9s1,0.7,1.7,0.7c1,0,1.8-0.4,2.4-1.2l1.2,1.1
			c-0.4,0.6-0.9,1-1.5,1.3S312.9,227.5,312.2,227.5z M311.9,219.4c-0.6,0-1.1,0.2-1.4,0.6s-0.6,1-0.7,1.7h4.1v-0.2
			c0-0.7-0.2-1.3-0.6-1.6S312.5,219.4,311.9,219.4z"/>
		<path fill="#F2F2F2" d="M316.9,222.5c0-1.5,0.3-2.6,1-3.5s1.6-1.3,2.7-1.3c1,0,1.8,0.4,2.4,1.1v-4.9h2.1v13.5h-1.9l-0.1-1
			c-0.6,0.8-1.5,1.2-2.6,1.2c-1.1,0-2-0.4-2.7-1.3C317.2,225.3,316.9,224,316.9,222.5z M319,222.7c0,1,0.2,1.7,0.6,2.3
			c0.4,0.5,0.9,0.8,1.6,0.8c0.9,0,1.5-0.4,1.9-1.2v-4.1c-0.4-0.8-1-1.1-1.9-1.1c-0.7,0-1.2,0.3-1.6,0.8S319,221.6,319,222.7z"/>
	</g>
	<g>
		
			<rect x="419.6" y="124.3" fill="#E31C4B" stroke="#F2F2F2" stroke-width="2.6316" stroke-miterlimit="10" width="163.1" height="45.3"/>
		<g>
			<path fill="#F2F2F2" d="M433.4,141.3l0.1,1.3c0.9-1,2-1.6,3.4-1.6c2.4,0,3.7,1.4,3.7,4.2v7.7h-2.6v-7.5c0-0.7-0.2-1.3-0.5-1.6
				s-0.8-0.5-1.6-0.5c-1.1,0-1.8,0.5-2.4,1.4v8.3h-2.6v-11.6H433.4z"/>
			<path fill="#F2F2F2" d="M442.3,147.1c0-1.8,0.4-3.2,1.3-4.3c0.8-1.1,2-1.6,3.4-1.6c1.3,0,2.4,0.5,3.1,1.4l0.1-1.2h2.4v11.3
				c0,1.5-0.5,2.7-1.4,3.6s-2.2,1.3-3.8,1.3c-0.9,0-1.7-0.2-2.5-0.5s-1.4-0.8-1.9-1.4l1.2-1.6c0.8,1,1.8,1.4,3,1.4
				c0.9,0,1.5-0.2,2.1-0.7c0.5-0.5,0.8-1.2,0.8-2.1v-0.8c-0.8,0.8-1.8,1.3-3,1.3c-1.4,0-2.5-0.5-3.3-1.6
				C442.7,150.5,442.3,149,442.3,147.1z M444.9,147.3c0,1.2,0.2,2.1,0.7,2.8c0.5,0.7,1.1,1,2,1c1.1,0,1.8-0.5,2.3-1.4v-5.1
				c-0.5-0.9-1.3-1.3-2.3-1.3c-0.9,0-1.5,0.3-2,1C445.1,145,444.9,146,444.9,147.3z"/>
			<path fill="#F2F2F2" d="M459.8,147.4h-5.6v-2.1h5.6V147.4z"/>
			<path fill="#F2F2F2" d="M468.5,153c-0.1-0.2-0.2-0.6-0.3-1.1c-0.8,0.9-1.8,1.3-3.1,1.3c-1.2,0-2.1-0.3-2.9-1
				c-0.7-0.7-1.1-1.5-1.1-2.5c0-1.2,0.5-2.2,1.4-2.9c0.9-0.7,2.2-1,3.9-1h1.6v-0.8c0-0.6-0.2-1.1-0.5-1.4c-0.3-0.4-0.8-0.5-1.5-0.5
				c-0.6,0-1.1,0.1-1.5,0.4c-0.4,0.3-0.6,0.7-0.6,1.1h-2.6c0-0.6,0.2-1.2,0.6-1.8c0.4-0.6,1-1,1.7-1.3c0.7-0.3,1.5-0.5,2.4-0.5
				c1.4,0,2.4,0.3,3.3,1c0.8,0.7,1.2,1.6,1.2,2.9v5.2c0,1,0.1,1.9,0.4,2.5v0.2H468.5z M465.6,151.1c0.5,0,1-0.1,1.5-0.4
				c0.5-0.3,0.8-0.6,1-1v-2.2h-1.4c-1,0-1.7,0.2-2.2,0.5c-0.5,0.3-0.7,0.8-0.7,1.4c0,0.5,0.2,0.9,0.5,1.2
				C464.6,150.9,465.1,151.1,465.6,151.1z"/>
			<path fill="#F2F2F2" d="M483.2,147.3c0,1.8-0.4,3.2-1.2,4.3c-0.8,1.1-1.9,1.6-3.3,1.6c-1.3,0-2.3-0.4-3.1-1.3v5.5H473v-16.1h2.4
				l0.1,1.2c0.8-0.9,1.8-1.4,3.1-1.4c1.4,0,2.5,0.5,3.3,1.6c0.8,1.1,1.2,2.5,1.2,4.4V147.3z M480.6,147c0-1.2-0.2-2.1-0.7-2.8
				c-0.5-0.7-1.1-1-2-1c-1.1,0-1.8,0.4-2.3,1.3v5.2c0.5,0.9,1.2,1.4,2.3,1.4c0.8,0,1.5-0.3,1.9-1C480.3,149.4,480.6,148.4,480.6,147
				z"/>
			<path fill="#F2F2F2" d="M495.1,147.3c0,1.8-0.4,3.2-1.2,4.3c-0.8,1.1-1.9,1.6-3.3,1.6c-1.3,0-2.3-0.4-3.1-1.3v5.5h-2.6v-16.1h2.4
				l0.1,1.2c0.8-0.9,1.8-1.4,3.1-1.4c1.4,0,2.5,0.5,3.3,1.6c0.8,1.1,1.2,2.5,1.2,4.4V147.3z M492.5,147c0-1.2-0.2-2.1-0.7-2.8
				c-0.5-0.7-1.1-1-2-1c-1.1,0-1.8,0.4-2.3,1.3v5.2c0.5,0.9,1.2,1.4,2.3,1.4c0.8,0,1.5-0.3,1.9-1C492.3,149.4,492.5,148.4,492.5,147
				z"/>
			<path fill="#F2F2F2" d="M504.4,141.3l0.1,1.2c0.8-1,1.9-1.4,3.4-1.4c1.6,0,2.6,0.6,3.2,1.8c0.8-1.2,2-1.8,3.6-1.8
				c1.3,0,2.2,0.4,2.9,1.1c0.6,0.7,0.9,1.8,1,3.1v7.6h-2.6v-7.6c0-0.7-0.2-1.3-0.5-1.6s-0.9-0.5-1.6-0.5c-0.6,0-1.1,0.2-1.5,0.5
				c-0.4,0.3-0.6,0.7-0.8,1.3l0,8h-2.6v-7.6c0-1.4-0.7-2.1-2.1-2.1c-1,0-1.8,0.4-2.2,1.3v8.4h-2.6v-11.6H504.4z"/>
			<path fill="#F2F2F2" d="M520.1,147c0-1.1,0.2-2.2,0.7-3.1s1.1-1.6,1.9-2.1c0.8-0.5,1.8-0.7,2.8-0.7c1.6,0,2.8,0.5,3.8,1.5
				s1.5,2.3,1.6,4l0,0.6c0,1.1-0.2,2.2-0.7,3.1s-1.1,1.6-1.9,2.1c-0.8,0.5-1.8,0.7-2.8,0.7c-1.6,0-3-0.5-3.9-1.6
				c-1-1.1-1.5-2.5-1.5-4.4V147z M522.8,147.3c0,1.2,0.2,2.1,0.7,2.8s1.2,1,2.1,1s1.6-0.3,2.1-1s0.7-1.7,0.7-3
				c0-1.2-0.3-2.1-0.8-2.8s-1.2-1-2.1-1c-0.9,0-1.5,0.3-2,1C523,144.9,522.8,145.9,522.8,147.3z"/>
			<path fill="#F2F2F2" d="M532.2,147.1c0-1.8,0.4-3.2,1.2-4.3s1.9-1.6,3.3-1.6c1.2,0,2.2,0.4,3,1.3v-6h2.6V153h-2.4l-0.1-1.2
				c-0.8,0.9-1.8,1.4-3.1,1.4c-1.4,0-2.5-0.5-3.3-1.6C532.7,150.4,532.2,148.9,532.2,147.1z M534.8,147.3c0,1.2,0.2,2.1,0.7,2.8
				c0.5,0.7,1.1,1,1.9,1c1.1,0,1.8-0.5,2.3-1.4v-5c-0.5-0.9-1.3-1.4-2.3-1.4c-0.8,0-1.5,0.3-2,1
				C535.1,144.9,534.8,145.9,534.8,147.3z"/>
			<path fill="#F2F2F2" d="M551.7,151.8c-0.8,0.9-1.9,1.4-3.3,1.4c-1.3,0-2.2-0.4-2.9-1.1c-0.6-0.7-1-1.8-1-3.2v-7.5h2.6v7.5
				c0,1.5,0.6,2.2,1.8,2.2c1.3,0,2.1-0.5,2.6-1.4v-8.3h2.6V153h-2.5L551.7,151.8z"/>
			<path fill="#F2F2F2" d="M559.3,153h-2.6v-16.5h2.6V153z"/>
			<path fill="#F2F2F2" d="M566.8,153.2c-1.7,0-3-0.5-4-1.6c-1-1-1.5-2.4-1.5-4.2v-0.3c0-1.2,0.2-2.2,0.7-3.1s1.1-1.6,1.9-2.1
				c0.8-0.5,1.7-0.8,2.7-0.8c1.6,0,2.8,0.5,3.7,1.5c0.9,1,1.3,2.4,1.3,4.3v1.1h-7.6c0.1,1,0.4,1.7,1,2.3s1.3,0.8,2.1,0.8
				c1.2,0,2.2-0.5,2.9-1.5l1.4,1.3c-0.5,0.7-1.1,1.2-1.9,1.6C568.6,153,567.7,153.2,566.8,153.2z M566.5,143.2
				c-0.7,0-1.3,0.3-1.7,0.8c-0.4,0.5-0.7,1.2-0.8,2.1h5v-0.2c-0.1-0.9-0.3-1.5-0.7-2C567.8,143.4,567.2,143.2,566.5,143.2z"/>
		</g>
	</g>
	<g>
		
			<rect x="419.6" y="262" fill="#E31C4B" stroke="#F2F2F2" stroke-width="2.6316" stroke-miterlimit="10" width="163.1" height="45.3"/>
		<g>
			<path fill="#F2F2F2" d="M465.8,287.5c0-0.6-0.2-1.1-0.6-1.5c-0.4-0.4-1-0.8-1.9-1.1s-1.6-0.6-2.1-0.9c-1.7-0.9-2.5-2.2-2.5-4
				c0-1.2,0.4-2.2,1.1-2.9c0.7-0.8,1.7-1.2,2.9-1.4v-2.3h1.7v2.4c1.2,0.2,2.2,0.7,2.9,1.6c0.7,0.9,1,2,1,3.4h-2.6
				c0-0.9-0.2-1.6-0.6-2.1c-0.4-0.5-1-0.8-1.6-0.8c-0.7,0-1.2,0.2-1.6,0.6s-0.6,0.9-0.6,1.6c0,0.6,0.2,1.1,0.6,1.5
				c0.4,0.4,1,0.7,2,1.1c0.9,0.3,1.6,0.6,2.2,0.9c0.5,0.3,1,0.6,1.3,1c0.4,0.4,0.6,0.8,0.8,1.3c0.2,0.5,0.3,1,0.3,1.7
				c0,1.2-0.4,2.2-1.1,2.9s-1.8,1.2-3.1,1.3v2.1h-1.7v-2.1c-1.4-0.2-2.5-0.7-3.3-1.5s-1.1-2-1.1-3.4h2.6c0,0.9,0.2,1.6,0.7,2.1
				c0.5,0.5,1.1,0.7,1.9,0.7c0.8,0,1.4-0.2,1.9-0.6S465.8,288.1,465.8,287.5z"/>
			<path fill="#F2F2F2" d="M475.1,289.7c0.7,0,1.2-0.2,1.6-0.6c0.4-0.4,0.7-0.8,0.7-1.4h2.5c0,0.7-0.3,1.4-0.7,2
				c-0.4,0.6-1,1.1-1.7,1.5s-1.5,0.5-2.3,0.5c-1.6,0-2.9-0.5-3.9-1.6s-1.4-2.5-1.4-4.4v-0.3c0-1.8,0.5-3.2,1.4-4.2
				c0.9-1.1,2.2-1.6,3.9-1.6c1.4,0,2.5,0.4,3.4,1.2c0.9,0.8,1.3,1.9,1.4,3.2h-2.5c0-0.7-0.3-1.2-0.7-1.6s-1-0.6-1.6-0.6
				c-0.8,0-1.5,0.3-2,0.9c-0.5,0.6-0.7,1.5-0.7,2.8v0.4c0,1.3,0.2,2.2,0.7,2.8C473.6,289.4,474.3,289.7,475.1,289.7z"/>
			<path fill="#F2F2F2" d="M480.9,285.6c0-1.1,0.2-2.2,0.7-3.1c0.5-0.9,1.1-1.6,1.9-2.1c0.8-0.5,1.8-0.7,2.8-0.7
				c1.6,0,2.8,0.5,3.8,1.5s1.5,2.3,1.6,4l0,0.6c0,1.1-0.2,2.2-0.7,3.1s-1.1,1.6-1.9,2.1c-0.8,0.5-1.8,0.7-2.8,0.7
				c-1.6,0-3-0.5-3.9-1.6s-1.5-2.5-1.5-4.4V285.6z M483.6,285.9c0,1.2,0.2,2.1,0.7,2.8c0.5,0.7,1.2,1,2.1,1s1.6-0.3,2.1-1
				s0.7-1.7,0.7-3c0-1.2-0.3-2.1-0.8-2.8s-1.2-1-2.1-1c-0.9,0-1.5,0.3-2,1C483.8,283.5,483.6,284.5,483.6,285.9z"/>
			<path fill="#F2F2F2" d="M496,279.9l0.1,1.2c0.8-1,1.9-1.4,3.4-1.4c1.6,0,2.6,0.6,3.2,1.8c0.8-1.2,2-1.8,3.6-1.8
				c1.3,0,2.2,0.4,2.9,1.1s0.9,1.8,1,3.1v7.6h-2.6V284c0-0.7-0.2-1.3-0.5-1.6s-0.9-0.5-1.6-0.5c-0.6,0-1.1,0.2-1.5,0.5
				c-0.4,0.3-0.6,0.7-0.8,1.3l0,8h-2.6v-7.6c0-1.4-0.7-2.1-2.1-2.1c-1,0-1.8,0.4-2.2,1.3v8.4h-2.6v-11.6H496z"/>
			<path fill="#F2F2F2" d="M522.4,285.9c0,1.8-0.4,3.2-1.2,4.3c-0.8,1.1-1.9,1.6-3.3,1.6c-1.3,0-2.3-0.4-3.1-1.3v5.5h-2.6v-16.1h2.4
				l0.1,1.2c0.8-0.9,1.8-1.4,3.1-1.4c1.4,0,2.5,0.5,3.3,1.6s1.2,2.5,1.2,4.4V285.9z M519.8,285.6c0-1.2-0.2-2.1-0.7-2.8s-1.1-1-2-1
				c-1.1,0-1.8,0.4-2.3,1.3v5.2c0.5,0.9,1.2,1.4,2.3,1.4c0.8,0,1.5-0.3,2-1C519.6,288,519.8,287,519.8,285.6z"/>
			<path fill="#F2F2F2" d="M524.2,276.9c0-0.4,0.1-0.7,0.4-1c0.3-0.3,0.6-0.4,1.1-0.4s0.8,0.1,1.1,0.4c0.3,0.3,0.4,0.6,0.4,1
				c0,0.4-0.1,0.7-0.4,1c-0.3,0.3-0.6,0.4-1.1,0.4s-0.8-0.1-1.1-0.4C524.3,277.6,524.2,277.3,524.2,276.9z M526.9,291.6h-2.6v-11.6
				h2.6V291.6z"/>
			<path fill="#F2F2F2" d="M532.1,291.6h-2.6v-16.5h2.6V291.6z"/>
			<path fill="#F2F2F2" d="M539.6,291.8c-1.7,0-3-0.5-4-1.6c-1-1-1.5-2.4-1.5-4.2v-0.3c0-1.2,0.2-2.2,0.7-3.1
				c0.4-0.9,1.1-1.6,1.9-2.1c0.8-0.5,1.7-0.8,2.7-0.8c1.6,0,2.8,0.5,3.7,1.5s1.3,2.4,1.3,4.3v1.1h-7.6c0.1,1,0.4,1.7,1,2.3
				c0.6,0.6,1.3,0.8,2.1,0.8c1.2,0,2.2-0.5,2.9-1.5l1.4,1.3c-0.5,0.7-1.1,1.2-1.9,1.6S540.6,291.8,539.6,291.8z M539.3,281.8
				c-0.7,0-1.3,0.3-1.7,0.8c-0.4,0.5-0.7,1.2-0.8,2.1h5v-0.2c-0.1-0.9-0.3-1.5-0.7-2S540.1,281.8,539.3,281.8z"/>
		</g>
	</g>
	<g>
		<g>
			<path fill="#E31C4B" stroke="#F2F2F2" stroke-width="2" stroke-miterlimit="10" d="M474.9,224.9c-2,0-2.6-1.9-4.4-1.9
				c-1.3,0-1.8,0.8-1.8,2.1c0,1.3,0.5,2.6,0.5,3.8v0.1c-0.2,0-0.4,0-0.6,0c-1.7,0.2-3.5,0.5-5.2,0.5c-1.2,0-2.4-0.5-2.4-1.8
				c0-1.8,1.9-2.4,1.9-4.4c0-1.8-1.4-2.8-3.2-2.8c-1.8,0-3.4,1-3.4,2.9c0,2.1,1.6,3,1.6,4.2c0,0.6-0.4,1.1-0.8,1.5
				c-0.5,0.5-1.3,0.6-2,0.6c-1.4,0-2.7-0.2-4.1-0.4c-0.3-0.1-0.6-0.1-0.9-0.1l-0.2,0c0,0-0.1,0-0.1,0V212c0.1,0,1.1,0.2,1.2,0.2
				c1.4,0.2,2.7,0.4,4.1,0.4c0.7,0,1.4-0.1,2-0.6c0.4-0.4,0.8-0.9,0.8-1.5c0-1.2-1.6-2.1-1.6-4.2c0-1.9,1.6-2.9,3.4-2.9
				c1.7,0,3.1,1,3.1,2.8c0,2-1.9,2.6-1.9,4.4c0,1.4,1.2,1.8,2.4,1.8c1.9,0,3.8-0.4,5.7-0.5v0c0,0.1-0.2,1.1-0.2,1.2
				c-0.2,1.4-0.4,2.7-0.4,4.1c0,0.7,0.1,1.4,0.6,2c0.4,0.4,0.9,0.8,1.5,0.8c1.2,0,2.1-1.6,4.2-1.6c1.9,0,2.9,1.6,2.9,3.4
				C477.8,223.5,476.8,224.9,474.9,224.9z"/>
		</g>
		<g>
			<path fill="#F2F2F2" d="M492,220.7c0-0.5-0.2-0.9-0.5-1.2s-0.8-0.6-1.6-0.9s-1.3-0.5-1.7-0.7c-1.4-0.7-2-1.8-2-3.3
				c0-1,0.3-1.8,0.9-2.4s1.4-1,2.4-1.1v-1.9h1.4v1.9c1,0.1,1.8,0.6,2.4,1.3s0.8,1.7,0.8,2.8H492c0-0.7-0.2-1.3-0.5-1.7
				s-0.8-0.6-1.3-0.6c-0.6,0-1,0.2-1.3,0.5s-0.5,0.7-0.5,1.3c0,0.5,0.2,0.9,0.5,1.2s0.8,0.6,1.6,0.9s1.3,0.5,1.8,0.8
				s0.8,0.5,1.1,0.8s0.5,0.6,0.7,1s0.2,0.9,0.2,1.4c0,1-0.3,1.8-0.9,2.4s-1.5,1-2.5,1.1v1.7h-1.4v-1.7c-1.2-0.1-2.1-0.5-2.7-1.2
				s-0.9-1.6-0.9-2.8h2.1c0,0.7,0.2,1.3,0.6,1.7s0.9,0.6,1.6,0.6c0.7,0,1.2-0.2,1.5-0.5S492,221.3,492,220.7z"/>
			<path fill="#F2F2F2" d="M495.8,212.1c0-0.3,0.1-0.6,0.3-0.8c0.2-0.2,0.5-0.3,0.9-0.3s0.7,0.1,0.9,0.3s0.3,0.5,0.3,0.8
				c0,0.3-0.1,0.6-0.3,0.8c-0.2,0.2-0.5,0.3-0.9,0.3s-0.7-0.1-0.9-0.3C495.9,212.7,495.8,212.4,495.8,212.1z M498.1,224.1h-2.1v-9.5
				h2.1V224.1z"/>
			<path fill="#F2F2F2" d="M502,214.5l0.1,1.1c0.7-0.8,1.6-1.3,2.8-1.3c2,0,3,1.1,3,3.4v6.3h-2.1v-6.2c0-0.6-0.1-1-0.4-1.3
				c-0.3-0.3-0.7-0.4-1.3-0.4c-0.9,0-1.5,0.4-1.9,1.2v6.8H500v-9.5H502z"/>
			<path fill="#F2F2F2" d="M511.9,214.5v10.4c0,1-0.2,1.7-0.7,2.2s-1.2,0.8-2.1,0.8c-0.4,0-0.8,0-1.1-0.1v-1.7
				c0.2,0.1,0.5,0.1,0.8,0.1c0.7,0,1.1-0.4,1.1-1.2v-10.4H511.9z M509.6,212.1c0-0.3,0.1-0.6,0.3-0.8s0.5-0.3,0.9-0.3
				s0.7,0.1,0.9,0.3s0.3,0.5,0.3,0.8c0,0.3-0.1,0.6-0.3,0.8c-0.2,0.2-0.5,0.3-0.9,0.3s-0.7-0.1-0.9-0.3
				C509.7,212.7,509.6,212.4,509.6,212.1z"/>
			<path fill="#F2F2F2" d="M518,224.2c-1.4,0-2.5-0.4-3.3-1.3c-0.8-0.9-1.3-2-1.3-3.4v-0.3c0-0.9,0.2-1.8,0.5-2.5
				c0.4-0.7,0.9-1.3,1.5-1.7s1.4-0.6,2.2-0.6c1.3,0,2.3,0.4,3,1.2c0.7,0.8,1.1,2,1.1,3.5v0.9h-6.2c0.1,0.8,0.3,1.4,0.8,1.9
				c0.5,0.5,1,0.7,1.7,0.7c1,0,1.8-0.4,2.4-1.2l1.2,1.1c-0.4,0.6-0.9,1-1.5,1.3C519.5,224.1,518.8,224.2,518,224.2z M517.8,216.1
				c-0.6,0-1.1,0.2-1.4,0.6c-0.4,0.4-0.6,1-0.7,1.7h4.1v-0.2c0-0.7-0.2-1.3-0.6-1.6S518.4,216.1,517.8,216.1z"/>
			<path fill="#F2F2F2" d="M527,222.5c0.5,0,1-0.2,1.3-0.5s0.5-0.7,0.6-1.2h2c0,0.6-0.2,1.1-0.6,1.7s-0.8,0.9-1.4,1.2
				s-1.2,0.4-1.9,0.4c-1.3,0-2.4-0.4-3.2-1.3s-1.2-2.1-1.2-3.6v-0.2c0-1.4,0.4-2.6,1.2-3.5s1.8-1.3,3.2-1.3c1.1,0,2.1,0.3,2.8,1
				s1.1,1.5,1.1,2.6h-2c0-0.5-0.2-1-0.6-1.3s-0.8-0.5-1.3-0.5c-0.7,0-1.2,0.3-1.6,0.8s-0.6,1.3-0.6,2.3v0.3c0,1,0.2,1.8,0.6,2.3
				S526.3,222.5,527,222.5z"/>
			<path fill="#F2F2F2" d="M534.9,212.2v2.3h1.7v1.6h-1.7v5.3c0,0.4,0.1,0.6,0.2,0.8s0.4,0.2,0.8,0.2c0.2,0,0.5,0,0.7-0.1v1.7
				c-0.5,0.1-1,0.2-1.4,0.2c-1.6,0-2.5-0.9-2.5-2.7v-5.4h-1.6v-1.6h1.6v-2.3H534.9z"/>
			<path fill="#F2F2F2" d="M537.2,219.2c0-0.9,0.2-1.8,0.6-2.5s0.9-1.3,1.6-1.7s1.4-0.6,2.3-0.6c1.3,0,2.3,0.4,3.1,1.2
				c0.8,0.8,1.2,1.9,1.3,3.3l0,0.5c0,0.9-0.2,1.8-0.5,2.5c-0.4,0.7-0.9,1.3-1.5,1.7c-0.7,0.4-1.4,0.6-2.3,0.6
				c-1.3,0-2.4-0.4-3.2-1.3c-0.8-0.9-1.2-2.1-1.2-3.6V219.2z M539.3,219.4c0,1,0.2,1.7,0.6,2.3s1,0.8,1.7,0.8s1.3-0.3,1.7-0.8
				c0.4-0.6,0.6-1.4,0.6-2.5c0-1-0.2-1.7-0.6-2.3c-0.4-0.6-1-0.8-1.7-0.8c-0.7,0-1.3,0.3-1.7,0.8S539.3,218.3,539.3,219.4z"/>
			<path fill="#F2F2F2" d="M552.4,216.5c-0.3,0-0.6-0.1-0.9-0.1c-1,0-1.6,0.4-2,1.1v6.5h-2.1v-9.5h2l0.1,1.1
				c0.5-0.8,1.2-1.2,2.1-1.2c0.3,0,0.6,0,0.8,0.1L552.4,216.5z"/>
		</g>
	</g>
	<g>
		<g>
			<line fill="none" stroke="#F2F2F2" stroke-width="2.2" stroke-miterlimit="10" x1="101.8" y1="69" x2="101.8" y2="70.6"/>
			
				<line fill="none" stroke="#F2F2F2" stroke-width="2.2" stroke-miterlimit="10" stroke-dasharray="3.0349,3.0349" x1="101.8" y1="73.7" x2="101.8" y2="102.5"/>
			<line fill="none" stroke="#F2F2F2" stroke-width="2.2" stroke-miterlimit="10" x1="101.8" y1="104" x2="101.8" y2="105.7"/>
			<g>
				<polygon fill="#F2F2F2" points="101.8,115 96.5,101.9 101.8,105 107.2,101.9 				"/>
			</g>
		</g>
	</g>
	<g>
		<g>
			<line fill="none" stroke="#F2F2F2" stroke-width="2.999" stroke-miterlimit="10" x1="192.9" y1="147" x2="195.2" y2="147"/>
			
				<line fill="none" stroke="#F2F2F2" stroke-width="2.999" stroke-miterlimit="10" stroke-dasharray="4.1371,4.1371" x1="199.3" y1="147" x2="238.6" y2="147"/>
			<line fill="none" stroke="#F2F2F2" stroke-width="2.999" stroke-miterlimit="10" x1="240.7" y1="147" x2="242.9" y2="147"/>
			<g>
				<polygon fill="#F2F2F2" points="255.6,147 237.7,154.3 242,147 237.7,139.7 				"/>
			</g>
		</g>
	</g>
	<g>
		<g>
			<line fill="none" stroke="#F2F2F2" stroke-width="2.999" stroke-miterlimit="10" x1="343.1" y1="147" x2="345.4" y2="147"/>
			
				<line fill="none" stroke="#F2F2F2" stroke-width="2.999" stroke-miterlimit="10" stroke-dasharray="4.1371,4.1371" x1="349.5" y1="147" x2="388.8" y2="147"/>
			<line fill="none" stroke="#F2F2F2" stroke-width="2.999" stroke-miterlimit="10" x1="390.9" y1="147" x2="393.1" y2="147"/>
			<g>
				<polygon fill="#F2F2F2" points="405.8,147 387.9,154.3 392.2,147 387.9,139.7 				"/>
			</g>
		</g>
	</g>
	<g>
		<g>
			<line fill="none" stroke="#F2F2F2" stroke-width="2.2" stroke-miterlimit="10" x1="499.8" y1="178" x2="499.8" y2="179.7"/>
			
				<line fill="none" stroke="#F2F2F2" stroke-width="2.2" stroke-miterlimit="10" stroke-dasharray="3.228,3.228" x1="499.8" y1="182.9" x2="499.8" y2="187.8"/>
			<line fill="none" stroke="#F2F2F2" stroke-width="2.2" stroke-miterlimit="10" x1="499.8" y1="189.4" x2="499.8" y2="191"/>
			<g>
				<polygon fill="#F2F2F2" points="499.8,200.3 494.4,187.2 499.8,190.3 505.1,187.2 				"/>
			</g>
		</g>
	</g>
	<g>
		<g>
			<line fill="none" stroke="#F2F2F2" stroke-width="2.2" stroke-miterlimit="10" x1="499.8" y1="232.3" x2="499.8" y2="234"/>
			
				<line fill="none" stroke="#F2F2F2" stroke-width="2.2" stroke-miterlimit="10" stroke-dasharray="3.228,3.228" x1="499.8" y1="237.2" x2="499.8" y2="242"/>
			<line fill="none" stroke="#F2F2F2" stroke-width="2.2" stroke-miterlimit="10" x1="499.8" y1="243.7" x2="499.8" y2="245.3"/>
			<g>
				<polygon fill="#F2F2F2" points="499.8,254.6 494.4,241.5 499.8,244.6 505.1,241.5 				"/>
			</g>
		</g>
	</g>
	<g>
		<g>
			<line fill="none" stroke="#F2F2F2" stroke-width="2.2" stroke-miterlimit="10" x1="405.8" y1="284.6" x2="403.6" y2="284.6"/>
			
				<line fill="none" stroke="#F2F2F2" stroke-width="2.2" stroke-miterlimit="10" stroke-dasharray="4.4373,4.4373" x1="399.1" y1="284.6" x2="206.1" y2="284.6"/>
			<line fill="none" stroke="#F2F2F2" stroke-width="2.2" stroke-miterlimit="10" x1="203.9" y1="284.6" x2="201.7" y2="284.6"/>
			<g>
				<polygon fill="#F2F2F2" points="192.3,284.6 205.5,279.3 202.4,284.6 205.5,290 				"/>
			</g>
		</g>
	</g>
	<g>
		<g>
			<line fill="none" stroke="#F2F2F2" stroke-width="2.2" stroke-miterlimit="10" x1="101.8" y1="183.2" x2="101.8" y2="184.8"/>
			
				<line fill="none" stroke="#F2F2F2" stroke-width="2.2" stroke-miterlimit="10" stroke-dasharray="3.461,3.461" x1="101.8" y1="188.3" x2="101.8" y2="241.9"/>
			<line fill="none" stroke="#F2F2F2" stroke-width="2.2" stroke-miterlimit="10" x1="101.8" y1="243.7" x2="101.8" y2="245.3"/>
			<g>
				<polygon fill="#F2F2F2" points="101.8,254.6 96.5,241.5 101.8,244.6 107.2,241.5 				"/>
			</g>
		</g>
	</g>
</g>
</svg>
