<?xml version="1.0" encoding="utf-8"?>
<!-- Generator: Adobe Illustrator 16.0.0, SVG Export Plug-In . SVG Version: 6.00 Build 0)  -->
<!DOCTYPE svg PUBLIC "-//W3C//DTD SVG 1.1//EN" "http://www.w3.org/Graphics/SVG/1.1/DTD/svg11.dtd">
<svg version="1.1" id="Layer_1" xmlns="http://www.w3.org/2000/svg" xmlns:xlink="http://www.w3.org/1999/xlink" x="0px" y="0px"
	 width="1108.7px" height="211.2px" viewBox="0 0 1108.7 211.2" enable-background="new 0 0 1108.7 211.2" xml:space="preserve">
<g>
	<path fill="#3579BE" d="M20.2,191v-8.8h2v11.2H3.8V191H20.2z"/>
	<path fill="#3579BE" d="M22.2,176.9v2.4H3.8v-2.4H22.2z"/>
	<path fill="#3579BE" d="M22.2,172.4H3.8v-6c0-2,0.4-3.5,1.2-4.5s2.1-1.5,3.7-1.5c0.9,0,1.6,0.2,2.3,0.7c0.7,0.5,1.2,1.2,1.5,2
		c0.3-1,0.8-1.8,1.6-2.4c0.8-0.6,1.7-0.9,2.8-0.9c1.7,0,3,0.5,3.9,1.6c0.9,1.1,1.4,2.6,1.4,4.6V172.4z M11.6,170v-3.7
		c0-1.1-0.3-1.9-0.8-2.6c-0.5-0.6-1.3-1-2.2-1c-1,0-1.8,0.3-2.2,0.9c-0.5,0.6-0.7,1.5-0.7,2.7v3.6H11.6z M13.6,170h6.7v-4
		c0-1.1-0.3-2-0.9-2.7c-0.6-0.7-1.4-1-2.4-1c-2.2,0-3.3,1.2-3.3,3.6V170z"/>
	<path fill="#3579BE" d="M14.8,149.5v4.3h7.5v2.4H3.8v-6.1c0-2.1,0.5-3.7,1.4-4.8s2.3-1.7,4.1-1.7c1.2,0,2.2,0.3,3,0.9
		s1.5,1.5,1.9,2.6l7.8-4.3h0.2v2.6L14.8,149.5z M12.8,153.8v-3.7c0-1.2-0.3-2.2-0.9-2.9c-0.6-0.7-1.5-1.1-2.5-1.1
		c-1.1,0-2,0.3-2.6,1s-0.9,1.7-0.9,3v3.7H12.8z"/>
	<path fill="#3579BE" d="M17.4,130v7.7l4.8,1.7v2.5L3.8,135v-2.1l18.5-7.1v2.5L17.4,130z M15.4,137v-6.3l-8.6,3.1L15.4,137z"/>
	<path fill="#3579BE" d="M14.8,116.5v4.3h7.5v2.5H3.8v-6.1c0-2.1,0.5-3.7,1.4-4.8s2.3-1.7,4.1-1.7c1.2,0,2.2,0.3,3,0.9
		s1.5,1.5,1.9,2.6l7.8-4.3h0.2v2.6L14.8,116.5z M12.8,120.8v-3.7c0-1.2-0.3-2.2-0.9-2.9c-0.6-0.7-1.5-1.1-2.5-1.1
		c-1.1,0-2,0.3-2.6,1s-0.9,1.7-0.9,3v3.7H12.8z"/>
	<path fill="#3579BE" d="M13,102.2l-9.3-4.8v-2.8l11.6,6.4h6.9v2.4h-6.9l-11.6,6.4V107L13,102.2z"/>
</g>
<linearGradient id="SVGID_1_" gradientUnits="userSpaceOnUse" x1="29.2397" y1="145.0234" x2="1079.5942" y2="145.0234">
	<stop  offset="0" style="stop-color:#3479BE"/>
	<stop  offset="1" style="stop-color:#E23237"/>
</linearGradient>
<rect x="29.2" y="119.8" fill="url(#SVGID_1_)" width="1050.4" height="50.4"/>
<g>
	<path fill="#E03236" d="M1093.7,83.4h-7.2V81h18.5v6.8c0,2-0.5,3.6-1.5,4.8s-2.4,1.7-4.1,1.7c-1.8,0-3.2-0.6-4.1-1.7
		c-1-1.1-1.5-2.7-1.5-4.8V83.4z M1095.7,83.4v4.4c0,1.3,0.3,2.3,0.9,3s1.5,1,2.7,1c1.1,0,2-0.3,2.6-1s1-1.6,1-2.9v-4.5H1095.7z"/>
	<path fill="#E03236" d="M1088.5,99.8v8.8h-2V97.4h18.5v2.5H1088.5z"/>
	<path fill="#E03236" d="M1091.3,121.8v-7.7l-4.8-1.7v-2.5l18.5,7.1v2.1l-18.5,7.1v-2.5L1091.3,121.8z M1093.3,114.8v6.3l8.6-3.1
		L1093.3,114.8z"/>
	<path fill="#E03236" d="M1103,139.7v-5.9h-16.5v-2.4h16.5v-5.9h2v14.3H1103z"/>
	<path fill="#E03236" d="M1094.7,152.6v-7.8h-8.2v-2.4h18.5v11.5h-2v-9h-6.3v7.8H1094.7z"/>
	<path fill="#E03236" d="M1095.2,171c-1.8,0-3.4-0.3-4.7-0.9c-1.4-0.6-2.4-1.5-3.1-2.6s-1.1-2.4-1.1-3.9c0-1.5,0.4-2.7,1.1-3.9
		c0.7-1.1,1.7-2,3.1-2.6c1.3-0.6,2.9-0.9,4.6-1h1.3c1.8,0,3.3,0.3,4.7,0.9s2.4,1.5,3.1,2.6c0.7,1.1,1.1,2.4,1.1,3.9
		c0,1.5-0.4,2.8-1.1,3.9c-0.7,1.1-1.8,2-3.1,2.6c-1.4,0.6-2.9,0.9-4.7,0.9H1095.2z M1096.3,168.6c2.2,0,3.9-0.4,5-1.3
		c1.2-0.9,1.8-2.1,1.8-3.7c0-1.5-0.6-2.8-1.8-3.6c-1.2-0.9-2.8-1.3-4.9-1.4h-1.4c-2.1,0-3.8,0.4-5,1.3c-1.2,0.9-1.8,2.1-1.8,3.7
		c0,1.6,0.6,2.8,1.7,3.7c1.1,0.9,2.8,1.3,4.9,1.3H1096.3z"/>
	<path fill="#E03236" d="M1094,181.5v-4.3h-7.5v-2.5h18.5v6.1c0,2.1-0.5,3.7-1.4,4.8c-0.9,1.1-2.3,1.7-4.1,1.7c-1.2,0-2.2-0.3-3-0.9
		c-0.9-0.6-1.5-1.5-1.9-2.6l-7.8,4.3h-0.2v-2.6L1094,181.5z M1096,177.1v3.7c0,1.2,0.3,2.2,0.9,2.9c0.6,0.7,1.5,1.1,2.5,1.1
		c1.1,0,2-0.3,2.6-1c0.6-0.7,0.9-1.7,0.9-3v-3.7H1096z"/>
	<path fill="#E03236" d="M1105,193.8l-15.1,6l15.1,6v3.2h-18.5v-2.4h7.2l7.8,0.2l-15-6.1v-1.9l14.9-6.1l-7.7,0.2h-7.2v-2.4h18.5
		V193.8z"/>
</g>
<line fill="none" stroke="#FFFFFF" stroke-width="1.5" stroke-miterlimit="10" x1="99.8" y1="109.6" x2="99.8" y2="180.5"/>
<g>
	<path fill="#FFFFFF" d="M99.8,97v3.3h4.7v1H93.2v-3.7c0-1.2,0.3-2.2,0.9-2.8c0.6-0.7,1.4-1,2.5-1c0.7,0,1.4,0.2,1.9,0.6
		c0.6,0.4,0.9,1,1.2,1.7l4.8-2.8h0.1v1L99.8,97z M99,100.3v-2.9c0-0.8-0.2-1.5-0.7-1.9c-0.5-0.5-1.1-0.7-1.8-0.7
		c-0.8,0-1.4,0.3-1.9,0.8C94.2,96,94,96.7,94,97.6v2.7H99z"/>
	<path fill="#FFFFFF" d="M99.1,84.8v5.3h4.6V84h0.8v7.1H93.2v-7H94v6.1h4.3v-5.3H99.1z"/>
	<path fill="#FFFFFF" d="M101.3,75.9V81l3.2,1.2v1l-11.4-4.3V78l11.4-4.3v1L101.3,75.9z M100.5,80.7v-4.6l-6.2,2.3L100.5,80.7z"/>
	<path fill="#FFFFFF" d="M101,64.1c1.2,0.1,2.1,0.6,2.8,1.3c0.6,0.7,1,1.7,1,2.9c0,0.8-0.2,1.6-0.6,2.2s-1,1.1-1.8,1.5
		c-0.8,0.4-1.7,0.5-2.7,0.5h-1.5c-1,0-1.9-0.2-2.7-0.5c-0.8-0.4-1.4-0.9-1.8-1.5C93.2,69.8,93,69,93,68.2c0-1.2,0.3-2.2,1-2.9
		c0.7-0.7,1.6-1.1,2.7-1.2v1c-1.9,0.2-2.9,1.3-2.9,3.1c0,1,0.4,1.9,1.2,2.5c0.8,0.6,1.8,0.9,3.2,0.9h1.4c1.3,0,2.4-0.3,3.1-0.9
		c0.8-0.6,1.2-1.4,1.2-2.4c0-1-0.2-1.8-0.7-2.3c-0.5-0.5-1.2-0.8-2.2-0.9V64.1z"/>
	<path fill="#FFFFFF" d="M94,54.2v3.9h10.6v1H94V63h-0.8v-8.8H94z"/>
</g>
<line fill="none" stroke="#FFFFFF" stroke-width="1.5" stroke-miterlimit="10" x1="1063.9" y1="109.6" x2="1063.9" y2="180.5"/>
<g>
	<path fill="#FFFFFF" d="M1057.2,100l10-4.2l-10-4.2v-1.3h11.4v1h-5l-5.1-0.1l10,4.2v0.7l-10,4.2l5-0.1h5v1h-11.4V100z"/>
	<path fill="#FFFFFF" d="M1063.1,81.2v5.3h4.6v-6.1h0.8v7.1h-11.4v-7h0.8v6.1h4.3v-5.3H1063.1z"/>
	<path fill="#FFFFFF" d="M1058,70.5v3.9h10.6v1H1058v3.9h-0.8v-8.8H1058z"/>
	<path fill="#FFFFFF" d="M1063.1,62.3v5.3h4.6v-6.1h0.8v7.1h-11.4v-7h0.8v6.1h4.3v-5.3H1063.1z"/>
	<path fill="#FFFFFF" d="M1063.5,51.1c1,0,2,0.2,2.8,0.5c0.8,0.4,1.4,0.9,1.8,1.6c0.4,0.7,0.6,1.4,0.6,2.3c0,1.3-0.5,2.4-1.4,3.2
		c-0.9,0.8-2.2,1.2-3.8,1.2h-1.2c-1,0-2-0.2-2.8-0.6c-0.8-0.4-1.4-0.9-1.8-1.6s-0.6-1.4-0.6-2.3s0.2-1.6,0.6-2.3
		c0.4-0.7,1-1.2,1.8-1.6c0.8-0.4,1.7-0.6,2.7-0.6H1063.5z M1062.3,52.1c-1.4,0-2.4,0.3-3.2,0.9c-0.8,0.6-1.2,1.5-1.2,2.5
		c0,1.1,0.4,1.9,1.2,2.5c0.8,0.6,1.9,0.9,3.3,0.9h1.2c1.3,0,2.4-0.3,3.2-0.9s1.2-1.5,1.2-2.5c0-1.1-0.4-1.9-1.2-2.5
		c-0.8-0.6-1.9-0.9-3.3-0.9H1062.3z"/>
	<path fill="#FFFFFF" d="M1063.9,44.4v3.3h4.7v1h-11.4V45c0-1.2,0.3-2.2,0.9-2.8c0.6-0.7,1.4-1,2.5-1c0.7,0,1.4,0.2,1.9,0.6
		c0.6,0.4,0.9,1,1.2,1.7l4.8-2.8h0.1v1L1063.9,44.4z M1063,47.7v-2.9c0-0.8-0.2-1.5-0.7-1.9c-0.5-0.5-1.1-0.7-1.8-0.7
		c-0.8,0-1.4,0.3-1.9,0.8c-0.4,0.5-0.7,1.2-0.7,2.1v2.7H1063z"/>
</g>
<line fill="none" stroke="#FFFFFF" stroke-width="1.5" stroke-miterlimit="10" x1="201.2" y1="109.6" x2="201.2" y2="180.5"/>
<g>
	<path fill="#FFFFFF" d="M194.6,96.3v-1h8c1.1,0,1.9,0.3,2.6,0.9c0.6,0.6,1,1.5,1,2.5c0,1.1-0.3,2-0.9,2.5s-1.4,0.9-2.4,0.9v-1
		c0.8,0,1.4-0.2,1.9-0.6c0.4-0.4,0.6-1,0.6-1.8c0-0.7-0.2-1.3-0.7-1.8c-0.5-0.5-1.1-0.7-2-0.7H194.6z"/>
	<path fill="#FFFFFF" d="M200.9,84.1c1.1,0,2,0.2,2.8,0.6s1.4,0.9,1.8,1.6l1.8-2.1l0.6,0.7l-2,2.3c0.1,0.4,0.2,0.9,0.2,1.3
		c0,0.9-0.2,1.6-0.6,2.3c-0.4,0.7-1,1.2-1.8,1.6c-0.8,0.4-1.7,0.6-2.7,0.6h-1.3c-1,0-2-0.2-2.8-0.6c-0.8-0.4-1.4-0.9-1.8-1.6
		s-0.6-1.4-0.6-2.3c0-0.9,0.2-1.7,0.6-2.3c0.4-0.7,1-1.2,1.8-1.6s1.7-0.6,2.8-0.6H200.9z M199.6,85.1c-1.4,0-2.4,0.3-3.2,0.9
		c-0.8,0.6-1.2,1.5-1.2,2.6c0,1.1,0.4,1.9,1.2,2.5c0.8,0.6,1.9,0.9,3.3,0.9h1.2c1.3,0,2.4-0.3,3.2-0.9c0.8-0.6,1.2-1.5,1.2-2.5
		c0-1.1-0.4-1.9-1.2-2.5c-0.8-0.6-1.9-0.9-3.3-0.9H199.6z"/>
	<path fill="#FFFFFF" d="M194.6,73.8h7.8c0.8,0,1.4,0.2,2,0.5c0.6,0.3,1,0.8,1.3,1.4c0.3,0.6,0.5,1.3,0.5,2.1c0,1.2-0.3,2.2-1,2.9
		c-0.7,0.7-1.6,1.1-2.7,1.1h-7.8v-1h7.7c1,0,1.7-0.3,2.2-0.8c0.5-0.5,0.8-1.3,0.8-2.2s-0.3-1.7-0.8-2.2c-0.5-0.5-1.3-0.8-2.2-0.8
		h-7.7V73.8z"/>
	<path fill="#FFFFFF" d="M200.5,64.9v5.3h4.6v-6.1h0.8v7.1h-11.4v-7h0.8v6.1h4.3v-5.3H200.5z"/>
	<path fill="#FFFFFF" d="M201.2,57.8v3.3h4.7v1h-11.4v-3.7c0-1.2,0.3-2.2,0.9-2.8c0.6-0.7,1.4-1,2.5-1c0.7,0,1.4,0.2,1.9,0.6
		c0.6,0.4,0.9,1,1.2,1.7l4.8-2.8h0.1v1L201.2,57.8z M200.4,61.1v-2.9c0-0.8-0.2-1.5-0.7-1.9c-0.5-0.5-1.1-0.7-1.8-0.7
		c-0.8,0-1.4,0.3-1.9,0.8c-0.4,0.5-0.7,1.2-0.7,2.1v2.7H200.4z"/>
	<path fill="#FFFFFF" d="M200.8,48.9l-6.2-3.5v-1.1l7.1,4.1h4.3v1h-4.3l-7.1,4.1v-1.1L200.8,48.9z"/>
</g>
<line fill="none" stroke="#FFFFFF" stroke-width="1.5" stroke-miterlimit="10" x1="758.4" y1="109.6" x2="758.4" y2="180.5"/>
<g>
	<path fill="#FFFFFF" d="M757.7,95v5.3h4.6v-6.1h0.8v7.1h-11.4v-7h0.8v6.1h4.3V95H757.7z"/>
	<path fill="#FFFFFF" d="M751.7,90.9l10-4.2l-10-4.2v-1.3h11.4v1h-5l-5.1-0.1l10,4.2v0.7l-10,4.2l5-0.1h5v1h-11.4V90.9z"/>
	<path fill="#FFFFFF" d="M763.1,78.3h-11.4V75c0-1.2,0.3-2.1,0.8-2.8c0.5-0.6,1.2-0.9,2.2-0.9c0.6,0,1.1,0.2,1.5,0.5
		s0.7,0.8,0.9,1.3c0.1-0.7,0.5-1.2,1-1.6c0.5-0.4,1.1-0.6,1.7-0.6c1,0,1.8,0.3,2.4,1c0.6,0.6,0.8,1.6,0.8,2.7V78.3z M756.8,77.4
		v-2.6c0-0.8-0.2-1.4-0.6-1.9c-0.4-0.4-0.9-0.7-1.6-0.7c-0.7,0-1.3,0.2-1.6,0.7c-0.3,0.5-0.5,1.1-0.5,2.1v2.4H756.8z M757.6,77.4
		h4.6v-2.9c0-0.8-0.2-1.5-0.6-2c-0.4-0.5-1-0.7-1.7-0.7c-0.7,0-1.3,0.2-1.7,0.7s-0.6,1.1-0.6,1.9V77.4z"/>
	<path fill="#FFFFFF" d="M757.7,62.2v5.3h4.6v-6.1h0.8v7.1h-11.4v-7h0.8v6.1h4.3v-5.3H757.7z"/>
	<path fill="#FFFFFF" d="M758.4,55.2v3.3h4.7v1h-11.4v-3.7c0-1.2,0.3-2.2,0.9-2.8c0.6-0.7,1.4-1,2.5-1c0.7,0,1.4,0.2,1.9,0.6
		c0.6,0.4,0.9,1,1.2,1.7l4.8-2.8h0.1v1L758.4,55.2z M757.6,58.5v-2.9c0-0.8-0.2-1.5-0.7-1.9c-0.5-0.5-1.1-0.7-1.8-0.7
		c-0.8,0-1.4,0.3-1.9,0.8c-0.4,0.5-0.7,1.2-0.7,2.1v2.7H757.6z"/>
</g>
<g>
	<path opacity="0.5" fill="#36474F" d="M481.7,147.5h-7.9v8.1h-4.1v-19.9h13v3.3h-8.9v5.1h7.9V147.5z"/>
	<path opacity="0.5" fill="#36474F" d="M492.4,148.3h-3.3v7.3H485v-19.9h7.4c2.4,0,4.2,0.5,5.4,1.6c1.3,1,1.9,2.5,1.9,4.4
		c0,1.4-0.3,2.5-0.9,3.4c-0.6,0.9-1.5,1.6-2.7,2.2l4.3,8.1v0.2h-4.4L492.4,148.3z M489.1,145h3.3c1,0,1.8-0.3,2.4-0.8
		c0.6-0.5,0.8-1.2,0.8-2.2c0-0.9-0.3-1.7-0.8-2.2c-0.5-0.5-1.4-0.8-2.5-0.8h-3.3V145z"/>
	<path opacity="0.5" fill="#36474F" d="M514.1,151.5H507l-1.4,4.1h-4.4l7.4-19.9h3.8l7.5,19.9h-4.4L514.1,151.5z M508.1,148.2h5
		l-2.5-7.5L508.1,148.2z"/>
	<path opacity="0.5" fill="#36474F" d="M527.1,135.7l5.1,14.4l5.1-14.4h5.4v19.9h-4.1v-5.4l0.4-9.4l-5.4,14.8h-2.8l-5.4-14.8
		l0.4,9.4v5.4h-4.1v-19.9H527.1z"/>
	<path opacity="0.5" fill="#36474F" d="M558.3,147h-7.9v5.4h9.2v3.3h-13.3v-19.9h13.3v3.3h-9.2v4.7h7.9V147z"/>
	<path opacity="0.5" fill="#36474F" d="M577.5,149.9l2.7-14.2h4.1l-4.4,19.9h-4.1l-3.2-13.3l-3.2,13.3h-4.1l-4.4-19.9h4.1l2.7,14.1
		l3.3-14.1h3.5L577.5,149.9z"/>
	<path opacity="0.5" fill="#36474F" d="M602.9,146.1c0,2-0.3,3.7-1,5.2c-0.7,1.5-1.7,2.6-3,3.4c-1.3,0.8-2.8,1.2-4.4,1.2
		c-1.6,0-3.1-0.4-4.4-1.2c-1.3-0.8-2.3-1.9-3-3.4c-0.7-1.5-1.1-3.2-1.1-5.1v-1c0-2,0.4-3.7,1.1-5.2c0.7-1.5,1.7-2.6,3-3.4
		c1.3-0.8,2.8-1.2,4.4-1.2c1.7,0,3.1,0.4,4.4,1.2c1.3,0.8,2.3,1.9,3,3.4c0.7,1.5,1.1,3.2,1.1,5.2V146.1z M598.7,145.2
		c0-2.1-0.4-3.7-1.1-4.8c-0.7-1.1-1.8-1.6-3.2-1.6c-1.4,0-2.4,0.5-3.2,1.6c-0.7,1.1-1.1,2.6-1.1,4.7v1c0,2,0.4,3.6,1.1,4.7
		c0.7,1.1,1.8,1.7,3.2,1.7c1.4,0,2.4-0.5,3.2-1.6s1.1-2.7,1.1-4.7V145.2z"/>
	<path opacity="0.5" fill="#36474F" d="M613.2,148.3h-3.3v7.3h-4.1v-19.9h7.4c2.4,0,4.2,0.5,5.4,1.6c1.3,1,1.9,2.5,1.9,4.4
		c0,1.4-0.3,2.5-0.9,3.4c-0.6,0.9-1.5,1.6-2.7,2.2l4.3,8.1v0.2h-4.4L613.2,148.3z M609.9,145h3.3c1,0,1.8-0.3,2.4-0.8
		c0.6-0.5,0.8-1.2,0.8-2.2c0-0.9-0.3-1.7-0.8-2.2c-0.5-0.5-1.4-0.8-2.5-0.8h-3.3V145z"/>
	<path opacity="0.5" fill="#36474F" d="M629.9,147.6l-2.1,2.3v5.7h-4.1v-19.9h4.1v9l1.8-2.5l5.1-6.5h5l-7.1,8.8l7.3,11.1h-4.9
		L629.9,147.6z"/>
</g>
<line fill="none" stroke="#FFFFFF" stroke-width="1.5" stroke-miterlimit="10" x1="46.8" y1="109.6" x2="46.8" y2="180.5"/>
<g>
	<path fill="#FFFFFF" d="M51.5,101.3H40.1v-3.2c0-0.9,0.2-1.8,0.6-2.5c0.4-0.7,1-1.3,1.8-1.7c0.8-0.4,1.7-0.6,2.7-0.6h1
		c1,0,1.9,0.2,2.7,0.6c0.8,0.4,1.4,1,1.8,1.7c0.4,0.7,0.6,1.6,0.6,2.6V101.3z M40.9,100.3h9.8v-2.2c0-1.2-0.4-2.2-1.2-2.9
		c-0.8-0.7-1.9-1.1-3.2-1.1h-1c-1.3,0-2.4,0.4-3.1,1.1c-0.8,0.7-1.2,1.7-1.2,2.8V100.3z"/>
	<path fill="#FFFFFF" d="M45.3,89.1v-1c0-0.5-0.1-1-0.3-1.4c-0.2-0.4-0.5-0.7-0.8-0.9c-0.3-0.2-0.7-0.3-1.1-0.3
		c-0.7,0-1.3,0.2-1.7,0.6c-0.4,0.4-0.6,1-0.6,1.8c0,0.7,0.2,1.3,0.6,1.8c0.4,0.5,1,0.7,1.7,0.7v0.9c-0.6,0-1.1-0.1-1.6-0.4
		c-0.5-0.3-0.9-0.7-1.1-1.2c-0.3-0.5-0.4-1.1-0.4-1.8c0-1,0.3-1.8,0.8-2.4s1.3-0.9,2.3-0.9c0.5,0,1.1,0.2,1.5,0.5
		c0.5,0.3,0.8,0.8,1,1.4c0.2-0.7,0.5-1.2,1-1.6c0.5-0.4,1.1-0.5,1.7-0.5c1,0,1.8,0.3,2.4,1c0.6,0.6,0.9,1.5,0.9,2.5
		c0,0.7-0.1,1.3-0.4,1.9c-0.3,0.6-0.6,1-1.1,1.3c-0.5,0.3-1.1,0.5-1.7,0.5v-0.9c0.7,0,1.3-0.3,1.8-0.8c0.5-0.5,0.7-1.2,0.7-1.9
		c0-0.8-0.2-1.4-0.6-1.9c-0.4-0.5-1-0.7-1.8-0.7c-0.8,0-1.3,0.2-1.7,0.7c-0.4,0.5-0.6,1.2-0.6,2.2v0.9H45.3z"/>
	<path fill="#FFFFFF" d="M50.9,82.2c-0.2,0-0.3-0.1-0.5-0.2c-0.1-0.1-0.2-0.3-0.2-0.5c0-0.2,0.1-0.4,0.2-0.5
		c0.1-0.1,0.3-0.2,0.5-0.2c0.2,0,0.3,0.1,0.4,0.2c0.1,0.1,0.2,0.3,0.2,0.5c0,0.2-0.1,0.4-0.2,0.5S51.1,82.2,50.9,82.2z"/>
	<path fill="#FFFFFF" d="M40.1,73.1v-1h8c1.1,0,1.9,0.3,2.6,0.9c0.6,0.6,1,1.5,1,2.5c0,1.1-0.3,2-0.9,2.5S49.4,79,48.3,79v-1
		c0.8,0,1.4-0.2,1.9-0.6c0.4-0.4,0.6-1,0.6-1.8c0-0.7-0.2-1.3-0.7-1.8c-0.5-0.5-1.1-0.7-2-0.7H40.1z"/>
	<path fill="#FFFFFF" d="M48.7,62.9c-0.6,0-1.1,0.2-1.5,0.7c-0.4,0.4-0.7,1.3-1,2.4c-0.3,1.2-0.7,2-1.1,2.6
		c-0.6,0.8-1.3,1.2-2.2,1.2c-0.9,0-1.6-0.4-2.1-1.1c-0.5-0.7-0.8-1.6-0.8-2.7c0-0.8,0.1-1.4,0.4-2c0.3-0.6,0.7-1.1,1.2-1.4
		c0.5-0.3,1.1-0.5,1.7-0.5v1c-0.8,0-1.4,0.3-1.9,0.8c-0.5,0.5-0.7,1.2-0.7,2.1c0,0.9,0.2,1.6,0.6,2.1s0.9,0.8,1.5,0.8
		c0.6,0,1.1-0.2,1.4-0.7c0.4-0.5,0.7-1.2,1-2.2c0.3-1,0.6-1.8,0.9-2.3c0.3-0.5,0.7-0.9,1.1-1.2c0.4-0.3,0.9-0.4,1.5-0.4
		c0.9,0,1.6,0.4,2.2,1.1c0.5,0.7,0.8,1.7,0.8,2.8c0,0.8-0.1,1.5-0.4,2.2c-0.3,0.7-0.7,1.2-1.2,1.5c-0.5,0.3-1.1,0.5-1.8,0.5v-1
		c0.8,0,1.4-0.3,1.9-0.9c0.5-0.6,0.7-1.4,0.7-2.4c0-0.9-0.2-1.6-0.6-2.1C49.8,63.1,49.3,62.9,48.7,62.9z"/>
</g>
<line fill="none" stroke="#FFFFFF" stroke-width="3" stroke-miterlimit="10" x1="601.6" y1="109.6" x2="601.6" y2="180.5"/>
<g>
	<path fill="#FFFFFF" d="M603.9,94.3v5l3,1v2.3l-12.8-4.8v-2l12.8-4.8v2.3L603.9,94.3z M602.1,98.6v-3.7l-5.3,1.9L602.1,98.6z"/>
	<path fill="#FFFFFF" d="M606.9,79.3v2.2l-9.1,5.7h9.1v2.2h-12.8v-2.2l9.1-5.7h-9.1v-2.2H606.9z"/>
	<path fill="#FFFFFF" d="M605.2,66.8c0.6,0.5,1.1,1.1,1.4,1.9s0.5,1.8,0.5,2.8c0,1.1-0.2,2-0.7,2.8s-1.2,1.5-2.1,1.9
		c-0.9,0.4-2,0.7-3.2,0.7h-1c-1.9,0-3.4-0.5-4.5-1.4c-1.1-0.9-1.6-2.2-1.6-3.9c0-1.4,0.4-2.6,1.1-3.4c0.7-0.8,1.7-1.3,3-1.5V69
		c-1.5,0.2-2.3,1.1-2.3,2.7c0,1,0.4,1.8,1.1,2.3c0.7,0.5,1.8,0.8,3.2,0.8h1c1.4,0,2.5-0.3,3.2-0.9c0.8-0.6,1.1-1.4,1.1-2.4
		c0-1.1-0.3-1.9-0.8-2.4H602v2.6h-1.7v-4.9H605.2z"/>
	<path fill="#FFFFFF" d="M594.1,55h8.6c1.4,0,2.4,0.4,3.2,1.3c0.8,0.9,1.2,2,1.2,3.5c0,1.5-0.4,2.6-1.2,3.5
		c-0.8,0.9-1.9,1.3-3.3,1.3h-8.5v-2.2h8.5c0.9,0,1.5-0.2,2-0.7c0.5-0.4,0.7-1.1,0.7-1.9c0-1.7-0.9-2.6-2.7-2.6h-8.5V55z"/>
	<path fill="#FFFFFF" d="M605.1,50.4v-5.8h1.8v8h-12.8v-2.2H605.1z"/>
	<path fill="#FFFFFF" d="M603.9,35.6v5l3,1v2.3l-12.8-4.8v-2l12.8-4.8v2.3L603.9,35.6z M602.1,39.9v-3.7l-5.3,1.9L602.1,39.9z"/>
	<path fill="#FFFFFF" d="M602,26.1v2.5h4.9v2.2h-12.8v-4.5c0-1.5,0.3-2.6,1-3.4s1.6-1.2,2.9-1.2c0.9,0,1.6,0.2,2.2,0.6
		c0.6,0.4,1,1,1.3,1.7l5.3-2.9h0.1v2.4L602,26.1z M600.2,28.6v-2.3c0-0.8-0.2-1.3-0.6-1.8c-0.4-0.4-0.9-0.6-1.6-0.6
		c-0.7,0-1.2,0.2-1.6,0.6s-0.6,1-0.6,1.7v2.3H600.2z"/>
	<path fill="#FFFFFF" d="M594.1,14.3v-2.2h9c1.2,0,2.2,0.4,2.9,1.1s1.1,1.8,1.1,3c0,1.3-0.3,2.4-1,3.1s-1.6,1.1-2.8,1.1v-2.2
		c0.7,0,1.2-0.2,1.5-0.5c0.3-0.3,0.5-0.8,0.5-1.5c0-0.6-0.2-1.1-0.6-1.4c-0.4-0.4-0.9-0.5-1.6-0.5H594.1z"/>
	<path fill="#FFFFFF" d="M603.6,2.9c-0.6,0-1,0.2-1.3,0.6s-0.6,1.1-0.9,2.1s-0.7,1.9-1,2.5c-0.7,1.2-1.7,1.7-2.9,1.7
		c-1,0-1.9-0.4-2.5-1.3s-1-1.9-1-3.3c0-0.9,0.2-1.7,0.5-2.4s0.8-1.2,1.4-1.6c0.6-0.4,1.3-0.6,2-0.6v2.2c-0.7,0-1.2,0.2-1.6,0.6
		s-0.6,1-0.6,1.8c0,0.7,0.2,1.3,0.5,1.7s0.7,0.6,1.3,0.6c0.5,0,0.9-0.2,1.2-0.7s0.6-1.1,0.9-2.1s0.6-1.8,1-2.4
		c0.4-0.6,0.8-1,1.3-1.3c0.5-0.3,1.1-0.4,1.7-0.4c1.1,0,1.9,0.4,2.5,1.2c0.6,0.8,0.9,1.9,0.9,3.3c0,0.9-0.2,1.8-0.5,2.6
		c-0.3,0.8-0.8,1.4-1.4,1.8s-1.3,0.6-2.1,0.6V8c0.7,0,1.3-0.2,1.7-0.7s0.6-1.2,0.6-2.1c0-0.8-0.2-1.4-0.5-1.7
		C604.5,3.1,604.1,2.9,603.6,2.9z"/>
</g>
</svg>
