<?xml version="1.0" encoding="utf-8"?>
<!-- Generator: Adobe Illustrator 16.0.0, SVG Export Plug-In . SVG Version: 6.00 Build 0)  -->
<!DOCTYPE svg PUBLIC "-//W3C//DTD SVG 1.1//EN" "http://www.w3.org/Graphics/SVG/1.1/DTD/svg11.dtd">
<svg version="1.1" id="Layer_2" xmlns="http://www.w3.org/2000/svg" xmlns:xlink="http://www.w3.org/1999/xlink" x="0px" y="0px"
	 width="600px" height="400px" viewBox="0 0 600 400" enable-background="new 0 0 600 400" xml:space="preserve">
<g>
	<g>
		<g>
			<polygon fill="#3360AD" points="301.5,30.7 354.5,52.2 354.5,56.7 300.6,77.7 247,56.7 247,51.7 			"/>
			<g>
				<path fill="#F2F2F2" d="M360.5,109.6c0,3.4-1.9,6.5-4.8,8.1L305,145.3c-1.4,0.8-2.9,1.2-4.4,1.2c-1.5,0-3-0.4-4.4-1.2
					l-50.7-27.6c-3-1.6-4.8-4.7-4.8-8.1V54.4c0-3.9,2.4-7.3,6-8.6l50.7-18.4c1-0.4,2.1-0.6,3.2-0.6s2.2,0.2,3.2,0.6l50.7,18.4
					c3.6,1.3,6,4.8,6,8.6V109.6z M350.8,54.2l-50.2-18.3l-50.2,18.3l50.2,18.3L350.8,54.2z M351.3,109.6V63.9l-46.1,16.8v54.1
					L351.3,109.6z"/>
			</g>
			<g>
				<path fill="#F2F2F2" d="M291.7,57.6l1.8-5.7h1.3l-2.7,7.4h-1l-2.7-7.4h1.3L291.7,57.6z"/>
				<path fill="#F2F2F2" d="M295.5,49.9c0-0.2,0.1-0.4,0.2-0.5c0.1-0.1,0.3-0.2,0.6-0.2s0.4,0.1,0.6,0.2s0.2,0.3,0.2,0.5
					s-0.1,0.4-0.2,0.5s-0.3,0.2-0.6,0.2s-0.4-0.1-0.6-0.2C295.6,50.3,295.5,50.1,295.5,49.9z M296.9,59.3h-1.3v-7.4h1.3V59.3z"/>
				<path fill="#F2F2F2" d="M301.4,59.4c-1,0-1.8-0.3-2.4-1s-0.9-1.5-0.9-2.6v-0.2c0-0.7,0.1-1.4,0.4-2c0.3-0.6,0.7-1,1.2-1.4
					c0.5-0.3,1-0.5,1.6-0.5c1,0,1.7,0.3,2.2,1s0.8,1.5,0.8,2.7v0.5h-5c0,0.7,0.2,1.3,0.6,1.8c0.4,0.4,0.9,0.7,1.6,0.7
					c0.4,0,0.8-0.1,1.1-0.3c0.3-0.2,0.6-0.4,0.8-0.7l0.8,0.6C303.6,58.9,302.6,59.4,301.4,59.4z M301.3,52.8c-0.5,0-0.9,0.2-1.3,0.6
					s-0.6,0.9-0.6,1.6h3.7v-0.1c0-0.6-0.2-1.1-0.5-1.5C302.2,52.9,301.8,52.8,301.3,52.8z"/>
				<path fill="#F2F2F2" d="M311.7,57.5l1.4-5.7h1.3l-2.2,7.4h-1l-1.8-5.6l-1.8,5.6h-1l-2.1-7.4h1.3l1.5,5.5l1.7-5.5h1L311.7,57.5z"
					/>
			</g>
		</g>
		<g>
			<path fill="#36474F" d="M261.6,110.3c-0.4,0.3-0.9,0-1.3-0.6l-12.9-22.6c-0.4-0.6-0.4-1.4,0-1.7l13.1-11.7c0.4-0.3,1-0.1,1.3,0.6
				l1.4,2.6c0.4,0.7,0.4,1.4,0,1.8l-11.1,9.7l10.8,19.2c0.4,0.6,0.3,1.3,0,1.6L261.6,110.3z M268.8,119.7c-0.1,0.5-0.6,0.6-1.1,0.3
				l-1.7-1.4c-0.5-0.4-0.7-1.1-0.6-1.7L277,74.3c0.2-0.6,0.7-0.8,1.2-0.4l1.8,1.5c0.5,0.4,0.8,1.2,0.6,1.8L268.8,119.7z
				 M284.5,120.9c-0.4,0.3-0.9,0-1.3-0.6l-1.3-2.4c-0.3-0.6-0.3-1.3,0.1-1.6l11.7-9L283,87.5c-0.4-0.7-0.3-1.4,0.1-1.8l1.5-1.3
				c0.4-0.3,1-0.1,1.3,0.6l12.7,23.5c0.3,0.6,0.3,1.4-0.1,1.7L284.5,120.9z"/>
		</g>
	</g>
	<g>
		<g>
			<polygon fill="#8E388E" points="301.5,259.3 354.5,280.8 354.5,285.3 300.6,306.3 247,285.3 247,280.3 			"/>
			<g>
				<path fill="#F2F2F2" d="M360.5,338.2c0,3.4-1.9,6.5-4.8,8.1L305,373.9c-1.4,0.8-2.9,1.2-4.4,1.2c-1.5,0-3-0.4-4.4-1.2
					l-50.7-27.6c-3-1.6-4.8-4.7-4.8-8.1v-55.3c0-3.9,2.4-7.3,6-8.6l50.7-18.4c1-0.4,2.1-0.6,3.2-0.6s2.2,0.2,3.2,0.6l50.7,18.4
					c3.6,1.3,6,4.8,6,8.6V338.2z M350.8,282.8l-50.2-18.3l-50.2,18.3l50.2,18.3L350.8,282.8z M351.3,338.2v-45.8l-46.1,16.8v54.1
					L351.3,338.2z"/>
			</g>
			<g>
				<path fill="#F2F2F2" d="M285.3,280.5l0,0.8c0.5-0.6,1.3-1,2.2-1c1,0,1.7,0.4,2.1,1.2c0.2-0.4,0.6-0.6,1-0.9
					c0.4-0.2,0.9-0.3,1.4-0.3c1.6,0,2.4,0.9,2.5,2.6v5h-1.3V283c0-0.5-0.1-0.9-0.4-1.2s-0.6-0.4-1.2-0.4c-0.5,0-0.9,0.1-1.2,0.4
					s-0.5,0.7-0.5,1.1v4.9h-1.3V283c0-1.1-0.5-1.6-1.6-1.6c-0.8,0-1.4,0.4-1.7,1.1v5.4h-1.3v-7.4H285.3z"/>
				<path fill="#F2F2F2" d="M295.5,284.1c0-0.7,0.1-1.4,0.4-2c0.3-0.6,0.7-1,1.2-1.3c0.5-0.3,1.1-0.5,1.7-0.5c1,0,1.8,0.3,2.4,1
					c0.6,0.7,0.9,1.6,0.9,2.8v0.1c0,0.7-0.1,1.4-0.4,1.9c-0.3,0.6-0.7,1-1.2,1.3c-0.5,0.3-1.1,0.5-1.8,0.5c-1,0-1.8-0.3-2.4-1
					C295.8,286.2,295.5,285.3,295.5,284.1L295.5,284.1z M296.8,284.2c0,0.8,0.2,1.5,0.6,2c0.4,0.5,0.9,0.7,1.5,0.7
					c0.6,0,1.2-0.3,1.5-0.8s0.6-1.2,0.6-2.1c0-0.8-0.2-1.5-0.6-2c-0.4-0.5-0.9-0.8-1.5-0.8c-0.6,0-1.1,0.2-1.5,0.7
					C297,282.6,296.8,283.3,296.8,284.2z"/>
				<path fill="#F2F2F2" d="M303,284.1c0-1.1,0.3-2,0.8-2.7s1.2-1,2.1-1c0.9,0,1.6,0.3,2.1,0.9v-3.9h1.3v10.5H308l-0.1-0.8
					c-0.5,0.6-1.2,0.9-2.1,0.9c-0.9,0-1.6-0.4-2.1-1.1C303.2,286.2,303,285.3,303,284.1L303,284.1z M304.2,284.2
					c0,0.8,0.2,1.5,0.5,2c0.3,0.5,0.8,0.7,1.4,0.7c0.8,0,1.4-0.4,1.8-1.1v-3.4c-0.4-0.7-1-1-1.7-1c-0.6,0-1.1,0.2-1.4,0.7
					S304.2,283.3,304.2,284.2z"/>
				<path fill="#F2F2F2" d="M313.7,288c-1,0-1.8-0.3-2.4-1s-0.9-1.5-0.9-2.6v-0.2c0-0.7,0.1-1.4,0.4-2c0.3-0.6,0.7-1,1.2-1.4
					c0.5-0.3,1-0.5,1.6-0.5c1,0,1.7,0.3,2.2,0.9c0.5,0.6,0.8,1.5,0.8,2.7v0.5h-5c0,0.7,0.2,1.3,0.6,1.8c0.4,0.4,0.9,0.7,1.6,0.7
					c0.4,0,0.8-0.1,1.1-0.3c0.3-0.2,0.6-0.4,0.8-0.7l0.8,0.6C315.8,287.5,314.9,288,313.7,288z M313.5,281.4c-0.5,0-0.9,0.2-1.3,0.6
					s-0.6,0.9-0.6,1.6h3.7v-0.1c0-0.6-0.2-1.1-0.5-1.5S314,281.4,313.5,281.4z"/>
				<path fill="#F2F2F2" d="M318.8,287.9h-1.3v-10.5h1.3V287.9z"/>
			</g>
		</g>
		<g>
			<path fill="#36474F" d="M293.2,316.3v3.5c0,3.8-9.9,3.4-21.4-0.6c-10.9-3.8-19.3-9.6-19.3-13v-3.1c0-3.4,8.4-3.6,19.3-0.2
				C283.3,306.3,293.2,312.5,293.2,316.3z M293.2,325.5v4.6c0,3.8-9.9,3.2-21.4-1.2c-10.9-4.1-19.3-10.1-19.3-13.5v-4.1
				c4,4.2,11.5,8.3,19.3,11.1C279.9,325.3,288.4,326.9,293.2,325.5z M293.2,335.9v4.6c0,3.8-9.9,2.9-21.4-1.7
				c-10.9-4.4-19.3-10.6-19.3-14v-4.1c4,4.3,11.5,8.6,19.3,11.6C279.9,335.4,288.4,337.2,293.2,335.9z M293.2,346.3v4.6
				c0,3.8-9.9,2.7-21.4-2.3c-10.9-4.7-19.3-11.1-19.3-14.5V330c4,4.5,11.5,8.9,19.3,12.1C279.9,345.4,288.4,347.5,293.2,346.3z"/>
		</g>
	</g>
</g>
<g>
	<g>
		<path fill="none" stroke="#F2F2F2" stroke-width="2.2" stroke-miterlimit="10" d="M210.9,320.2c-0.5,0-1.1-0.1-1.6-0.1"/>
		<path fill="none" stroke="#F2F2F2" stroke-width="2.2" stroke-miterlimit="10" stroke-dasharray="3.2733,3.2733" d="M206,319.7
			c-59.4-7-105.5-57.6-105.5-118.8c0-65,51.8-117.9,116.4-119.6"/>
		<path fill="none" stroke="#F2F2F2" stroke-width="2.2" stroke-miterlimit="10" d="M218.6,81.2c0.5,0,1.1,0,1.6,0"/>
		<g>
			<polygon fill="#F2F2F2" points="220.2,320.6 207.3,314.6 210.2,320.1 206.9,325.3 			"/>
		</g>
	</g>
</g>
<g>
	<g>
		<path fill="none" stroke="#F2F2F2" stroke-width="2.2" stroke-miterlimit="10" d="M381,320.6c0.5,0,1.1,0,1.6,0"/>
		<path fill="none" stroke="#F2F2F2" stroke-width="2.2" stroke-miterlimit="10" stroke-dasharray="3.2733,3.2733" d="M385.9,320.5
			c63.8-2.6,114.7-55.1,114.7-119.6c0-61.8-46.9-112.7-107.1-119"/>
		<path fill="none" stroke="#F2F2F2" stroke-width="2.2" stroke-miterlimit="10" d="M392,81.7c-0.5,0-1.1-0.1-1.6-0.1"/>
		<g>
			<polygon fill="#F2F2F2" points="381,81.2 394.4,76.5 391,81.7 393.9,87.2 			"/>
		</g>
	</g>
</g>
<g>
	<path fill="#F2F2F2" d="M63.1,324.7l2.1-6.5h1.5l-3,8.5h-1.1l-3.1-8.5h1.5L63.1,324.7z"/>
	<path fill="#F2F2F2" d="M68.1,316c0-0.2,0.1-0.4,0.2-0.6c0.1-0.2,0.4-0.2,0.6-0.2s0.5,0.1,0.6,0.2c0.1,0.2,0.2,0.4,0.2,0.6
		s-0.1,0.4-0.2,0.6c-0.1,0.2-0.4,0.2-0.6,0.2s-0.5-0.1-0.6-0.2C68.1,316.4,68.1,316.2,68.1,316z M69.6,326.7h-1.4v-8.5h1.4V326.7z"
		/>
	<path fill="#F2F2F2" d="M75.4,326.9c-1.1,0-2.1-0.4-2.8-1.1c-0.7-0.8-1.1-1.8-1.1-3v-0.3c0-0.8,0.2-1.6,0.5-2.2
		c0.3-0.7,0.8-1.2,1.3-1.5c0.6-0.4,1.2-0.6,1.9-0.6c1.1,0,2,0.4,2.6,1.1c0.6,0.7,0.9,1.8,0.9,3.1v0.6H73c0,0.8,0.3,1.5,0.7,2
		c0.5,0.5,1.1,0.8,1.8,0.8c0.5,0,0.9-0.1,1.3-0.3c0.4-0.2,0.7-0.5,0.9-0.8l0.9,0.7C77.9,326.3,76.9,326.9,75.4,326.9z M75.3,319.3
		c-0.6,0-1.1,0.2-1.5,0.6c-0.4,0.4-0.6,1-0.7,1.8h4.2v-0.1c0-0.7-0.2-1.3-0.6-1.7C76.4,319.5,75.9,319.3,75.3,319.3z"/>
	<path fill="#F2F2F2" d="M87.9,324.7l1.6-6.5H91l-2.5,8.5h-1.2l-2.1-6.4l-2,6.4h-1.2l-2.5-8.5h1.4l1.7,6.3l2-6.3h1.2L87.9,324.7z"/>
	<path fill="#F2F2F2" d="M101.6,325.9c-0.6,0.7-1.4,1-2.5,1c-0.9,0-1.6-0.3-2.1-0.8c-0.5-0.5-0.7-1.3-0.7-2.3v-5.5h1.4v5.5
		c0,1.3,0.5,1.9,1.6,1.9c1.1,0,1.8-0.4,2.2-1.2v-6.1h1.4v8.5h-1.4L101.6,325.9z"/>
	<path fill="#F2F2F2" d="M112.4,322.6c0,1.3-0.3,2.3-0.9,3.1c-0.6,0.8-1.4,1.2-2.4,1.2c-1,0-1.8-0.3-2.4-1v4.1h-1.4v-11.7h1.3
		l0.1,0.9c0.6-0.7,1.4-1.1,2.5-1.1c1,0,1.8,0.4,2.4,1.1c0.6,0.8,0.9,1.8,0.9,3.2V322.6z M110.9,322.4c0-1-0.2-1.7-0.6-2.3
		c-0.4-0.6-1-0.8-1.7-0.8c-0.9,0-1.5,0.4-2,1.2v4c0.4,0.8,1.1,1.2,2,1.2c0.7,0,1.2-0.3,1.7-0.8C110.7,324.3,110.9,323.5,110.9,322.4
		z"/>
	<path fill="#F2F2F2" d="M113.8,322.4c0-1.3,0.3-2.3,0.9-3.1c0.6-0.8,1.4-1.2,2.4-1.2c1,0,1.8,0.3,2.4,1v-4.4h1.4v12h-1.3l-0.1-0.9
		c-0.6,0.7-1.4,1.1-2.4,1.1c-1,0-1.8-0.4-2.4-1.2c-0.6-0.8-0.9-1.8-0.9-3.1V322.4z M115.3,322.6c0,1,0.2,1.7,0.6,2.3
		c0.4,0.5,0.9,0.8,1.6,0.8c0.9,0,1.6-0.4,2-1.2v-3.9c-0.4-0.8-1.1-1.2-2-1.2c-0.7,0-1.3,0.3-1.7,0.8
		C115.5,320.7,115.3,321.5,115.3,322.6z"/>
	<path fill="#F2F2F2" d="M128.4,326.7c-0.1-0.2-0.2-0.5-0.2-0.9c-0.7,0.7-1.5,1-2.4,1c-0.8,0-1.5-0.2-2.1-0.7
		c-0.5-0.5-0.8-1.1-0.8-1.8c0-0.9,0.3-1.6,1-2.1c0.7-0.5,1.6-0.7,2.8-0.7h1.4v-0.7c0-0.5-0.2-0.9-0.5-1.2c-0.3-0.3-0.7-0.4-1.3-0.4
		c-0.5,0-0.9,0.1-1.3,0.4c-0.3,0.3-0.5,0.6-0.5,0.9h-1.5c0-0.4,0.1-0.8,0.4-1.2c0.3-0.4,0.7-0.7,1.2-0.9c0.5-0.2,1.1-0.3,1.7-0.3
		c1,0,1.7,0.2,2.3,0.7c0.6,0.5,0.8,1.2,0.9,2v3.9c0,0.8,0.1,1.4,0.3,1.9v0.1H128.4z M126,325.6c0.5,0,0.9-0.1,1.3-0.4
		s0.7-0.5,0.9-0.9v-1.7h-1.1c-1.8,0-2.7,0.5-2.7,1.6c0,0.5,0.2,0.8,0.5,1.1C125.2,325.5,125.6,325.6,126,325.6z"/>
	<path fill="#F2F2F2" d="M133.9,316.2v2h1.6v1.1h-1.6v5.3c0,0.3,0.1,0.6,0.2,0.8s0.4,0.3,0.7,0.3c0.2,0,0.4,0,0.7-0.1v1.2
		c-0.4,0.1-0.8,0.2-1.1,0.2c-0.6,0-1.1-0.2-1.5-0.6s-0.5-0.9-0.5-1.7v-5.2h-1.5v-1.1h1.5v-2H133.9z"/>
	<path fill="#F2F2F2" d="M140.7,326.9c-1.1,0-2.1-0.4-2.8-1.1c-0.7-0.8-1.1-1.8-1.1-3v-0.3c0-0.8,0.2-1.6,0.5-2.2
		c0.3-0.7,0.8-1.2,1.3-1.5c0.6-0.4,1.2-0.6,1.9-0.6c1.1,0,2,0.4,2.6,1.1c0.6,0.7,0.9,1.8,0.9,3.1v0.6h-5.7c0,0.8,0.3,1.5,0.7,2
		c0.5,0.5,1.1,0.8,1.8,0.8c0.5,0,0.9-0.1,1.3-0.3c0.4-0.2,0.7-0.5,0.9-0.8l0.9,0.7C143.1,326.3,142.1,326.9,140.7,326.9z
		 M140.5,319.3c-0.6,0-1.1,0.2-1.5,0.6c-0.4,0.4-0.6,1-0.7,1.8h4.2v-0.1c0-0.7-0.2-1.3-0.6-1.7C141.6,319.5,141.1,319.3,140.5,319.3
		z"/>
	<path fill="#F2F2F2" d="M150.6,324.5c0-0.4-0.1-0.7-0.4-0.9c-0.3-0.2-0.8-0.4-1.5-0.6c-0.7-0.2-1.3-0.3-1.7-0.6s-0.7-0.5-1-0.8
		c-0.2-0.3-0.3-0.7-0.3-1.1c0-0.7,0.3-1.3,0.9-1.8c0.6-0.5,1.3-0.7,2.2-0.7c1,0,1.7,0.2,2.3,0.7c0.6,0.5,0.9,1.1,0.9,1.9h-1.5
		c0-0.4-0.2-0.7-0.5-1c-0.3-0.3-0.8-0.4-1.3-0.4c-0.5,0-0.9,0.1-1.2,0.3c-0.3,0.2-0.4,0.5-0.4,0.9c0,0.3,0.1,0.6,0.4,0.8
		c0.3,0.2,0.8,0.3,1.5,0.5c0.7,0.2,1.3,0.4,1.8,0.6c0.4,0.2,0.8,0.5,1,0.8c0.2,0.3,0.3,0.7,0.3,1.2c0,0.8-0.3,1.4-0.9,1.8
		c-0.6,0.5-1.4,0.7-2.4,0.7c-0.7,0-1.3-0.1-1.8-0.4c-0.5-0.2-0.9-0.6-1.2-1c-0.3-0.4-0.4-0.9-0.4-1.4h1.4c0,0.5,0.2,0.9,0.6,1.2
		c0.4,0.3,0.8,0.4,1.4,0.4c0.5,0,1-0.1,1.3-0.3C150.4,325.1,150.6,324.8,150.6,324.5z"/>
	<path fill="#F2F2F2" d="M86.2,337.5l0,0.9c0.6-0.7,1.5-1.1,2.5-1.1c1.2,0,2,0.5,2.4,1.4c0.3-0.4,0.6-0.7,1.1-1
		c0.5-0.3,1-0.4,1.6-0.4c1.9,0,2.8,1,2.8,2.9v5.7h-1.4v-5.6c0-0.6-0.1-1.1-0.4-1.4c-0.3-0.3-0.7-0.4-1.4-0.4c-0.5,0-1,0.2-1.3,0.5
		c-0.4,0.3-0.6,0.8-0.6,1.3v5.6H90v-5.5c0-1.2-0.6-1.8-1.8-1.8c-0.9,0-1.6,0.4-1.9,1.2v6.2h-1.4v-8.5H86.2z"/>
	<path fill="#F2F2F2" d="M98.5,341.6c0-0.8,0.2-1.6,0.5-2.2c0.3-0.7,0.8-1.2,1.4-1.5c0.6-0.4,1.2-0.5,2-0.5c1.2,0,2.1,0.4,2.8,1.2
		s1.1,1.9,1.1,3.2v0.1c0,0.8-0.2,1.6-0.5,2.2c-0.3,0.7-0.8,1.2-1.4,1.5c-0.6,0.4-1.3,0.5-2,0.5c-1.1,0-2.1-0.4-2.8-1.2
		s-1.1-1.9-1.1-3.2V341.6z M99.9,341.8c0,0.9,0.2,1.7,0.7,2.3c0.4,0.6,1,0.9,1.7,0.9c0.7,0,1.3-0.3,1.8-0.9c0.4-0.6,0.6-1.4,0.6-2.4
		c0-0.9-0.2-1.7-0.7-2.3c-0.4-0.6-1-0.9-1.8-0.9c-0.7,0-1.3,0.3-1.7,0.9C100.1,339.9,99.9,340.7,99.9,341.8z"/>
	<path fill="#F2F2F2" d="M107.6,341.6c0-1.3,0.3-2.3,0.9-3.1c0.6-0.8,1.4-1.2,2.4-1.2c1,0,1.8,0.3,2.4,1v-4.4h1.4v12h-1.3l-0.1-0.9
		c-0.6,0.7-1.4,1.1-2.4,1.1c-1,0-1.8-0.4-2.4-1.2c-0.6-0.8-0.9-1.8-0.9-3.1V341.6z M109.1,341.8c0,1,0.2,1.7,0.6,2.3
		c0.4,0.5,0.9,0.8,1.6,0.8c0.9,0,1.6-0.4,2-1.2v-3.9c-0.4-0.8-1.1-1.2-2-1.2c-0.7,0-1.3,0.3-1.7,0.8
		C109.3,339.9,109.1,340.7,109.1,341.8z"/>
	<path fill="#F2F2F2" d="M120.5,346.1c-1.1,0-2.1-0.4-2.8-1.1c-0.7-0.8-1.1-1.8-1.1-3v-0.3c0-0.8,0.2-1.6,0.5-2.2
		c0.3-0.7,0.8-1.2,1.3-1.5c0.6-0.4,1.2-0.6,1.9-0.6c1.1,0,2,0.4,2.6,1.1c0.6,0.7,0.9,1.8,0.9,3.1v0.6h-5.7c0,0.8,0.3,1.5,0.7,2
		c0.5,0.5,1.1,0.8,1.8,0.8c0.5,0,0.9-0.1,1.3-0.3c0.4-0.2,0.7-0.5,0.9-0.8l0.9,0.7C123,345.5,121.9,346.1,120.5,346.1z M120.3,338.5
		c-0.6,0-1.1,0.2-1.5,0.6c-0.4,0.4-0.6,1-0.7,1.8h4.2v-0.1c0-0.7-0.2-1.3-0.6-1.7C121.4,338.7,120.9,338.5,120.3,338.5z"/>
	<path fill="#F2F2F2" d="M127,345.9h-1.4v-12h1.4V345.9z"/>
</g>
<g>
	<path fill="#F2F2F2" d="M461.5,78.1l0,0.9c0.6-0.7,1.5-1.1,2.5-1.1c1.2,0,2,0.5,2.4,1.4c0.3-0.4,0.6-0.7,1.1-1
		c0.4-0.3,1-0.4,1.6-0.4c1.9,0,2.8,1,2.8,2.9v5.7h-1.4V81c0-0.6-0.1-1.1-0.4-1.4c-0.3-0.3-0.7-0.4-1.4-0.4c-0.5,0-1,0.2-1.3,0.5
		c-0.4,0.3-0.6,0.8-0.6,1.3v5.6h-1.5v-5.5c0-1.2-0.6-1.8-1.8-1.8c-0.9,0-1.6,0.4-1.9,1.2v6.2h-1.4v-8.5H461.5z"/>
	<path fill="#F2F2F2" d="M473.8,82.3c0-0.8,0.2-1.6,0.5-2.2c0.3-0.7,0.8-1.2,1.4-1.5c0.6-0.4,1.2-0.5,2-0.5c1.2,0,2.1,0.4,2.8,1.2
		s1.1,1.9,1.1,3.2v0.1c0,0.8-0.2,1.6-0.5,2.2c-0.3,0.7-0.8,1.2-1.4,1.5s-1.3,0.5-2,0.5c-1.1,0-2.1-0.4-2.8-1.2s-1.1-1.9-1.1-3.2
		V82.3z M475.2,82.5c0,0.9,0.2,1.7,0.7,2.3c0.4,0.6,1,0.9,1.7,0.9c0.7,0,1.3-0.3,1.8-0.9c0.4-0.6,0.6-1.4,0.6-2.4
		c0-0.9-0.2-1.7-0.7-2.3c-0.4-0.6-1-0.9-1.8-0.9c-0.7,0-1.3,0.3-1.7,0.9S475.2,81.4,475.2,82.5z"/>
	<path fill="#F2F2F2" d="M482.9,82.3c0-1.3,0.3-2.3,0.9-3.1c0.6-0.8,1.4-1.2,2.4-1.2c1,0,1.8,0.3,2.4,1v-4.4h1.4v12h-1.3l-0.1-0.9
		c-0.6,0.7-1.4,1.1-2.4,1.1c-1,0-1.8-0.4-2.4-1.2s-0.9-1.8-0.9-3.1V82.3z M484.4,82.5c0,1,0.2,1.7,0.6,2.3c0.4,0.5,0.9,0.8,1.6,0.8
		c0.9,0,1.6-0.4,2-1.2v-3.9c-0.4-0.8-1.1-1.2-2-1.2c-0.7,0-1.3,0.3-1.7,0.8C484.6,80.6,484.4,81.4,484.4,82.5z"/>
	<path fill="#F2F2F2" d="M495.8,86.8c-1.1,0-2.1-0.4-2.8-1.1s-1.1-1.8-1.1-3v-0.3c0-0.8,0.2-1.6,0.5-2.2s0.8-1.2,1.3-1.5
		c0.6-0.4,1.2-0.6,1.9-0.6c1.1,0,2,0.4,2.6,1.1s0.9,1.8,0.9,3.1v0.6h-5.7c0,0.8,0.3,1.5,0.7,2c0.5,0.5,1.1,0.8,1.8,0.8
		c0.5,0,0.9-0.1,1.3-0.3c0.4-0.2,0.7-0.5,0.9-0.8l0.9,0.7C498.3,86.2,497.2,86.8,495.8,86.8z M495.6,79.2c-0.6,0-1.1,0.2-1.5,0.6
		c-0.4,0.4-0.6,1-0.7,1.8h4.2v-0.1c0-0.7-0.2-1.3-0.6-1.7C496.7,79.4,496.2,79.2,495.6,79.2z"/>
	<path fill="#F2F2F2" d="M502.3,86.6h-1.4v-12h1.4V86.6z"/>
	<path fill="#F2F2F2" d="M513.8,85.8c-0.6,0.7-1.4,1-2.5,1c-0.9,0-1.6-0.3-2.1-0.8c-0.5-0.5-0.7-1.3-0.7-2.3v-5.5h1.4v5.5
		c0,1.3,0.5,1.9,1.6,1.9c1.1,0,1.8-0.4,2.2-1.2v-6.1h1.4v8.5h-1.4L513.8,85.8z"/>
	<path fill="#F2F2F2" d="M524.6,82.5c0,1.3-0.3,2.3-0.9,3.1c-0.6,0.8-1.4,1.2-2.4,1.2c-1,0-1.8-0.3-2.4-1v4.1h-1.4V78.1h1.3l0.1,0.9
		c0.6-0.7,1.4-1.1,2.5-1.1c1,0,1.8,0.4,2.4,1.1c0.6,0.8,0.9,1.8,0.9,3.2V82.5z M523.1,82.3c0-1-0.2-1.7-0.6-2.3s-1-0.8-1.7-0.8
		c-0.9,0-1.5,0.4-2,1.2v4c0.4,0.8,1.1,1.2,2,1.2c0.7,0,1.2-0.3,1.7-0.8C522.9,84.2,523.1,83.4,523.1,82.3z"/>
	<path fill="#F2F2F2" d="M526,82.3c0-1.3,0.3-2.3,0.9-3.1c0.6-0.8,1.4-1.2,2.4-1.2c1,0,1.8,0.3,2.4,1v-4.4h1.4v12h-1.3l-0.1-0.9
		c-0.6,0.7-1.4,1.1-2.4,1.1c-1,0-1.8-0.4-2.4-1.2s-0.9-1.8-0.9-3.1V82.3z M527.5,82.5c0,1,0.2,1.7,0.6,2.3c0.4,0.5,0.9,0.8,1.6,0.8
		c0.9,0,1.6-0.4,2-1.2v-3.9c-0.4-0.8-1.1-1.2-2-1.2c-0.7,0-1.3,0.3-1.7,0.8C527.7,80.6,527.5,81.4,527.5,82.5z"/>
	<path fill="#F2F2F2" d="M540.6,86.6c-0.1-0.2-0.2-0.5-0.2-0.9c-0.7,0.7-1.5,1-2.4,1c-0.8,0-1.5-0.2-2.1-0.7
		c-0.5-0.5-0.8-1.1-0.8-1.8c0-0.9,0.3-1.6,1-2.1c0.7-0.5,1.6-0.7,2.8-0.7h1.4v-0.7c0-0.5-0.2-0.9-0.5-1.2c-0.3-0.3-0.7-0.4-1.3-0.4
		c-0.5,0-0.9,0.1-1.3,0.4c-0.3,0.3-0.5,0.6-0.5,0.9h-1.5c0-0.4,0.1-0.8,0.4-1.2c0.3-0.4,0.7-0.7,1.2-0.9c0.5-0.2,1.1-0.3,1.7-0.3
		c1,0,1.7,0.2,2.3,0.7c0.6,0.5,0.8,1.2,0.9,2v3.9c0,0.8,0.1,1.4,0.3,1.9v0.1H540.6z M538.2,85.5c0.5,0,0.9-0.1,1.3-0.4
		s0.7-0.5,0.9-0.9v-1.7h-1.1c-1.8,0-2.7,0.5-2.7,1.6c0,0.5,0.2,0.8,0.5,1.1C537.4,85.4,537.8,85.5,538.2,85.5z"/>
	<path fill="#F2F2F2" d="M546.1,76.1v2h1.6v1.1h-1.6v5.2c0,0.3,0.1,0.6,0.2,0.8c0.1,0.2,0.4,0.3,0.7,0.3c0.2,0,0.4,0,0.7-0.1v1.2
		c-0.4,0.1-0.8,0.2-1.1,0.2c-0.6,0-1.1-0.2-1.5-0.6s-0.5-0.9-0.5-1.7v-5.2h-1.5v-1.1h1.5v-2H546.1z"/>
	<path fill="#F2F2F2" d="M552.9,86.8c-1.1,0-2.1-0.4-2.8-1.1s-1.1-1.8-1.1-3v-0.3c0-0.8,0.2-1.6,0.5-2.2s0.8-1.2,1.3-1.5
		c0.6-0.4,1.2-0.6,1.9-0.6c1.1,0,2,0.4,2.6,1.1s0.9,1.8,0.9,3.1v0.6h-5.7c0,0.8,0.3,1.5,0.7,2c0.5,0.5,1.1,0.8,1.8,0.8
		c0.5,0,0.9-0.1,1.3-0.3c0.4-0.2,0.7-0.5,0.9-0.8l0.9,0.7C555.3,86.2,554.3,86.8,552.9,86.8z M552.7,79.2c-0.6,0-1.1,0.2-1.5,0.6
		c-0.4,0.4-0.6,1-0.7,1.8h4.2v-0.1c0-0.7-0.2-1.3-0.6-1.7C553.8,79.4,553.3,79.2,552.7,79.2z"/>
	<path fill="#F2F2F2" d="M562.8,84.4c0-0.4-0.1-0.7-0.4-0.9c-0.3-0.2-0.8-0.4-1.5-0.6c-0.7-0.2-1.3-0.3-1.7-0.6s-0.7-0.5-1-0.8
		c-0.2-0.3-0.3-0.7-0.3-1.1c0-0.7,0.3-1.3,0.9-1.8s1.3-0.7,2.2-0.7c1,0,1.7,0.2,2.3,0.7c0.6,0.5,0.9,1.1,0.9,1.9h-1.5
		c0-0.4-0.2-0.7-0.5-1s-0.8-0.4-1.3-0.4c-0.5,0-0.9,0.1-1.2,0.3s-0.4,0.5-0.4,0.9c0,0.3,0.1,0.6,0.4,0.8c0.3,0.2,0.8,0.3,1.5,0.5
		c0.7,0.2,1.3,0.4,1.8,0.6c0.4,0.2,0.8,0.5,1,0.8c0.2,0.3,0.3,0.7,0.3,1.2c0,0.8-0.3,1.4-0.9,1.8c-0.6,0.5-1.4,0.7-2.4,0.7
		c-0.7,0-1.3-0.1-1.8-0.4c-0.5-0.2-0.9-0.6-1.2-1c-0.3-0.4-0.4-0.9-0.4-1.4h1.4c0,0.5,0.2,0.9,0.6,1.2c0.4,0.3,0.8,0.4,1.4,0.4
		c0.5,0,1-0.1,1.3-0.3C562.6,85,562.8,84.7,562.8,84.4z"/>
	<path fill="#F2F2F2" d="M499.8,103.8l2.1-6.5h1.5l-3,8.5h-1.1l-3.1-8.5h1.5L499.8,103.8z"/>
	<path fill="#F2F2F2" d="M504.8,95.1c0-0.2,0.1-0.4,0.2-0.6c0.1-0.2,0.4-0.2,0.6-0.2s0.5,0.1,0.6,0.2c0.1,0.2,0.2,0.4,0.2,0.6
		s-0.1,0.4-0.2,0.6c-0.1,0.2-0.4,0.2-0.6,0.2s-0.5-0.1-0.6-0.2C504.9,95.5,504.8,95.3,504.8,95.1z M506.3,105.8h-1.4v-8.5h1.4V105.8
		z"/>
	<path fill="#F2F2F2" d="M512.2,106c-1.1,0-2.1-0.4-2.8-1.1s-1.1-1.8-1.1-3v-0.3c0-0.8,0.2-1.6,0.5-2.2s0.8-1.2,1.3-1.5
		c0.6-0.4,1.2-0.6,1.9-0.6c1.1,0,2,0.4,2.6,1.1s0.9,1.8,0.9,3.1v0.6h-5.7c0,0.8,0.3,1.5,0.7,2c0.5,0.5,1.1,0.8,1.8,0.8
		c0.5,0,0.9-0.1,1.3-0.3c0.4-0.2,0.7-0.5,0.9-0.8l0.9,0.7C514.6,105.4,513.6,106,512.2,106z M512,98.4c-0.6,0-1.1,0.2-1.5,0.6
		c-0.4,0.4-0.6,1-0.7,1.8h4.2v-0.1c0-0.7-0.2-1.3-0.6-1.7C513.1,98.6,512.6,98.4,512,98.4z"/>
	<path fill="#F2F2F2" d="M524.6,103.8l1.6-6.5h1.4l-2.5,8.5h-1.2l-2.1-6.4l-2,6.4h-1.2l-2.5-8.5h1.4l1.7,6.3l2-6.3h1.2L524.6,103.8z
		"/>
</g>
<g>
	<path fill="#F2F2F2" d="M133.5,204.6c1.1,0,2-0.3,2.7-0.9s1.1-1.4,1.1-2.3h4c0,1.2-0.4,2.3-1.1,3.3s-1.6,1.8-2.8,2.4
		s-2.5,0.9-3.8,0.9c-2.7,0-4.8-0.9-6.3-2.6s-2.3-4.1-2.3-7.1v-0.4c0-2.9,0.8-5.2,2.3-7s3.7-2.6,6.3-2.6c2.3,0,4.1,0.7,5.5,2
		s2.2,3,2.2,5.2h-4c0-1.1-0.4-2-1.1-2.7s-1.6-1.1-2.7-1.1c-1.4,0-2.4,0.5-3.2,1.5s-1.1,2.5-1.1,4.6v0.7c0,2.1,0.4,3.6,1.1,4.6
		S132.1,204.6,133.5,204.6z"/>
	<path fill="#F2F2F2" d="M143.7,198c0-1.9,0.4-3.5,1.1-5s1.8-2.6,3.1-3.4s2.9-1.2,4.6-1.2c2.6,0,4.6,0.8,6.2,2.5s2.5,3.8,2.6,6.6
		l0,1c0,1.9-0.4,3.6-1.1,5s-1.8,2.6-3.1,3.4s-2.9,1.2-4.6,1.2c-2.7,0-4.8-0.9-6.4-2.7s-2.4-4.2-2.4-7.1V198z M148,198.3
		c0,2,0.4,3.5,1.2,4.6s1.9,1.7,3.4,1.7s2.6-0.6,3.4-1.7s1.2-2.8,1.2-4.9c0-1.9-0.4-3.4-1.2-4.6s-1.9-1.7-3.4-1.7
		c-1.4,0-2.5,0.6-3.3,1.7S148,196.1,148,198.3z"/>
	<path fill="#F2F2F2" d="M169,188.6l0.1,2.2c1.4-1.7,3.3-2.5,5.5-2.5c4,0,6,2.3,6,6.8v12.6h-4.3v-12.3c0-1.2-0.3-2.1-0.8-2.7
		s-1.4-0.9-2.6-0.9c-1.7,0-3,0.8-3.8,2.3v13.5H165v-19H169z"/>
	<path fill="#F2F2F2" d="M190.4,184v4.6h3.4v3.2h-3.4v10.6c0,0.7,0.1,1.3,0.4,1.6s0.8,0.5,1.5,0.5c0.5,0,1-0.1,1.5-0.2v3.3
		c-1,0.3-1.9,0.4-2.8,0.4c-3.3,0-4.9-1.8-4.9-5.4v-10.8H183v-3.2h3.1V184H190.4z"/>
	<path fill="#F2F2F2" d="M197,183.7c0-0.7,0.2-1.2,0.6-1.6s1-0.7,1.8-0.7s1.4,0.2,1.8,0.7s0.6,1,0.6,1.6c0,0.6-0.2,1.2-0.6,1.6
		s-1,0.6-1.8,0.6s-1.4-0.2-1.8-0.6S197,184.3,197,183.7z M201.6,207.7h-4.3v-19h4.3V207.7z"/>
	<path fill="#F2F2F2" d="M210.2,188.6l0.1,2.2c1.4-1.7,3.3-2.5,5.5-2.5c4,0,6,2.3,6,6.8v12.6h-4.3v-12.3c0-1.2-0.3-2.1-0.8-2.7
		s-1.4-0.9-2.6-0.9c-1.7,0-3,0.8-3.8,2.3v13.5h-4.3v-19H210.2z"/>
	<path fill="#F2F2F2" d="M237.8,205.8c-1.3,1.5-3,2.2-5.3,2.2c-2.1,0-3.6-0.6-4.7-1.8s-1.6-3-1.6-5.2v-12.3h4.3v12.3
		c0,2.4,1,3.6,3,3.6c2.1,0,3.5-0.7,4.2-2.2v-13.7h4.3v19h-4L237.8,205.8z"/>
	<path fill="#F2F2F2" d="M245.4,198c0-1.9,0.4-3.5,1.1-5s1.8-2.6,3.1-3.4s2.9-1.2,4.6-1.2c2.6,0,4.6,0.8,6.2,2.5s2.5,3.8,2.6,6.6
		l0,1c0,1.9-0.4,3.6-1.1,5s-1.8,2.6-3.1,3.4s-2.9,1.2-4.6,1.2c-2.7,0-4.8-0.9-6.4-2.7s-2.4-4.2-2.4-7.1V198z M249.7,198.3
		c0,2,0.4,3.5,1.2,4.6s1.9,1.7,3.4,1.7s2.6-0.6,3.4-1.7s1.2-2.8,1.2-4.9c0-1.9-0.4-3.4-1.2-4.6s-1.9-1.7-3.4-1.7
		c-1.4,0-2.5,0.6-3.3,1.7S249.7,196.1,249.7,198.3z"/>
	<path fill="#F2F2F2" d="M278.3,205.8c-1.3,1.5-3,2.2-5.3,2.2c-2.1,0-3.6-0.6-4.7-1.8s-1.6-3-1.6-5.2v-12.3h4.3v12.3
		c0,2.4,1,3.6,3,3.6c2.1,0,3.5-0.7,4.2-2.2v-13.7h4.3v19h-4L278.3,205.8z"/>
	<path fill="#F2F2F2" d="M297.4,202.5c0-0.8-0.3-1.3-0.9-1.7c-0.6-0.4-1.7-0.8-3.1-1.1s-2.7-0.7-3.6-1.2c-2.1-1-3.2-2.5-3.2-4.5
		c0-1.6,0.7-3,2.1-4.1s3.1-1.7,5.3-1.7c2.3,0,4.1,0.6,5.5,1.7s2.1,2.6,2.1,4.4h-4.3c0-0.8-0.3-1.5-0.9-2s-1.4-0.8-2.4-0.8
		c-0.9,0-1.7,0.2-2.3,0.7s-0.9,1-0.9,1.7c0,0.7,0.3,1.2,0.8,1.5s1.7,0.7,3.3,1.1s3,0.8,3.9,1.3s1.7,1.1,2.1,1.8s0.7,1.6,0.7,2.6
		c0,1.7-0.7,3.1-2.1,4.2s-3.3,1.6-5.6,1.6c-1.6,0-2.9-0.3-4.2-0.8s-2.2-1.3-2.8-2.3s-1-2-1-3.2h4.1c0.1,1,0.4,1.8,1.1,2.3
		s1.6,0.8,2.8,0.8c1.1,0,2-0.2,2.6-0.6S297.4,203.2,297.4,202.5z"/>
	<path fill="#F2F2F2" d="M309.9,207.7h-4.3v-27h4.3V207.7z"/>
	<path fill="#F2F2F2" d="M321.2,201.5l3.9-12.9h4.6l-7.6,21.9c-1.2,3.2-3.1,4.8-5.9,4.8c-0.6,0-1.3-0.1-2.1-0.3v-3.3l0.8,0.1
		c1.1,0,1.9-0.2,2.4-0.6c0.5-0.4,1-1.1,1.3-2l0.6-1.6l-6.7-18.9h4.6L321.2,201.5z"/>
	<path fill="#F2F2F2" d="M352.5,205.8c-1.3,1.5-3,2.2-5.3,2.2c-2.1,0-3.6-0.6-4.7-1.8s-1.6-3-1.6-5.2v-12.3h4.3v12.3
		c0,2.4,1,3.6,3,3.6c2.1,0,3.5-0.7,4.2-2.2v-13.7h4.3v19h-4L352.5,205.8z"/>
	<path fill="#F2F2F2" d="M377.7,198.3c0,2.9-0.7,5.3-2,7s-3.1,2.6-5.4,2.6c-2.1,0-3.8-0.7-5-2.1v9H361v-26.3h3.9l0.2,1.9
		c1.3-1.5,3-2.3,5.1-2.3c2.3,0,4.1,0.9,5.5,2.6s2,4.1,2,7.2V198.3z M373.4,198c0-1.9-0.4-3.4-1.1-4.5s-1.8-1.7-3.2-1.7
		c-1.7,0-3,0.7-3.8,2.2v8.4c0.8,1.5,2,2.2,3.8,2.2c1.4,0,2.4-0.5,3.2-1.6S373.4,200.2,373.4,198z"/>
	<path fill="#F2F2F2" d="M380.5,198c0-2.9,0.7-5.3,2-7.1s3.2-2.7,5.5-2.7c2,0,3.6,0.7,4.9,2.1v-9.7h4.3v27h-3.9l-0.2-2
		c-1.3,1.5-3,2.3-5.1,2.3c-2.2,0-4-0.9-5.4-2.7S380.5,201.1,380.5,198z M384.8,198.4c0,1.9,0.4,3.4,1.1,4.5s1.8,1.6,3.2,1.6
		c1.7,0,3-0.8,3.8-2.3v-8.1c-0.8-1.5-2.1-2.3-3.8-2.3c-1.4,0-2.4,0.5-3.2,1.6S384.8,196.2,384.8,198.4z"/>
	<path fill="#F2F2F2" d="M413,207.7c-0.2-0.4-0.4-1-0.5-1.8c-1.4,1.4-3,2.1-5,2.1c-1.9,0-3.5-0.5-4.7-1.6s-1.8-2.4-1.8-4
		c0-2,0.8-3.6,2.3-4.7s3.7-1.6,6.5-1.6h2.6v-1.2c0-1-0.3-1.8-0.8-2.4s-1.4-0.9-2.5-0.9c-1,0-1.8,0.2-2.4,0.7s-0.9,1.1-0.9,1.9h-4.3
		c0-1,0.3-2,1-2.9s1.6-1.6,2.8-2.1s2.5-0.8,4-0.8c2.2,0,4,0.6,5.3,1.7s2,2.7,2,4.7v8.6c0,1.7,0.2,3.1,0.7,4.1v0.3H413z M408.3,204.6
		c0.8,0,1.6-0.2,2.4-0.6s1.3-1,1.7-1.7v-3.6H410c-1.6,0-2.8,0.3-3.6,0.8s-1.2,1.3-1.2,2.3c0,0.8,0.3,1.5,0.8,2
		S407.4,204.6,408.3,204.6z"/>
	<path fill="#F2F2F2" d="M426.4,184v4.6h3.4v3.2h-3.4v10.6c0,0.7,0.1,1.3,0.4,1.6s0.8,0.5,1.5,0.5c0.5,0,1-0.1,1.5-0.2v3.3
		c-1,0.3-1.9,0.4-2.8,0.4c-3.3,0-4.9-1.8-4.9-5.4v-10.8H419v-3.2h3.1V184H426.4z"/>
	<path fill="#F2F2F2" d="M441.4,208c-2.7,0-4.9-0.9-6.6-2.6s-2.5-4-2.5-6.8v-0.5c0-1.9,0.4-3.6,1.1-5.1s1.8-2.7,3.1-3.5
		s2.8-1.2,4.4-1.2c2.6,0,4.6,0.8,6,2.5s2.1,4,2.1,7v1.7h-12.4c0.1,1.6,0.7,2.8,1.6,3.7s2.1,1.4,3.5,1.4c2,0,3.6-0.8,4.8-2.4l2.3,2.2
		c-0.8,1.1-1.8,2-3,2.6S443,208,441.4,208z M440.9,191.7c-1.2,0-2.1,0.4-2.8,1.2s-1.2,2-1.4,3.4h8.1v-0.3c-0.1-1.4-0.5-2.5-1.1-3.2
		S442.1,191.7,440.9,191.7z"/>
	<path fill="#F2F2F2" d="M451.6,198c0-2.9,0.7-5.3,2-7.1s3.2-2.7,5.5-2.7c2,0,3.6,0.7,4.9,2.1v-9.7h4.3v27h-3.9l-0.2-2
		c-1.3,1.5-3,2.3-5.1,2.3c-2.2,0-4-0.9-5.4-2.7S451.6,201.1,451.6,198z M455.8,198.4c0,1.9,0.4,3.4,1.1,4.5s1.8,1.6,3.2,1.6
		c1.7,0,3-0.8,3.8-2.3v-8.1c-0.8-1.5-2.1-2.3-3.8-2.3c-1.4,0-2.4,0.5-3.2,1.6S455.8,196.2,455.8,198.4z"/>
</g>
</svg>
