<?xml version="1.0" encoding="utf-8"?>
<!-- Generator: Adobe Illustrator 16.0.0, SVG Export Plug-In . SVG Version: 6.00 Build 0)  -->
<!DOCTYPE svg PUBLIC "-//W3C//DTD SVG 1.1//EN" "http://www.w3.org/Graphics/SVG/1.1/DTD/svg11.dtd">
<svg version="1.1" xmlns="http://www.w3.org/2000/svg" xmlns:xlink="http://www.w3.org/1999/xlink" x="0px" y="0px" width="600px"
	 height="400px" viewBox="0 0 600 400" enable-background="new 0 0 600 400" xml:space="preserve">
<g id="Layer_1">
	<rect x="-7" y="-6.5" fill="#36474F" width="615" height="413"/>
</g>
<g id="Layer_2">
	<g>
		<g>
			<g>
				<polyline fill="none" stroke="#FFFFFF" stroke-width="0.8698" stroke-miterlimit="10" points="492.1,378.4 492.1,381 489.5,381 
									"/>
				
					<line fill="none" stroke="#FFFFFF" stroke-width="0.8698" stroke-miterlimit="10" stroke-dasharray="5.2061,5.2061" x1="484.2" y1="381" x2="80.8" y2="381"/>
				<polyline fill="none" stroke="#FFFFFF" stroke-width="0.8698" stroke-miterlimit="10" points="78.2,381 75.6,381 75.6,378.4 
									"/>
				
					<line fill="none" stroke="#FFFFFF" stroke-width="0.8698" stroke-miterlimit="10" stroke-dasharray="5.1534,5.1534" x1="75.6" y1="373.2" x2="75.6" y2="35.7"/>
				<polyline fill="none" stroke="#FFFFFF" stroke-width="0.8698" stroke-miterlimit="10" points="75.6,33.1 75.6,30.5 78.2,30.5 
									"/>
				
					<line fill="none" stroke="#FFFFFF" stroke-width="0.8698" stroke-miterlimit="10" stroke-dasharray="5.2061,5.2061" x1="83.4" y1="30.5" x2="486.9" y2="30.5"/>
				<polyline fill="none" stroke="#FFFFFF" stroke-width="0.8698" stroke-miterlimit="10" points="489.5,30.5 492.1,30.5 
					492.1,33.1 				"/>
				
					<line fill="none" stroke="#FFFFFF" stroke-width="0.8698" stroke-miterlimit="10" stroke-dasharray="5.1534,5.1534" x1="492.1" y1="38.3" x2="492.1" y2="375.8"/>
			</g>
		</g>
		<g>
			<rect x="243.3" y="19" fill="#36474F" width="81" height="23"/>
			<g>
				<path fill="#F2F2F2" d="M255.1,23.1l4.1,10.9l4.1-10.9h3.2v14.2h-2.5v-4.7l0.2-6.3l-4.2,11h-1.8l-4.2-10.9l0.2,6.3v4.7h-2.5
					V23.1H255.1z"/>
				<path fill="#F2F2F2" d="M268.8,32c0-1,0.2-2,0.6-2.8s1-1.5,1.7-1.9s1.6-0.7,2.6-0.7c1.4,0,2.6,0.5,3.5,1.4s1.4,2.1,1.4,3.7
					l0,0.6c0,1-0.2,2-0.6,2.8s-1,1.5-1.7,1.9s-1.6,0.7-2.6,0.7c-1.5,0-2.7-0.5-3.6-1.5s-1.3-2.3-1.3-4V32z M271.1,32.2
					c0,1.1,0.2,1.9,0.7,2.6s1.1,0.9,1.9,0.9s1.4-0.3,1.9-0.9s0.7-1.5,0.7-2.7c0-1.1-0.2-1.9-0.7-2.5s-1.1-0.9-1.9-0.9
					c-0.8,0-1.4,0.3-1.8,0.9S271.1,30.9,271.1,32.2z"/>
				<path fill="#F2F2F2" d="M280.2,32c0-1.6,0.4-2.9,1.1-3.9s1.8-1.5,3-1.5c1.1,0,2,0.4,2.7,1.2v-5.4h2.4v15h-2.1l-0.1-1.1
					c-0.7,0.9-1.7,1.3-2.8,1.3c-1.2,0-2.2-0.5-3-1.5S280.2,33.7,280.2,32z M282.5,32.2c0,1.1,0.2,1.9,0.6,2.5s1,0.9,1.8,0.9
					c1,0,1.7-0.4,2.1-1.3v-4.5c-0.4-0.8-1.1-1.3-2.1-1.3c-0.8,0-1.4,0.3-1.8,0.9S282.5,31,282.5,32.2z"/>
				<path fill="#F2F2F2" d="M298.3,36.3c-0.7,0.8-1.7,1.2-3,1.2c-1.1,0-2-0.3-2.6-1c-0.6-0.7-0.9-1.6-0.9-2.9v-6.8h2.4v6.8
					c0,1.3,0.6,2,1.7,2c1.2,0,1.9-0.4,2.3-1.2v-7.6h2.4v10.6h-2.2L298.3,36.3z"/>
				<path fill="#F2F2F2" d="M305.5,37.3h-2.4v-15h2.4V37.3z"/>
				<path fill="#F2F2F2" d="M312.8,37.5c-1.5,0-2.7-0.5-3.7-1.4c-0.9-0.9-1.4-2.2-1.4-3.8V32c0-1.1,0.2-2,0.6-2.8
					c0.4-0.8,1-1.5,1.7-1.9c0.7-0.5,1.6-0.7,2.5-0.7c1.4,0,2.6,0.5,3.3,1.4c0.8,0.9,1.2,2.2,1.2,3.9v1h-6.9c0.1,0.9,0.4,1.6,0.9,2.1
					c0.5,0.5,1.2,0.8,1.9,0.8c1.1,0,2-0.4,2.7-1.3l1.3,1.2c-0.4,0.6-1,1.1-1.7,1.5C314.4,37.4,313.6,37.5,312.8,37.5z M312.5,28.5
					c-0.7,0-1.2,0.2-1.6,0.7s-0.7,1.1-0.8,1.9h4.5v-0.2c-0.1-0.8-0.3-1.4-0.6-1.8S313.1,28.5,312.5,28.5z"/>
			</g>
		</g>
	</g>
	<g>
		<g>
			<path fill="#F2F2F2" d="M400.5,366c0.4,0,0.7-0.1,1-0.4s0.4-0.5,0.5-0.9h1c0,0.4-0.1,0.7-0.4,1s-0.5,0.6-0.9,0.8
				s-0.8,0.3-1.2,0.3c-0.9,0-1.6-0.3-2.1-0.9s-0.8-1.4-0.8-2.4v-0.2c0-0.6,0.1-1.2,0.3-1.6s0.6-0.9,1-1.1s0.9-0.4,1.5-0.4
				c0.7,0,1.3,0.2,1.8,0.6s0.7,1,0.8,1.7h-1c0-0.4-0.2-0.7-0.5-1s-0.6-0.4-1-0.4c-0.6,0-1,0.2-1.3,0.6s-0.5,1-0.5,1.7v0.2
				c0,0.7,0.2,1.3,0.5,1.7S400,366,400.5,366z"/>
			<path fill="#F2F2F2" d="M404,363.5c0-0.6,0.1-1.2,0.4-1.7s0.6-0.9,1-1.1s0.9-0.4,1.5-0.4c0.9,0,1.6,0.3,2.1,0.9s0.8,1.4,0.8,2.4
				v0.1c0,0.6-0.1,1.2-0.4,1.7s-0.6,0.9-1,1.1s-0.9,0.4-1.5,0.4c-0.9,0-1.6-0.3-2.1-0.9S404,364.6,404,363.5L404,363.5z
				 M405.1,363.7c0,0.7,0.2,1.3,0.5,1.7s0.8,0.6,1.3,0.6c0.6,0,1-0.2,1.3-0.6s0.5-1,0.5-1.8c0-0.7-0.2-1.3-0.5-1.7s-0.8-0.6-1.3-0.6
				c-0.5,0-1,0.2-1.3,0.6S405.1,362.9,405.1,363.7z"/>
			<path fill="#F2F2F2" d="M412.1,360.4l0,0.8c0.5-0.6,1.1-0.9,1.9-0.9c1.3,0,2,0.8,2,2.3v4.2H415v-4.2c0-0.5-0.1-0.8-0.3-1
				s-0.5-0.3-1-0.3c-0.4,0-0.7,0.1-0.9,0.3s-0.5,0.4-0.6,0.7v4.5h-1.1v-6.3H412.1z"/>
			<path fill="#F2F2F2" d="M418.3,366.8v-5.5h-1v-0.8h1v-0.7c0-0.7,0.2-1.2,0.5-1.6s0.9-0.6,1.5-0.6c0.3,0,0.5,0,0.7,0.1l-0.1,0.9
				c-0.2,0-0.4-0.1-0.6-0.1c-0.4,0-0.6,0.1-0.8,0.3s-0.3,0.5-0.3,0.9v0.7h1.4v0.8h-1.4v5.5H418.3z"/>
			<path fill="#F2F2F2" d="M421.9,358.7c0-0.2,0.1-0.3,0.2-0.4s0.3-0.2,0.5-0.2s0.4,0.1,0.5,0.2s0.2,0.3,0.2,0.4s-0.1,0.3-0.2,0.4
				s-0.3,0.2-0.5,0.2s-0.4-0.1-0.5-0.2S421.9,358.9,421.9,358.7z M423.1,366.8H422v-6.3h1.1V366.8z"/>
			<path fill="#F2F2F2" d="M424.6,363.5c0-1,0.2-1.8,0.7-2.4s1.1-0.9,1.8-0.9c0.8,0,1.4,0.3,1.8,0.8l0.1-0.7h1v6.2
				c0,0.8-0.2,1.5-0.7,1.9s-1.1,0.7-2,0.7c-0.5,0-0.9-0.1-1.3-0.3s-0.8-0.5-1-0.8l0.6-0.7c0.5,0.6,1,0.9,1.7,0.9
				c0.5,0,0.9-0.1,1.2-0.4s0.4-0.7,0.4-1.3v-0.5c-0.4,0.5-1,0.8-1.8,0.8c-0.7,0-1.3-0.3-1.8-0.9S424.6,364.6,424.6,363.5z
				 M425.6,363.7c0,0.7,0.1,1.3,0.4,1.7s0.7,0.6,1.2,0.6c0.7,0,1.2-0.3,1.5-0.9v-2.9c-0.3-0.6-0.8-0.9-1.5-0.9
				c-0.5,0-0.9,0.2-1.2,0.6S425.6,362.9,425.6,363.7z"/>
		</g>
		<g>
			<path fill="#F2F2F2" d="M432.1,323.2v27.2c0,1.3-1,2.3-2.3,2.3h-31.7c-1.3,0-2.3-1-2.3-2.3v-37.8c0-1.3,1-2.3,2.3-2.3h21.2
				c1.3,0,3,0.7,3.9,1.6l7.4,7.4C431.4,320.2,432.1,321.9,432.1,323.2z M429.1,325.5h-9.8c-1.3,0-2.3-1-2.3-2.3v-9.8h-18.1v36.3
				h30.2V325.5z M408.2,328.3l1.2,0.9c0.3,0.3,0.4,0.7,0.1,1.1l-4.3,5.7l4.3,5.7c0.3,0.3,0.2,0.8-0.1,1.1l-1.2,0.9
				c-0.3,0.3-0.8,0.2-1.1-0.1l-5.3-7.1c-0.2-0.3-0.2-0.6,0-0.9l5.3-7.1C407.4,328.1,407.9,328.1,408.2,328.3z M410.8,345.6l3.3-19.6
				c0.1-0.4,0.5-0.7,0.9-0.6l1.5,0.2c0.4,0.1,0.7,0.5,0.6,0.9l-3.3,19.6c-0.1,0.4-0.5,0.7-0.9,0.6l-1.5-0.2
				C411,346.4,410.8,346,410.8,345.6z M426.1,336.5l-5.3,7.1c-0.3,0.3-0.7,0.4-1.1,0.1l-1.2-0.9c-0.3-0.3-0.4-0.7-0.1-1.1l4.3-5.7
				l-4.3-5.7c-0.3-0.3-0.2-0.8,0.1-1.1l1.2-0.9c0.3-0.3,0.8-0.2,1.1,0.1l5.3,7.1C426.3,335.8,426.3,336.2,426.1,336.5z M420,322.4
				h8.9c-0.1-0.4-0.4-0.8-0.5-1l-7.4-7.4c-0.2-0.2-0.6-0.4-1-0.5V322.4z"/>
		</g>
	</g>
	<g>
		<g>
			<g>
				<path fill="#F2F2F2" d="M575.3,321.6v28.7c0,1.3-1,2.3-2.3,2.3h-22.7c-1.3,0-2.3-1-2.3-2.3v-6.8h-12.8c-1.3,0-2.3-1-2.3-2.3
					v-15.9c0-1.3,0.7-3,1.6-3.9l9.6-9.6c0.9-0.9,2.6-1.6,3.9-1.6h9.8c1.3,0,2.3,1,2.3,2.3v7.7c0.9-0.5,2.1-0.9,3-0.9h9.8
					C574.3,319.3,575.3,320.4,575.3,321.6z M557.2,323.1v-9.8h-9.1v9.8c0,1.3-1,2.3-2.3,2.3H536v15.1h12.1v-6c0-1.3,0.7-3,1.6-3.9
					L557.2,323.1z M538,322.4h7.1v-7.1L538,322.4z M572.3,322.4h-9.1v9.8c0,1.3-1,2.3-2.3,2.3h-9.8v15.1h21.2V322.4z M553.1,331.4
					h7.1v-7.1L553.1,331.4z"/>
			</g>
		</g>
		<g>
			<path fill="#F2F2F2" d="M548.8,366.8c-0.1-0.1-0.1-0.3-0.2-0.7c-0.5,0.5-1.1,0.8-1.8,0.8c-0.6,0-1.1-0.2-1.5-0.5
				s-0.6-0.8-0.6-1.3c0-0.7,0.3-1.2,0.8-1.5s1.2-0.5,2.1-0.5h1.1v-0.5c0-0.4-0.1-0.7-0.3-0.9s-0.6-0.3-1-0.3c-0.4,0-0.7,0.1-1,0.3
				s-0.4,0.4-0.4,0.7h-1.1c0-0.3,0.1-0.6,0.3-0.9s0.5-0.5,0.9-0.7s0.8-0.3,1.3-0.3c0.7,0,1.3,0.2,1.7,0.5s0.6,0.9,0.6,1.5v2.9
				c0,0.6,0.1,1,0.2,1.4v0.1H548.8z M547,366c0.3,0,0.7-0.1,1-0.3s0.5-0.4,0.7-0.7v-1.3h-0.8c-1.3,0-2,0.4-2,1.2
				c0,0.3,0.1,0.6,0.3,0.8S546.7,366,547,366z"/>
			<path fill="#F2F2F2" d="M556.8,363.7c0,1-0.2,1.7-0.7,2.3s-1,0.9-1.8,0.9c-0.8,0-1.4-0.2-1.8-0.7v3.1h-1.1v-8.8h1l0.1,0.7
				c0.4-0.5,1.1-0.8,1.8-0.8c0.8,0,1.4,0.3,1.8,0.9S556.8,362.6,556.8,363.7L556.8,363.7z M555.7,363.6c0-0.7-0.2-1.3-0.5-1.7
				s-0.7-0.6-1.3-0.6c-0.7,0-1.1,0.3-1.5,0.9v3c0.3,0.6,0.8,0.9,1.5,0.9c0.5,0,0.9-0.2,1.2-0.6S555.7,364.4,555.7,363.6z"/>
			<path fill="#F2F2F2" d="M563.5,363.7c0,1-0.2,1.7-0.7,2.3s-1,0.9-1.8,0.9c-0.8,0-1.4-0.2-1.8-0.7v3.1h-1.1v-8.8h1l0.1,0.7
				c0.4-0.5,1.1-0.8,1.8-0.8c0.8,0,1.4,0.3,1.8,0.9S563.5,362.6,563.5,363.7L563.5,363.7z M562.4,363.6c0-0.7-0.2-1.3-0.5-1.7
				s-0.7-0.6-1.3-0.6c-0.7,0-1.1,0.3-1.5,0.9v3c0.3,0.6,0.8,0.9,1.5,0.9c0.5,0,0.9-0.2,1.2-0.6S562.4,364.4,562.4,363.6z"/>
		</g>
	</g>
	<rect x="87.9" y="47" opacity="0.2" width="183.4" height="104.6"/>
	<g>
		<g>
			<path fill="#E51B4A" d="M139.3,100.8V128c0,1.3-1,2.3-2.3,2.3h-31.7c-1.3,0-2.3-1-2.3-2.3V90.2c0-1.3,1-2.3,2.3-2.3h21.2
				c1.3,0,3,0.7,3.9,1.6l7.4,7.4C138.6,97.8,139.3,99.5,139.3,100.8z M136.3,103.1h-9.8c-1.3,0-2.3-1-2.3-2.3V91H106v36.3h30.2
				V103.1z M115.4,105.9l1.2,0.9c0.3,0.3,0.4,0.7,0.1,1.1l-4.3,5.7l4.3,5.7c0.3,0.3,0.2,0.8-0.1,1.1l-1.2,0.9
				c-0.3,0.3-0.8,0.2-1.1-0.1l-5.3-7.1c-0.2-0.3-0.2-0.6,0-0.9l5.3-7.1C114.6,105.8,115.1,105.7,115.4,105.9z M118,123.2l3.3-19.6
				c0.1-0.4,0.5-0.7,0.9-0.6l1.5,0.2c0.4,0.1,0.7,0.5,0.6,0.9l-3.3,19.6c-0.1,0.4-0.5,0.7-0.9,0.6l-1.5-0.2
				C118.2,124,118,123.6,118,123.2z M133.3,114.1l-5.3,7.1c-0.3,0.3-0.7,0.4-1.1,0.1l-1.2-0.9c-0.3-0.3-0.4-0.7-0.1-1.1l4.3-5.7
				l-4.3-5.7c-0.3-0.3-0.2-0.8,0.1-1.1l1.2-0.9c0.3-0.3,0.8-0.2,1.1,0.1l5.3,7.1C133.5,113.5,133.5,113.8,133.3,114.1z M127.2,100
				h8.9c-0.1-0.4-0.4-0.8-0.5-1l-7.4-7.4c-0.2-0.2-0.6-0.4-1-0.5V100z"/>
		</g>
		<g>
			<path fill="#E51B4A" d="M99.1,141.1c0-1,0.2-1.8,0.7-2.3s1.1-0.9,1.8-0.9c0.7,0,1.3,0.3,1.8,0.8v-3.3h1.1v9h-1l-0.1-0.7
				c-0.4,0.5-1,0.8-1.8,0.8c-0.7,0-1.3-0.3-1.8-0.9S99.1,142.2,99.1,141.1L99.1,141.1z M100.2,141.3c0,0.7,0.1,1.3,0.4,1.7
				s0.7,0.6,1.2,0.6c0.7,0,1.2-0.3,1.5-0.9v-2.9c-0.3-0.6-0.8-0.9-1.5-0.9c-0.5,0-0.9,0.2-1.2,0.6S100.2,140.5,100.2,141.3z"/>
			<path fill="#E51B4A" d="M106.1,136.3c0-0.2,0.1-0.3,0.2-0.4s0.3-0.2,0.5-0.2s0.4,0.1,0.5,0.2s0.2,0.3,0.2,0.4s-0.1,0.3-0.2,0.4
				s-0.3,0.2-0.5,0.2s-0.4-0.1-0.5-0.2S106.1,136.5,106.1,136.3z M107.3,144.4h-1.1V138h1.1V144.4z"/>
			<path fill="#E51B4A" d="M112.1,139c-0.2,0-0.3,0-0.5,0c-0.7,0-1.2,0.3-1.4,0.9v4.5H109V138h1.1l0,0.7c0.4-0.6,0.9-0.8,1.5-0.8
				c0.2,0,0.4,0,0.5,0.1V139z"/>
			<path fill="#E51B4A" d="M115.6,144.5c-0.9,0-1.6-0.3-2.1-0.8s-0.8-1.3-0.8-2.3v-0.2c0-0.6,0.1-1.2,0.4-1.7s0.6-0.9,1-1.2
				s0.9-0.4,1.4-0.4c0.8,0,1.5,0.3,1.9,0.8s0.7,1.3,0.7,2.3v0.5h-4.3c0,0.6,0.2,1.1,0.5,1.5s0.8,0.6,1.3,0.6c0.4,0,0.7-0.1,1-0.2
				s0.5-0.4,0.7-0.6l0.7,0.5C117.5,144.1,116.7,144.5,115.6,144.5z M115.5,138.8c-0.4,0-0.8,0.2-1.1,0.5s-0.5,0.8-0.6,1.3h3.2v-0.1
				c0-0.6-0.2-1-0.4-1.3S115.9,138.8,115.5,138.8z"/>
			<path fill="#E51B4A" d="M121.9,143.6c0.4,0,0.7-0.1,1-0.4s0.4-0.5,0.5-0.9h1c0,0.4-0.1,0.7-0.4,1s-0.5,0.6-0.9,0.8
				s-0.8,0.3-1.2,0.3c-0.9,0-1.5-0.3-2.1-0.9s-0.8-1.4-0.8-2.4v-0.2c0-0.6,0.1-1.2,0.3-1.6s0.6-0.9,1-1.1s0.9-0.4,1.5-0.4
				c0.7,0,1.3,0.2,1.8,0.6s0.7,1,0.8,1.7h-1c0-0.4-0.2-0.7-0.5-1s-0.6-0.4-1-0.4c-0.6,0-1,0.2-1.3,0.6s-0.5,1-0.5,1.7v0.2
				c0,0.7,0.2,1.3,0.5,1.7S121.3,143.6,121.9,143.6z"/>
			<path fill="#E51B4A" d="M127.1,136.5v1.5h1.2v0.8h-1.2v3.9c0,0.3,0.1,0.4,0.2,0.6c0.1,0.1,0.3,0.2,0.5,0.2c0.1,0,0.3,0,0.5-0.1
				v0.9c-0.3,0.1-0.6,0.1-0.8,0.1c-0.5,0-0.8-0.1-1.1-0.4s-0.4-0.7-0.4-1.2v-3.9h-1.2V138h1.2v-1.5H127.1z"/>
			<path fill="#E51B4A" d="M129.6,136.3c0-0.2,0.1-0.3,0.2-0.4s0.3-0.2,0.5-0.2s0.4,0.1,0.5,0.2s0.2,0.3,0.2,0.4s-0.1,0.3-0.2,0.4
				s-0.3,0.2-0.5,0.2s-0.4-0.1-0.5-0.2S129.6,136.5,129.6,136.3z M130.7,144.4h-1.1V138h1.1V144.4z"/>
			<path fill="#E51B4A" d="M134.6,142.9l1.6-4.9h1.1l-2.3,6.3h-0.8l-2.3-6.3h1.1L134.6,142.9z"/>
			<path fill="#E51B4A" d="M140.8,144.5c-0.9,0-1.6-0.3-2.1-0.8s-0.8-1.3-0.8-2.3v-0.2c0-0.6,0.1-1.2,0.4-1.7s0.6-0.9,1-1.2
				s0.9-0.4,1.4-0.4c0.8,0,1.5,0.3,1.9,0.8s0.7,1.3,0.7,2.3v0.5H139c0,0.6,0.2,1.1,0.5,1.5s0.8,0.6,1.3,0.6c0.4,0,0.7-0.1,1-0.2
				s0.5-0.4,0.7-0.6l0.7,0.5C142.7,144.1,141.9,144.5,140.8,144.5z M140.7,138.8c-0.4,0-0.8,0.2-1.1,0.5s-0.5,0.8-0.6,1.3h3.2v-0.1
				c0-0.6-0.2-1-0.4-1.3S141.1,138.8,140.7,138.8z"/>
		</g>
		<g>
			<path fill="#66B045" d="M159.2,143.6c0.4,0,0.7-0.1,1-0.4s0.4-0.5,0.5-0.9h1c0,0.4-0.1,0.7-0.4,1s-0.5,0.6-0.9,0.8
				s-0.8,0.3-1.2,0.3c-0.9,0-1.5-0.3-2.1-0.9s-0.8-1.4-0.8-2.4v-0.2c0-0.6,0.1-1.2,0.3-1.6s0.6-0.9,1-1.1s0.9-0.4,1.5-0.4
				c0.7,0,1.3,0.2,1.8,0.6s0.7,1,0.8,1.7h-1c0-0.4-0.2-0.7-0.5-1s-0.6-0.4-1-0.4c-0.6,0-1,0.2-1.3,0.6s-0.5,1-0.5,1.7v0.2
				c0,0.7,0.2,1.3,0.5,1.7S158.7,143.6,159.2,143.6z"/>
			<path fill="#66B045" d="M162.7,141.1c0-0.6,0.1-1.2,0.4-1.7s0.6-0.9,1-1.1s0.9-0.4,1.5-0.4c0.9,0,1.6,0.3,2.1,0.9
				s0.8,1.4,0.8,2.4v0.1c0,0.6-0.1,1.2-0.4,1.7s-0.6,0.9-1,1.1s-0.9,0.4-1.5,0.4c-0.9,0-1.6-0.3-2.1-0.9S162.7,142.2,162.7,141.1
				L162.7,141.1z M163.8,141.3c0,0.7,0.2,1.3,0.5,1.7s0.8,0.6,1.3,0.6c0.6,0,1-0.2,1.3-0.6s0.5-1,0.5-1.8c0-0.7-0.2-1.3-0.5-1.7
				s-0.8-0.6-1.3-0.6c-0.5,0-1,0.2-1.3,0.6S163.8,140.5,163.8,141.3z"/>
			<path fill="#66B045" d="M170.8,138l0,0.8c0.5-0.6,1.1-0.9,1.9-0.9c1.3,0,2,0.8,2,2.3v4.2h-1.1v-4.2c0-0.5-0.1-0.8-0.3-1
				s-0.5-0.3-1-0.3c-0.4,0-0.7,0.1-0.9,0.3s-0.5,0.4-0.6,0.7v4.5h-1.1V138H170.8z"/>
			<path fill="#66B045" d="M177.9,136.5v1.5h1.2v0.8h-1.2v3.9c0,0.3,0.1,0.4,0.2,0.6c0.1,0.1,0.3,0.2,0.5,0.2c0.1,0,0.3,0,0.5-0.1
				v0.9c-0.3,0.1-0.6,0.1-0.8,0.1c-0.5,0-0.8-0.1-1.1-0.4s-0.4-0.7-0.4-1.2v-3.9h-1.2V138h1.2v-1.5H177.9z"/>
			<path fill="#66B045" d="M183.4,139c-0.2,0-0.3,0-0.5,0c-0.7,0-1.2,0.3-1.4,0.9v4.5h-1.1V138h1.1l0,0.7c0.4-0.6,0.9-0.8,1.5-0.8
				c0.2,0,0.4,0,0.5,0.1V139z"/>
			<path fill="#66B045" d="M184,141.1c0-0.6,0.1-1.2,0.4-1.7s0.6-0.9,1-1.1s0.9-0.4,1.5-0.4c0.9,0,1.6,0.3,2.1,0.9s0.8,1.4,0.8,2.4
				v0.1c0,0.6-0.1,1.2-0.4,1.7s-0.6,0.9-1,1.1s-0.9,0.4-1.5,0.4c-0.9,0-1.6-0.3-2.1-0.9S184,142.2,184,141.1L184,141.1z
				 M185.1,141.3c0,0.7,0.2,1.3,0.5,1.7s0.8,0.6,1.3,0.6c0.6,0,1-0.2,1.3-0.6s0.5-1,0.5-1.8c0-0.7-0.2-1.3-0.5-1.7s-0.8-0.6-1.3-0.6
				c-0.5,0-1,0.2-1.3,0.6S185.1,140.5,185.1,141.3z"/>
			<path fill="#66B045" d="M192.3,144.4h-1.1v-9h1.1V144.4z"/>
			<path fill="#66B045" d="M195.2,144.4h-1.1v-9h1.1V144.4z"/>
			<path fill="#66B045" d="M199.6,144.5c-0.9,0-1.6-0.3-2.1-0.8s-0.8-1.3-0.8-2.3v-0.2c0-0.6,0.1-1.2,0.4-1.7s0.6-0.9,1-1.2
				s0.9-0.4,1.4-0.4c0.8,0,1.5,0.3,1.9,0.8s0.7,1.3,0.7,2.3v0.5h-4.3c0,0.6,0.2,1.1,0.5,1.5s0.8,0.6,1.3,0.6c0.4,0,0.7-0.1,1-0.2
				s0.5-0.4,0.7-0.6l0.7,0.5C201.4,144.1,200.6,144.5,199.6,144.5z M199.4,138.8c-0.4,0-0.8,0.2-1.1,0.5s-0.5,0.8-0.6,1.3h3.2v-0.1
				c0-0.6-0.2-1-0.4-1.3S199.9,138.8,199.4,138.8z"/>
			<path fill="#66B045" d="M206.4,139c-0.2,0-0.3,0-0.5,0c-0.7,0-1.2,0.3-1.4,0.9v4.5h-1.1V138h1.1l0,0.7c0.4-0.6,0.9-0.8,1.5-0.8
				c0.2,0,0.4,0,0.5,0.1V139z"/>
		</g>
		<g>
			<path fill="#66B045" d="M199.3,100.8V128c0,1.3-1,2.3-2.3,2.3h-31.7c-1.3,0-2.3-1-2.3-2.3V90.2c0-1.3,1-2.3,2.3-2.3h21.2
				c1.3,0,3,0.7,3.9,1.6l7.4,7.4C198.6,97.8,199.3,99.5,199.3,100.8z M196.3,103.1h-9.8c-1.3,0-2.3-1-2.3-2.3V91h-18.1v36.3h30.2
				V103.1z M175.5,105.9l1.2,0.9c0.3,0.3,0.4,0.7,0.1,1.1l-4.3,5.7l4.3,5.7c0.3,0.3,0.2,0.8-0.1,1.1l-1.2,0.9
				c-0.3,0.3-0.8,0.2-1.1-0.1l-5.3-7.1c-0.2-0.3-0.2-0.6,0-0.9l5.3-7.1C174.7,105.8,175.1,105.7,175.5,105.9z M178.1,123.2l3.3-19.6
				c0.1-0.4,0.5-0.7,0.9-0.6l1.5,0.2c0.4,0.1,0.7,0.5,0.6,0.9l-3.3,19.6c-0.1,0.4-0.5,0.7-0.9,0.6l-1.5-0.2
				C178.3,124,178,123.6,178.1,123.2z M193.3,114.1l-5.3,7.1c-0.3,0.3-0.7,0.4-1.1,0.1l-1.2-0.9c-0.3-0.3-0.4-0.7-0.1-1.1l4.3-5.7
				l-4.3-5.7c-0.3-0.3-0.2-0.8,0.1-1.1l1.2-0.9c0.3-0.3,0.8-0.2,1.1,0.1l5.3,7.1C193.5,113.5,193.5,113.8,193.3,114.1z M187.3,100
				h8.9c-0.1-0.4-0.4-0.8-0.5-1l-7.4-7.4c-0.2-0.2-0.6-0.4-1-0.5V100z"/>
		</g>
		<g>
			<path fill="#8E398F" d="M224.1,144.4v-5.5h-1V138h1v-0.7c0-0.7,0.2-1.2,0.5-1.6s0.9-0.6,1.5-0.6c0.3,0,0.5,0,0.7,0.1l-0.1,0.9
				c-0.2,0-0.4-0.1-0.6-0.1c-0.4,0-0.6,0.1-0.8,0.3s-0.3,0.5-0.3,0.9v0.7h1.4v0.8h-1.4v5.5H224.1z"/>
			<path fill="#8E398F" d="M231.6,144.4c-0.1-0.1-0.1-0.3-0.2-0.7c-0.5,0.5-1.1,0.8-1.8,0.8c-0.6,0-1.1-0.2-1.5-0.5
				s-0.6-0.8-0.6-1.3c0-0.7,0.3-1.2,0.8-1.5s1.2-0.5,2.1-0.5h1.1V140c0-0.4-0.1-0.7-0.3-0.9s-0.6-0.3-1-0.3c-0.4,0-0.7,0.1-1,0.3
				s-0.4,0.4-0.4,0.7h-1.1c0-0.3,0.1-0.6,0.3-0.9s0.5-0.5,0.9-0.7s0.8-0.3,1.3-0.3c0.7,0,1.3,0.2,1.7,0.5s0.6,0.9,0.6,1.5v2.9
				c0,0.6,0.1,1,0.2,1.4v0.1H231.6z M229.8,143.5c0.3,0,0.7-0.1,1-0.3s0.5-0.4,0.7-0.7v-1.3h-0.8c-1.3,0-2,0.4-2,1.2
				c0,0.3,0.1,0.6,0.3,0.8S229.5,143.5,229.8,143.5z"/>
			<path fill="#8E398F" d="M236.8,143.6c0.4,0,0.7-0.1,1-0.4s0.4-0.5,0.5-0.9h1c0,0.4-0.1,0.7-0.4,1s-0.5,0.6-0.9,0.8
				s-0.8,0.3-1.2,0.3c-0.9,0-1.5-0.3-2.1-0.9s-0.8-1.4-0.8-2.4v-0.2c0-0.6,0.1-1.2,0.3-1.6s0.6-0.9,1-1.1s0.9-0.4,1.5-0.4
				c0.7,0,1.3,0.2,1.8,0.6s0.7,1,0.8,1.7h-1c0-0.4-0.2-0.7-0.5-1s-0.6-0.4-1-0.4c-0.6,0-1,0.2-1.3,0.6s-0.5,1-0.5,1.7v0.2
				c0,0.7,0.2,1.3,0.5,1.7S236.2,143.6,236.8,143.6z"/>
			<path fill="#8E398F" d="M242,136.5v1.5h1.2v0.8H242v3.9c0,0.3,0.1,0.4,0.2,0.6c0.1,0.1,0.3,0.2,0.5,0.2c0.1,0,0.3,0,0.5-0.1v0.9
				c-0.3,0.1-0.6,0.1-0.8,0.1c-0.5,0-0.8-0.1-1.1-0.4s-0.4-0.7-0.4-1.2v-3.9h-1.2V138h1.2v-1.5H242z"/>
			<path fill="#8E398F" d="M244,141.1c0-0.6,0.1-1.2,0.4-1.7s0.6-0.9,1-1.1s0.9-0.4,1.5-0.4c0.9,0,1.6,0.3,2.1,0.9s0.8,1.4,0.8,2.4
				v0.1c0,0.6-0.1,1.2-0.4,1.7s-0.6,0.9-1,1.1s-0.9,0.4-1.5,0.4c-0.9,0-1.6-0.3-2.1-0.9S244,142.2,244,141.1L244,141.1z
				 M245.1,141.3c0,0.7,0.2,1.3,0.5,1.7s0.8,0.6,1.3,0.6c0.6,0,1-0.2,1.3-0.6s0.5-1,0.5-1.8c0-0.7-0.2-1.3-0.5-1.7s-0.8-0.6-1.3-0.6
				c-0.5,0-1,0.2-1.3,0.6S245.1,140.5,245.1,141.3z"/>
			<path fill="#8E398F" d="M254.2,139c-0.2,0-0.3,0-0.5,0c-0.7,0-1.2,0.3-1.4,0.9v4.5h-1.1V138h1.1l0,0.7c0.4-0.6,0.9-0.8,1.5-0.8
				c0.2,0,0.4,0,0.5,0.1V139z"/>
			<path fill="#8E398F" d="M257.4,142.8l1.5-4.8h1.2l-2.5,7.3c-0.4,1.1-1,1.6-1.9,1.6l-0.2,0l-0.4-0.1V146l0.3,0
				c0.4,0,0.7-0.1,0.9-0.2s0.4-0.4,0.5-0.8l0.2-0.6l-2.3-6.3h1.2L257.4,142.8z"/>
		</g>
		<g>
			<path fill="#8E398F" d="M259.6,100.8V128c0,1.3-1,2.3-2.3,2.3h-31.7c-1.3,0-2.3-1-2.3-2.3V90.2c0-1.3,1-2.3,2.3-2.3h21.2
				c1.3,0,3,0.7,3.9,1.6l7.4,7.4C258.9,97.8,259.6,99.5,259.6,100.8z M256.6,103.1h-9.8c-1.3,0-2.3-1-2.3-2.3V91h-18.1v36.3h30.2
				V103.1z M235.7,105.9l1.2,0.9c0.3,0.3,0.4,0.7,0.1,1.1l-4.3,5.7l4.3,5.7c0.3,0.3,0.2,0.8-0.1,1.1l-1.2,0.9
				c-0.3,0.3-0.8,0.2-1.1-0.1l-5.3-7.1c-0.2-0.3-0.2-0.6,0-0.9l5.3-7.1C234.9,105.8,235.4,105.7,235.7,105.9z M238.4,123.2l3.3-19.6
				c0.1-0.4,0.5-0.7,0.9-0.6l1.5,0.2c0.4,0.1,0.7,0.5,0.6,0.9l-3.3,19.6c-0.1,0.4-0.5,0.7-0.9,0.6l-1.5-0.2
				C238.5,124,238.3,123.6,238.4,123.2z M253.6,114.1l-5.3,7.1c-0.3,0.3-0.7,0.4-1.1,0.1l-1.2-0.9c-0.3-0.3-0.4-0.7-0.1-1.1l4.3-5.7
				l-4.3-5.7c-0.3-0.3-0.2-0.8,0.1-1.1l1.2-0.9c0.3-0.3,0.8-0.2,1.1,0.1l5.3,7.1C253.8,113.5,253.8,113.8,253.6,114.1z M247.5,100
				h8.9c-0.1-0.4-0.4-0.8-0.5-1l-7.4-7.4c-0.2-0.2-0.6-0.4-1-0.5V100z"/>
		</g>
	</g>
	<rect x="87.9" y="158.2" opacity="0.2" width="183.4" height="104.6"/>
	<g>
		<g>
			<path fill="#E51B4A" d="M139.3,212v27.2c0,1.3-1,2.3-2.3,2.3h-31.7c-1.3,0-2.3-1-2.3-2.3v-37.8c0-1.3,1-2.3,2.3-2.3h21.2
				c1.3,0,3,0.7,3.9,1.6l7.4,7.4C138.6,209,139.3,210.7,139.3,212z M136.3,214.2h-9.8c-1.3,0-2.3-1-2.3-2.3v-9.8H106v36.3h30.2
				V214.2z M115.4,217.1l1.2,0.9c0.3,0.3,0.4,0.7,0.1,1.1l-4.3,5.7l4.3,5.7c0.3,0.3,0.2,0.8-0.1,1.1l-1.2,0.9
				c-0.3,0.3-0.8,0.2-1.1-0.1l-5.3-7.1c-0.2-0.3-0.2-0.6,0-0.9l5.3-7.1C114.6,216.9,115.1,216.8,115.4,217.1z M118,234.4l3.3-19.6
				c0.1-0.4,0.5-0.7,0.9-0.6l1.5,0.2c0.4,0.1,0.7,0.5,0.6,0.9l-3.3,19.6c-0.1,0.4-0.5,0.7-0.9,0.6l-1.5-0.2
				C118.2,235.2,118,234.8,118,234.4z M133.3,225.3l-5.3,7.1c-0.3,0.3-0.7,0.4-1.1,0.1l-1.2-0.9c-0.3-0.3-0.4-0.7-0.1-1.1l4.3-5.7
				l-4.3-5.7c-0.3-0.3-0.2-0.8,0.1-1.1l1.2-0.9c0.3-0.3,0.8-0.2,1.1,0.1l5.3,7.1C133.5,224.6,133.5,225,133.3,225.3z M127.2,211.2
				h8.9c-0.1-0.4-0.4-0.8-0.5-1l-7.4-7.4c-0.2-0.2-0.6-0.4-1-0.5V211.2z"/>
		</g>
		<g>
			<path fill="#E51B4A" d="M99.1,252.3c0-1,0.2-1.8,0.7-2.3s1.1-0.9,1.8-0.9c0.7,0,1.3,0.3,1.8,0.8v-3.3h1.1v9h-1l-0.1-0.7
				c-0.4,0.5-1,0.8-1.8,0.8c-0.7,0-1.3-0.3-1.8-0.9S99.1,253.4,99.1,252.3L99.1,252.3z M100.2,252.4c0,0.7,0.1,1.3,0.4,1.7
				s0.7,0.6,1.2,0.6c0.7,0,1.2-0.3,1.5-0.9v-2.9c-0.3-0.6-0.8-0.9-1.5-0.9c-0.5,0-0.9,0.2-1.2,0.6S100.2,251.6,100.2,252.4z"/>
			<path fill="#E51B4A" d="M106.1,247.5c0-0.2,0.1-0.3,0.2-0.4s0.3-0.2,0.5-0.2s0.4,0.1,0.5,0.2s0.2,0.3,0.2,0.4s-0.1,0.3-0.2,0.4
				s-0.3,0.2-0.5,0.2s-0.4-0.1-0.5-0.2S106.1,247.7,106.1,247.5z M107.3,255.5h-1.1v-6.3h1.1V255.5z"/>
			<path fill="#E51B4A" d="M112.1,250.2c-0.2,0-0.3,0-0.5,0c-0.7,0-1.2,0.3-1.4,0.9v4.5H109v-6.3h1.1l0,0.7c0.4-0.6,0.9-0.8,1.5-0.8
				c0.2,0,0.4,0,0.5,0.1V250.2z"/>
			<path fill="#E51B4A" d="M115.6,255.6c-0.9,0-1.6-0.3-2.1-0.8s-0.8-1.3-0.8-2.3v-0.2c0-0.6,0.1-1.2,0.4-1.7s0.6-0.9,1-1.2
				s0.9-0.4,1.4-0.4c0.8,0,1.5,0.3,1.9,0.8s0.7,1.3,0.7,2.3v0.5h-4.3c0,0.6,0.2,1.1,0.5,1.5s0.8,0.6,1.3,0.6c0.4,0,0.7-0.1,1-0.2
				s0.5-0.4,0.7-0.6l0.7,0.5C117.5,255.2,116.7,255.6,115.6,255.6z M115.5,250c-0.4,0-0.8,0.2-1.1,0.5s-0.5,0.8-0.6,1.3h3.2v-0.1
				c0-0.6-0.2-1-0.4-1.3S115.9,250,115.5,250z"/>
			<path fill="#E51B4A" d="M121.9,254.8c0.4,0,0.7-0.1,1-0.4s0.4-0.5,0.5-0.9h1c0,0.4-0.1,0.7-0.4,1s-0.5,0.6-0.9,0.8
				s-0.8,0.3-1.2,0.3c-0.9,0-1.5-0.3-2.1-0.9s-0.8-1.4-0.8-2.4v-0.2c0-0.6,0.1-1.2,0.3-1.6s0.6-0.9,1-1.1s0.9-0.4,1.5-0.4
				c0.7,0,1.3,0.2,1.8,0.6s0.7,1,0.8,1.7h-1c0-0.4-0.2-0.7-0.5-1s-0.6-0.4-1-0.4c-0.6,0-1,0.2-1.3,0.6s-0.5,1-0.5,1.7v0.2
				c0,0.7,0.2,1.3,0.5,1.7S121.3,254.8,121.9,254.8z"/>
			<path fill="#E51B4A" d="M127.1,247.7v1.5h1.2v0.8h-1.2v3.9c0,0.3,0.1,0.4,0.2,0.6c0.1,0.1,0.3,0.2,0.5,0.2c0.1,0,0.3,0,0.5-0.1
				v0.9c-0.3,0.1-0.6,0.1-0.8,0.1c-0.5,0-0.8-0.1-1.1-0.4s-0.4-0.7-0.4-1.2V250h-1.2v-0.8h1.2v-1.5H127.1z"/>
			<path fill="#E51B4A" d="M129.6,247.5c0-0.2,0.1-0.3,0.2-0.4s0.3-0.2,0.5-0.2s0.4,0.1,0.5,0.2s0.2,0.3,0.2,0.4s-0.1,0.3-0.2,0.4
				s-0.3,0.2-0.5,0.2s-0.4-0.1-0.5-0.2S129.6,247.7,129.6,247.5z M130.7,255.5h-1.1v-6.3h1.1V255.5z"/>
			<path fill="#E51B4A" d="M134.6,254.1l1.6-4.9h1.1l-2.3,6.3h-0.8l-2.3-6.3h1.1L134.6,254.1z"/>
			<path fill="#E51B4A" d="M140.8,255.6c-0.9,0-1.6-0.3-2.1-0.8s-0.8-1.3-0.8-2.3v-0.2c0-0.6,0.1-1.2,0.4-1.7s0.6-0.9,1-1.2
				s0.9-0.4,1.4-0.4c0.8,0,1.5,0.3,1.9,0.8s0.7,1.3,0.7,2.3v0.5H139c0,0.6,0.2,1.1,0.5,1.5s0.8,0.6,1.3,0.6c0.4,0,0.7-0.1,1-0.2
				s0.5-0.4,0.7-0.6l0.7,0.5C142.7,255.2,141.9,255.6,140.8,255.6z M140.7,250c-0.4,0-0.8,0.2-1.1,0.5s-0.5,0.8-0.6,1.3h3.2v-0.1
				c0-0.6-0.2-1-0.4-1.3S141.1,250,140.7,250z"/>
		</g>
		<g>
			<path fill="#66B045" d="M159.2,254.8c0.4,0,0.7-0.1,1-0.4s0.4-0.5,0.5-0.9h1c0,0.4-0.1,0.7-0.4,1s-0.5,0.6-0.9,0.8
				s-0.8,0.3-1.2,0.3c-0.9,0-1.5-0.3-2.1-0.9s-0.8-1.4-0.8-2.4v-0.2c0-0.6,0.1-1.2,0.3-1.6s0.6-0.9,1-1.1s0.9-0.4,1.5-0.4
				c0.7,0,1.3,0.2,1.8,0.6s0.7,1,0.8,1.7h-1c0-0.4-0.2-0.7-0.5-1s-0.6-0.4-1-0.4c-0.6,0-1,0.2-1.3,0.6s-0.5,1-0.5,1.7v0.2
				c0,0.7,0.2,1.3,0.5,1.7S158.7,254.8,159.2,254.8z"/>
			<path fill="#66B045" d="M162.7,252.3c0-0.6,0.1-1.2,0.4-1.7s0.6-0.9,1-1.1s0.9-0.4,1.5-0.4c0.9,0,1.6,0.3,2.1,0.9
				s0.8,1.4,0.8,2.4v0.1c0,0.6-0.1,1.2-0.4,1.7s-0.6,0.9-1,1.1s-0.9,0.4-1.5,0.4c-0.9,0-1.6-0.3-2.1-0.9S162.7,253.4,162.7,252.3
				L162.7,252.3z M163.8,252.4c0,0.7,0.2,1.3,0.5,1.7s0.8,0.6,1.3,0.6c0.6,0,1-0.2,1.3-0.6s0.5-1,0.5-1.8c0-0.7-0.2-1.3-0.5-1.7
				s-0.8-0.6-1.3-0.6c-0.5,0-1,0.2-1.3,0.6S163.8,251.6,163.8,252.4z"/>
			<path fill="#66B045" d="M170.8,249.2l0,0.8c0.5-0.6,1.1-0.9,1.9-0.9c1.3,0,2,0.8,2,2.3v4.2h-1.1v-4.2c0-0.5-0.1-0.8-0.3-1
				s-0.5-0.3-1-0.3c-0.4,0-0.7,0.1-0.9,0.3s-0.5,0.4-0.6,0.7v4.5h-1.1v-6.3H170.8z"/>
			<path fill="#66B045" d="M177.9,247.7v1.5h1.2v0.8h-1.2v3.9c0,0.3,0.1,0.4,0.2,0.6s0.3,0.2,0.5,0.2c0.1,0,0.3,0,0.5-0.1v0.9
				c-0.3,0.1-0.6,0.1-0.8,0.1c-0.5,0-0.8-0.1-1.1-0.4s-0.4-0.7-0.4-1.2V250h-1.2v-0.8h1.2v-1.5H177.9z"/>
			<path fill="#66B045" d="M183.4,250.2c-0.2,0-0.3,0-0.5,0c-0.7,0-1.2,0.3-1.4,0.9v4.5h-1.1v-6.3h1.1l0,0.7
				c0.4-0.6,0.9-0.8,1.5-0.8c0.2,0,0.4,0,0.5,0.1V250.2z"/>
			<path fill="#66B045" d="M184,252.3c0-0.6,0.1-1.2,0.4-1.7s0.6-0.9,1-1.1s0.9-0.4,1.5-0.4c0.9,0,1.6,0.3,2.1,0.9s0.8,1.4,0.8,2.4
				v0.1c0,0.6-0.1,1.2-0.4,1.7s-0.6,0.9-1,1.1s-0.9,0.4-1.5,0.4c-0.9,0-1.6-0.3-2.1-0.9S184,253.4,184,252.3L184,252.3z
				 M185.1,252.4c0,0.7,0.2,1.3,0.5,1.7s0.8,0.6,1.3,0.6c0.6,0,1-0.2,1.3-0.6s0.5-1,0.5-1.8c0-0.7-0.2-1.3-0.5-1.7s-0.8-0.6-1.3-0.6
				c-0.5,0-1,0.2-1.3,0.6S185.1,251.6,185.1,252.4z"/>
			<path fill="#66B045" d="M192.3,255.5h-1.1v-9h1.1V255.5z"/>
			<path fill="#66B045" d="M195.2,255.5h-1.1v-9h1.1V255.5z"/>
			<path fill="#66B045" d="M199.6,255.6c-0.9,0-1.6-0.3-2.1-0.8s-0.8-1.3-0.8-2.3v-0.2c0-0.6,0.1-1.2,0.4-1.7s0.6-0.9,1-1.2
				s0.9-0.4,1.4-0.4c0.8,0,1.5,0.3,1.9,0.8s0.7,1.3,0.7,2.3v0.5h-4.3c0,0.6,0.2,1.1,0.5,1.5s0.8,0.6,1.3,0.6c0.4,0,0.7-0.1,1-0.2
				s0.5-0.4,0.7-0.6l0.7,0.5C201.4,255.2,200.6,255.6,199.6,255.6z M199.5,250c-0.4,0-0.8,0.2-1.1,0.5s-0.5,0.8-0.6,1.3h3.2v-0.1
				c0-0.6-0.2-1-0.4-1.3S199.9,250,199.5,250z"/>
			<path fill="#66B045" d="M206.4,250.2c-0.2,0-0.3,0-0.5,0c-0.7,0-1.2,0.3-1.4,0.9v4.5h-1.1v-6.3h1.1l0,0.7
				c0.4-0.6,0.9-0.8,1.5-0.8c0.2,0,0.4,0,0.5,0.1V250.2z"/>
		</g>
		<g>
			<path fill="#66B045" d="M199.3,212v27.2c0,1.3-1,2.3-2.3,2.3h-31.7c-1.3,0-2.3-1-2.3-2.3v-37.8c0-1.3,1-2.3,2.3-2.3h21.2
				c1.3,0,3,0.7,3.9,1.6l7.4,7.4C198.6,209,199.3,210.7,199.3,212z M196.3,214.2h-9.8c-1.3,0-2.3-1-2.3-2.3v-9.8h-18.1v36.3h30.2
				V214.2z M175.5,217.1l1.2,0.9c0.3,0.3,0.4,0.7,0.1,1.1l-4.3,5.7l4.3,5.7c0.3,0.3,0.2,0.8-0.1,1.1l-1.2,0.9
				c-0.3,0.3-0.8,0.2-1.1-0.1l-5.3-7.1c-0.2-0.3-0.2-0.6,0-0.9l5.3-7.1C174.7,216.9,175.1,216.8,175.5,217.1z M178.1,234.4l3.3-19.6
				c0.1-0.4,0.5-0.7,0.9-0.6l1.5,0.2c0.4,0.1,0.7,0.5,0.6,0.9l-3.3,19.6c-0.1,0.4-0.5,0.7-0.9,0.6l-1.5-0.2
				C178.3,235.2,178,234.8,178.1,234.4z M193.3,225.3l-5.3,7.1c-0.3,0.3-0.7,0.4-1.1,0.1l-1.2-0.9c-0.3-0.3-0.4-0.7-0.1-1.1l4.3-5.7
				l-4.3-5.7c-0.3-0.3-0.2-0.8,0.1-1.1l1.2-0.9c0.3-0.3,0.8-0.2,1.1,0.1l5.3,7.1C193.5,224.6,193.5,225,193.3,225.3z M187.3,211.2
				h8.9c-0.1-0.4-0.4-0.8-0.5-1l-7.4-7.4c-0.2-0.2-0.6-0.4-1-0.5V211.2z"/>
		</g>
		<g>
			<path fill="#8E398F" d="M224.1,255.5V250h-1v-0.8h1v-0.7c0-0.7,0.2-1.2,0.5-1.6s0.9-0.6,1.5-0.6c0.3,0,0.5,0,0.7,0.1l-0.1,0.9
				c-0.2,0-0.4-0.1-0.6-0.1c-0.4,0-0.6,0.1-0.8,0.3c-0.2,0.2-0.3,0.5-0.3,0.9v0.7h1.4v0.8h-1.4v5.5H224.1z"/>
			<path fill="#8E398F" d="M231.6,255.5c-0.1-0.1-0.1-0.3-0.2-0.7c-0.5,0.5-1.1,0.8-1.8,0.8c-0.6,0-1.1-0.2-1.5-0.5
				s-0.6-0.8-0.6-1.3c0-0.7,0.3-1.2,0.8-1.5s1.2-0.5,2.1-0.5h1.1v-0.5c0-0.4-0.1-0.7-0.3-0.9s-0.6-0.3-1-0.3c-0.4,0-0.7,0.1-1,0.3
				s-0.4,0.4-0.4,0.7h-1.1c0-0.3,0.1-0.6,0.3-0.9s0.5-0.5,0.9-0.7s0.8-0.3,1.3-0.3c0.7,0,1.3,0.2,1.7,0.5s0.6,0.9,0.6,1.5v2.9
				c0,0.6,0.1,1,0.2,1.4v0.1H231.6z M229.8,254.7c0.3,0,0.7-0.1,1-0.3s0.5-0.4,0.7-0.7v-1.3h-0.8c-1.3,0-2,0.4-2,1.2
				c0,0.3,0.1,0.6,0.3,0.8S229.5,254.7,229.8,254.7z"/>
			<path fill="#8E398F" d="M236.8,254.8c0.4,0,0.7-0.1,1-0.4s0.4-0.5,0.5-0.9h1c0,0.4-0.1,0.7-0.4,1s-0.5,0.6-0.9,0.8
				s-0.8,0.3-1.2,0.3c-0.9,0-1.5-0.3-2.1-0.9s-0.8-1.4-0.8-2.4v-0.2c0-0.6,0.1-1.2,0.3-1.6s0.6-0.9,1-1.1s0.9-0.4,1.5-0.4
				c0.7,0,1.3,0.2,1.8,0.6s0.7,1,0.8,1.7h-1c0-0.4-0.2-0.7-0.5-1s-0.6-0.4-1-0.4c-0.6,0-1,0.2-1.3,0.6s-0.5,1-0.5,1.7v0.2
				c0,0.7,0.2,1.3,0.5,1.7S236.2,254.8,236.8,254.8z"/>
			<path fill="#8E398F" d="M242,247.7v1.5h1.2v0.8H242v3.9c0,0.3,0.1,0.4,0.2,0.6s0.3,0.2,0.5,0.2c0.1,0,0.3,0,0.5-0.1v0.9
				c-0.3,0.1-0.6,0.1-0.8,0.1c-0.5,0-0.8-0.1-1.1-0.4s-0.4-0.7-0.4-1.2V250h-1.2v-0.8h1.2v-1.5H242z"/>
			<path fill="#8E398F" d="M244,252.3c0-0.6,0.1-1.2,0.4-1.7s0.6-0.9,1-1.1s0.9-0.4,1.5-0.4c0.9,0,1.6,0.3,2.1,0.9s0.8,1.4,0.8,2.4
				v0.1c0,0.6-0.1,1.2-0.4,1.7s-0.6,0.9-1,1.1s-0.9,0.4-1.5,0.4c-0.9,0-1.6-0.3-2.1-0.9S244,253.4,244,252.3L244,252.3z
				 M245.1,252.4c0,0.7,0.2,1.3,0.5,1.7s0.8,0.6,1.3,0.6c0.6,0,1-0.2,1.3-0.6s0.5-1,0.5-1.8c0-0.7-0.2-1.3-0.5-1.7s-0.8-0.6-1.3-0.6
				c-0.5,0-1,0.2-1.3,0.6S245.1,251.6,245.1,252.4z"/>
			<path fill="#8E398F" d="M254.2,250.2c-0.2,0-0.3,0-0.5,0c-0.7,0-1.2,0.3-1.4,0.9v4.5h-1.1v-6.3h1.1l0,0.7
				c0.4-0.6,0.9-0.8,1.5-0.8c0.2,0,0.4,0,0.5,0.1V250.2z"/>
			<path fill="#8E398F" d="M257.4,253.9l1.5-4.8h1.2l-2.5,7.3c-0.4,1.1-1,1.6-1.9,1.6l-0.2,0L255,258v-0.9l0.3,0
				c0.4,0,0.7-0.1,0.9-0.2s0.4-0.4,0.5-0.8l0.2-0.6l-2.3-6.3h1.2L257.4,253.9z"/>
		</g>
		<g>
			<path fill="#8E398F" d="M259.6,212v27.2c0,1.3-1,2.3-2.3,2.3h-31.7c-1.3,0-2.3-1-2.3-2.3v-37.8c0-1.3,1-2.3,2.3-2.3h21.2
				c1.3,0,3,0.7,3.9,1.6l7.4,7.4C258.9,209,259.6,210.7,259.6,212z M256.6,214.2h-9.8c-1.3,0-2.3-1-2.3-2.3v-9.8h-18.1v36.3h30.2
				V214.2z M235.7,217.1l1.2,0.9c0.3,0.3,0.4,0.7,0.1,1.1l-4.3,5.7l4.3,5.7c0.3,0.3,0.2,0.8-0.1,1.1l-1.2,0.9
				c-0.3,0.3-0.8,0.2-1.1-0.1l-5.3-7.1c-0.2-0.3-0.2-0.6,0-0.9l5.3-7.1C234.9,216.9,235.4,216.8,235.7,217.1z M238.4,234.4l3.3-19.6
				c0.1-0.4,0.5-0.7,0.9-0.6l1.5,0.2c0.4,0.1,0.7,0.5,0.6,0.9l-3.3,19.6c-0.1,0.4-0.5,0.7-0.9,0.6l-1.5-0.2
				C238.5,235.2,238.3,234.8,238.4,234.4z M253.6,225.3l-5.3,7.1c-0.3,0.3-0.7,0.4-1.1,0.1l-1.2-0.9c-0.3-0.3-0.4-0.7-0.1-1.1
				l4.3-5.7l-4.3-5.7c-0.3-0.3-0.2-0.8,0.1-1.1l1.2-0.9c0.3-0.3,0.8-0.2,1.1,0.1l5.3,7.1C253.8,224.6,253.8,225,253.6,225.3z
				 M247.5,211.2h8.9c-0.1-0.4-0.4-0.8-0.5-1l-7.4-7.4c-0.2-0.2-0.6-0.4-1-0.5V211.2z"/>
		</g>
	</g>
	<rect x="87.9" y="269.3" opacity="0.2" width="183.4" height="104.6"/>
	<g>
		<g>
			<path fill="#E51B4A" d="M139.3,323.1v27.2c0,1.3-1,2.3-2.3,2.3h-31.7c-1.3,0-2.3-1-2.3-2.3v-37.8c0-1.3,1-2.3,2.3-2.3h21.2
				c1.3,0,3,0.7,3.9,1.6l7.4,7.4C138.6,320.1,139.3,321.9,139.3,323.1z M136.3,325.4h-9.8c-1.3,0-2.3-1-2.3-2.3v-9.8H106v36.3h30.2
				V325.4z M115.4,328.3l1.2,0.9c0.3,0.3,0.4,0.7,0.1,1.1l-4.3,5.7l4.3,5.7c0.3,0.3,0.2,0.8-0.1,1.1l-1.2,0.9
				c-0.3,0.3-0.8,0.2-1.1-0.1l-5.3-7.1c-0.2-0.3-0.2-0.6,0-0.9l5.3-7.1C114.6,328.1,115.1,328,115.4,328.3z M118,345.5l3.3-19.6
				c0.1-0.4,0.5-0.7,0.9-0.6l1.5,0.2c0.4,0.1,0.7,0.5,0.6,0.9L121,346c-0.1,0.4-0.5,0.7-0.9,0.6l-1.5-0.2
				C118.2,346.3,118,345.9,118,345.5z M133.3,336.4l-5.3,7.1c-0.3,0.3-0.7,0.4-1.1,0.1l-1.2-0.9c-0.3-0.3-0.4-0.7-0.1-1.1l4.3-5.7
				l-4.3-5.7c-0.3-0.3-0.2-0.8,0.1-1.1l1.2-0.9c0.3-0.3,0.8-0.2,1.1,0.1l5.3,7.1C133.5,335.8,133.5,336.2,133.3,336.4z M127.2,322.4
				h8.9c-0.1-0.4-0.4-0.8-0.5-1l-7.4-7.4c-0.2-0.2-0.6-0.4-1-0.5V322.4z"/>
		</g>
		<g>
			<path fill="#E51B4A" d="M99.1,363.5c0-1,0.2-1.8,0.7-2.3s1.1-0.9,1.8-0.9c0.7,0,1.3,0.3,1.8,0.8v-3.3h1.1v9h-1l-0.1-0.7
				c-0.4,0.5-1,0.8-1.8,0.8c-0.7,0-1.3-0.3-1.8-0.9S99.1,364.5,99.1,363.5L99.1,363.5z M100.2,363.6c0,0.7,0.1,1.3,0.4,1.7
				s0.7,0.6,1.2,0.6c0.7,0,1.2-0.3,1.5-0.9v-2.9c-0.3-0.6-0.8-0.9-1.5-0.9c-0.5,0-0.9,0.2-1.2,0.6S100.2,362.8,100.2,363.6z"/>
			<path fill="#E51B4A" d="M106.1,358.7c0-0.2,0.1-0.3,0.2-0.4s0.3-0.2,0.5-0.2s0.4,0.1,0.5,0.2s0.2,0.3,0.2,0.4s-0.1,0.3-0.2,0.4
				s-0.3,0.2-0.5,0.2s-0.4-0.1-0.5-0.2S106.1,358.8,106.1,358.7z M107.3,366.7h-1.1v-6.3h1.1V366.7z"/>
			<path fill="#E51B4A" d="M112.1,361.3c-0.2,0-0.3,0-0.5,0c-0.7,0-1.2,0.3-1.4,0.9v4.5H109v-6.3h1.1l0,0.7c0.4-0.6,0.9-0.8,1.5-0.8
				c0.2,0,0.4,0,0.5,0.1V361.3z"/>
			<path fill="#E51B4A" d="M115.6,366.8c-0.9,0-1.6-0.3-2.1-0.8s-0.8-1.3-0.8-2.3v-0.2c0-0.6,0.1-1.2,0.4-1.7s0.6-0.9,1-1.2
				s0.9-0.4,1.4-0.4c0.8,0,1.5,0.3,1.9,0.8s0.7,1.3,0.7,2.3v0.5h-4.3c0,0.6,0.2,1.1,0.5,1.5s0.8,0.6,1.3,0.6c0.4,0,0.7-0.1,1-0.2
				s0.5-0.4,0.7-0.6l0.7,0.5C117.5,366.4,116.7,366.8,115.6,366.8z M115.5,361.1c-0.4,0-0.8,0.2-1.1,0.5s-0.5,0.8-0.6,1.3h3.2v-0.1
				c0-0.6-0.2-1-0.4-1.3S115.9,361.1,115.5,361.1z"/>
			<path fill="#E51B4A" d="M121.9,365.9c0.4,0,0.7-0.1,1-0.4s0.4-0.5,0.5-0.9h1c0,0.4-0.1,0.7-0.4,1s-0.5,0.6-0.9,0.8
				s-0.8,0.3-1.2,0.3c-0.9,0-1.5-0.3-2.1-0.9s-0.8-1.4-0.8-2.4v-0.2c0-0.6,0.1-1.2,0.3-1.6s0.6-0.9,1-1.1s0.9-0.4,1.5-0.4
				c0.7,0,1.3,0.2,1.8,0.6s0.7,1,0.8,1.7h-1c0-0.4-0.2-0.7-0.5-1s-0.6-0.4-1-0.4c-0.6,0-1,0.2-1.3,0.6s-0.5,1-0.5,1.7v0.2
				c0,0.7,0.2,1.3,0.5,1.7S121.3,365.9,121.9,365.9z"/>
			<path fill="#E51B4A" d="M127.1,358.8v1.5h1.2v0.8h-1.2v3.9c0,0.3,0.1,0.4,0.2,0.6c0.1,0.1,0.3,0.2,0.5,0.2c0.1,0,0.3,0,0.5-0.1
				v0.9c-0.3,0.1-0.6,0.1-0.8,0.1c-0.5,0-0.8-0.1-1.1-0.4s-0.4-0.7-0.4-1.2v-3.9h-1.2v-0.8h1.2v-1.5H127.1z"/>
			<path fill="#E51B4A" d="M129.6,358.7c0-0.2,0.1-0.3,0.2-0.4s0.3-0.2,0.5-0.2s0.4,0.1,0.5,0.2s0.2,0.3,0.2,0.4s-0.1,0.3-0.2,0.4
				s-0.3,0.2-0.5,0.2s-0.4-0.1-0.5-0.2S129.6,358.8,129.6,358.7z M130.7,366.7h-1.1v-6.3h1.1V366.7z"/>
			<path fill="#E51B4A" d="M134.6,365.2l1.6-4.9h1.1l-2.3,6.3h-0.8l-2.3-6.3h1.1L134.6,365.2z"/>
			<path fill="#E51B4A" d="M140.8,366.8c-0.9,0-1.6-0.3-2.1-0.8s-0.8-1.3-0.8-2.3v-0.2c0-0.6,0.1-1.2,0.4-1.7s0.6-0.9,1-1.2
				s0.9-0.4,1.4-0.4c0.8,0,1.5,0.3,1.9,0.8s0.7,1.3,0.7,2.3v0.5H139c0,0.6,0.2,1.1,0.5,1.5s0.8,0.6,1.3,0.6c0.4,0,0.7-0.1,1-0.2
				s0.5-0.4,0.7-0.6l0.7,0.5C142.7,366.4,141.9,366.8,140.8,366.8z M140.7,361.1c-0.4,0-0.8,0.2-1.1,0.5s-0.5,0.8-0.6,1.3h3.2v-0.1
				c0-0.6-0.2-1-0.4-1.3S141.1,361.1,140.7,361.1z"/>
		</g>
		<g>
			<path fill="#66B045" d="M159.2,365.9c0.4,0,0.7-0.1,1-0.4s0.4-0.5,0.5-0.9h1c0,0.4-0.1,0.7-0.4,1s-0.5,0.6-0.9,0.8
				s-0.8,0.3-1.2,0.3c-0.9,0-1.5-0.3-2.1-0.9s-0.8-1.4-0.8-2.4v-0.2c0-0.6,0.1-1.2,0.3-1.6s0.6-0.9,1-1.1s0.9-0.4,1.5-0.4
				c0.7,0,1.3,0.2,1.8,0.6s0.7,1,0.8,1.7h-1c0-0.4-0.2-0.7-0.5-1s-0.6-0.4-1-0.4c-0.6,0-1,0.2-1.3,0.6s-0.5,1-0.5,1.7v0.2
				c0,0.7,0.2,1.3,0.5,1.7S158.7,365.9,159.2,365.9z"/>
			<path fill="#66B045" d="M162.7,363.5c0-0.6,0.1-1.2,0.4-1.7s0.6-0.9,1-1.1s0.9-0.4,1.5-0.4c0.9,0,1.6,0.3,2.1,0.9
				s0.8,1.4,0.8,2.4v0.1c0,0.6-0.1,1.2-0.4,1.7s-0.6,0.9-1,1.1s-0.9,0.4-1.5,0.4c-0.9,0-1.6-0.3-2.1-0.9S162.7,364.5,162.7,363.5
				L162.7,363.5z M163.8,363.6c0,0.7,0.2,1.3,0.5,1.7s0.8,0.6,1.3,0.6c0.6,0,1-0.2,1.3-0.6s0.5-1,0.5-1.8c0-0.7-0.2-1.3-0.5-1.7
				s-0.8-0.6-1.3-0.6c-0.5,0-1,0.2-1.3,0.6S163.8,362.8,163.8,363.6z"/>
			<path fill="#66B045" d="M170.8,360.4l0,0.8c0.5-0.6,1.1-0.9,1.9-0.9c1.3,0,2,0.8,2,2.3v4.2h-1.1v-4.2c0-0.5-0.1-0.8-0.3-1
				s-0.5-0.3-1-0.3c-0.4,0-0.7,0.1-0.9,0.3s-0.5,0.4-0.6,0.7v4.5h-1.1v-6.3H170.8z"/>
			<path fill="#66B045" d="M177.9,358.8v1.5h1.2v0.8h-1.2v3.9c0,0.3,0.1,0.4,0.2,0.6s0.3,0.2,0.5,0.2c0.1,0,0.3,0,0.5-0.1v0.9
				c-0.3,0.1-0.6,0.1-0.8,0.1c-0.5,0-0.8-0.1-1.1-0.4s-0.4-0.7-0.4-1.2v-3.9h-1.2v-0.8h1.2v-1.5H177.9z"/>
			<path fill="#66B045" d="M183.4,361.3c-0.2,0-0.3,0-0.5,0c-0.7,0-1.2,0.3-1.4,0.9v4.5h-1.1v-6.3h1.1l0,0.7
				c0.4-0.6,0.9-0.8,1.5-0.8c0.2,0,0.4,0,0.5,0.1V361.3z"/>
			<path fill="#66B045" d="M184,363.5c0-0.6,0.1-1.2,0.4-1.7s0.6-0.9,1-1.1s0.9-0.4,1.5-0.4c0.9,0,1.6,0.3,2.1,0.9s0.8,1.4,0.8,2.4
				v0.1c0,0.6-0.1,1.2-0.4,1.7s-0.6,0.9-1,1.1s-0.9,0.4-1.5,0.4c-0.9,0-1.6-0.3-2.1-0.9S184,364.5,184,363.5L184,363.5z
				 M185.1,363.6c0,0.7,0.2,1.3,0.5,1.7s0.8,0.6,1.3,0.6c0.6,0,1-0.2,1.3-0.6s0.5-1,0.5-1.8c0-0.7-0.2-1.3-0.5-1.7s-0.8-0.6-1.3-0.6
				c-0.5,0-1,0.2-1.3,0.6S185.1,362.8,185.1,363.6z"/>
			<path fill="#66B045" d="M192.3,366.7h-1.1v-9h1.1V366.7z"/>
			<path fill="#66B045" d="M195.2,366.7h-1.1v-9h1.1V366.7z"/>
			<path fill="#66B045" d="M199.6,366.8c-0.9,0-1.6-0.3-2.1-0.8s-0.8-1.3-0.8-2.3v-0.2c0-0.6,0.1-1.2,0.4-1.7s0.6-0.9,1-1.2
				s0.9-0.4,1.4-0.4c0.8,0,1.5,0.3,1.9,0.8s0.7,1.3,0.7,2.3v0.5h-4.3c0,0.6,0.2,1.1,0.5,1.5s0.8,0.6,1.3,0.6c0.4,0,0.7-0.1,1-0.2
				s0.5-0.4,0.7-0.6l0.7,0.5C201.4,366.4,200.6,366.8,199.6,366.8z M199.5,361.1c-0.4,0-0.8,0.2-1.1,0.5s-0.5,0.8-0.6,1.3h3.2v-0.1
				c0-0.6-0.2-1-0.4-1.3S199.9,361.1,199.5,361.1z"/>
			<path fill="#66B045" d="M206.4,361.3c-0.2,0-0.3,0-0.5,0c-0.7,0-1.2,0.3-1.4,0.9v4.5h-1.1v-6.3h1.1l0,0.7
				c0.4-0.6,0.9-0.8,1.5-0.8c0.2,0,0.4,0,0.5,0.1V361.3z"/>
		</g>
		<g>
			<path fill="#66B045" d="M199.3,323.1v27.2c0,1.3-1,2.3-2.3,2.3h-31.7c-1.3,0-2.3-1-2.3-2.3v-37.8c0-1.3,1-2.3,2.3-2.3h21.2
				c1.3,0,3,0.7,3.9,1.6l7.4,7.4C198.6,320.1,199.3,321.9,199.3,323.1z M196.3,325.4h-9.8c-1.3,0-2.3-1-2.3-2.3v-9.8h-18.1v36.3
				h30.2V325.4z M175.5,328.3l1.2,0.9c0.3,0.3,0.4,0.7,0.1,1.1l-4.3,5.7l4.3,5.7c0.3,0.3,0.2,0.8-0.1,1.1l-1.2,0.9
				c-0.3,0.3-0.8,0.2-1.1-0.1l-5.3-7.1c-0.2-0.3-0.2-0.6,0-0.9l5.3-7.1C174.7,328.1,175.1,328,175.5,328.3z M178.1,345.5l3.3-19.6
				c0.1-0.4,0.5-0.7,0.9-0.6l1.5,0.2c0.4,0.1,0.7,0.5,0.6,0.9l-3.3,19.6c-0.1,0.4-0.5,0.7-0.9,0.6l-1.5-0.2
				C178.3,346.3,178,345.9,178.1,345.5z M193.3,336.4l-5.3,7.1c-0.3,0.3-0.7,0.4-1.1,0.1l-1.2-0.9c-0.3-0.3-0.4-0.7-0.1-1.1l4.3-5.7
				l-4.3-5.7c-0.3-0.3-0.2-0.8,0.1-1.1l1.2-0.9c0.3-0.3,0.8-0.2,1.1,0.1l5.3,7.1C193.5,335.8,193.5,336.2,193.3,336.4z M187.3,322.4
				h8.9c-0.1-0.4-0.4-0.8-0.5-1l-7.4-7.4c-0.2-0.2-0.6-0.4-1-0.5V322.4z"/>
		</g>
		<g>
			<path fill="#8E398F" d="M224.1,366.7v-5.5h-1v-0.8h1v-0.7c0-0.7,0.2-1.2,0.5-1.6s0.9-0.6,1.5-0.6c0.3,0,0.5,0,0.7,0.1l-0.1,0.9
				c-0.2,0-0.4-0.1-0.6-0.1c-0.4,0-0.6,0.1-0.8,0.3s-0.3,0.5-0.3,0.9v0.7h1.4v0.8h-1.4v5.5H224.1z"/>
			<path fill="#8E398F" d="M231.6,366.7c-0.1-0.1-0.1-0.3-0.2-0.7c-0.5,0.5-1.1,0.8-1.8,0.8c-0.6,0-1.1-0.2-1.5-0.5
				s-0.6-0.8-0.6-1.3c0-0.7,0.3-1.2,0.8-1.5s1.2-0.5,2.1-0.5h1.1v-0.5c0-0.4-0.1-0.7-0.3-0.9s-0.6-0.3-1-0.3c-0.4,0-0.7,0.1-1,0.3
				s-0.4,0.4-0.4,0.7h-1.1c0-0.3,0.1-0.6,0.3-0.9s0.5-0.5,0.9-0.7s0.8-0.3,1.3-0.3c0.7,0,1.3,0.2,1.7,0.5s0.6,0.9,0.6,1.5v2.9
				c0,0.6,0.1,1,0.2,1.4v0.1H231.6z M229.8,365.9c0.3,0,0.7-0.1,1-0.3s0.5-0.4,0.7-0.7v-1.3h-0.8c-1.3,0-2,0.4-2,1.2
				c0,0.3,0.1,0.6,0.3,0.8S229.5,365.9,229.8,365.9z"/>
			<path fill="#8E398F" d="M236.8,365.9c0.4,0,0.7-0.1,1-0.4s0.4-0.5,0.5-0.9h1c0,0.4-0.1,0.7-0.4,1s-0.5,0.6-0.9,0.8
				s-0.8,0.3-1.2,0.3c-0.9,0-1.5-0.3-2.1-0.9s-0.8-1.4-0.8-2.4v-0.2c0-0.6,0.1-1.2,0.3-1.6s0.6-0.9,1-1.1s0.9-0.4,1.5-0.4
				c0.7,0,1.3,0.2,1.8,0.6s0.7,1,0.8,1.7h-1c0-0.4-0.2-0.7-0.5-1s-0.6-0.4-1-0.4c-0.6,0-1,0.2-1.3,0.6s-0.5,1-0.5,1.7v0.2
				c0,0.7,0.2,1.3,0.5,1.7S236.2,365.9,236.8,365.9z"/>
			<path fill="#8E398F" d="M242,358.8v1.5h1.2v0.8H242v3.9c0,0.3,0.1,0.4,0.2,0.6s0.3,0.2,0.5,0.2c0.1,0,0.3,0,0.5-0.1v0.9
				c-0.3,0.1-0.6,0.1-0.8,0.1c-0.5,0-0.8-0.1-1.1-0.4s-0.4-0.7-0.4-1.2v-3.9h-1.2v-0.8h1.2v-1.5H242z"/>
			<path fill="#8E398F" d="M244,363.5c0-0.6,0.1-1.2,0.4-1.7s0.6-0.9,1-1.1s0.9-0.4,1.5-0.4c0.9,0,1.6,0.3,2.1,0.9s0.8,1.4,0.8,2.4
				v0.1c0,0.6-0.1,1.2-0.4,1.7s-0.6,0.9-1,1.1s-0.9,0.4-1.5,0.4c-0.9,0-1.6-0.3-2.1-0.9S244,364.5,244,363.5L244,363.5z
				 M245.1,363.6c0,0.7,0.2,1.3,0.5,1.7s0.8,0.6,1.3,0.6c0.6,0,1-0.2,1.3-0.6s0.5-1,0.5-1.8c0-0.7-0.2-1.3-0.5-1.7s-0.8-0.6-1.3-0.6
				c-0.5,0-1,0.2-1.3,0.6S245.1,362.8,245.1,363.6z"/>
			<path fill="#8E398F" d="M254.2,361.3c-0.2,0-0.3,0-0.5,0c-0.7,0-1.2,0.3-1.4,0.9v4.5h-1.1v-6.3h1.1l0,0.7
				c0.4-0.6,0.9-0.8,1.5-0.8c0.2,0,0.4,0,0.5,0.1V361.3z"/>
			<path fill="#8E398F" d="M257.4,365.1l1.5-4.8h1.2l-2.5,7.3c-0.4,1.1-1,1.6-1.9,1.6l-0.2,0l-0.4-0.1v-0.9l0.3,0
				c0.4,0,0.7-0.1,0.9-0.2s0.4-0.4,0.5-0.8l0.2-0.6l-2.3-6.3h1.2L257.4,365.1z"/>
		</g>
		<g>
			<path fill="#8E398F" d="M259.6,323.1v27.2c0,1.3-1,2.3-2.3,2.3h-31.7c-1.3,0-2.3-1-2.3-2.3v-37.8c0-1.3,1-2.3,2.3-2.3h21.2
				c1.3,0,3,0.7,3.9,1.6l7.4,7.4C258.9,320.1,259.6,321.9,259.6,323.1z M256.6,325.4h-9.8c-1.3,0-2.3-1-2.3-2.3v-9.8h-18.1v36.3
				h30.2V325.4z M235.7,328.3l1.2,0.9c0.3,0.3,0.4,0.7,0.1,1.1l-4.3,5.7l4.3,5.7c0.3,0.3,0.2,0.8-0.1,1.1l-1.2,0.9
				c-0.3,0.3-0.8,0.2-1.1-0.1l-5.3-7.1c-0.2-0.3-0.2-0.6,0-0.9l5.3-7.1C234.9,328.1,235.4,328,235.7,328.3z M238.4,345.5l3.3-19.6
				c0.1-0.4,0.5-0.7,0.9-0.6l1.5,0.2c0.4,0.1,0.7,0.5,0.6,0.9l-3.3,19.6c-0.1,0.4-0.5,0.7-0.9,0.6l-1.5-0.2
				C238.5,346.3,238.3,345.9,238.4,345.5z M253.6,336.4l-5.3,7.1c-0.3,0.3-0.7,0.4-1.1,0.1l-1.2-0.9c-0.3-0.3-0.4-0.7-0.1-1.1
				l4.3-5.7l-4.3-5.7c-0.3-0.3-0.2-0.8,0.1-1.1l1.2-0.9c0.3-0.3,0.8-0.2,1.1,0.1l5.3,7.1C253.8,335.8,253.8,336.2,253.6,336.4z
				 M247.5,322.4h8.9c-0.1-0.4-0.4-0.8-0.5-1l-7.4-7.4c-0.2-0.2-0.6-0.4-1-0.5V322.4z"/>
		</g>
	</g>
	<g>
		<g>
			<line fill="none" stroke="#F2F2F2" stroke-width="2.2" stroke-miterlimit="10" x1="280.2" y1="99.3" x2="281.8" y2="99.3"/>
			
				<line fill="none" stroke="#F2F2F2" stroke-width="2.2" stroke-miterlimit="10" stroke-dasharray="3.2918,3.2918" x1="285.1" y1="99.3" x2="323" y2="99.3"/>
			<line fill="none" stroke="#F2F2F2" stroke-width="2.2" stroke-miterlimit="10" x1="324.6" y1="99.3" x2="326.3" y2="99.3"/>
		</g>
	</g>
	<g>
		<g>
			<line fill="none" stroke="#F2F2F2" stroke-width="2.2" stroke-miterlimit="10" x1="326.3" y1="99.3" x2="326.3" y2="101"/>
			
				<line fill="none" stroke="#F2F2F2" stroke-width="2.2" stroke-miterlimit="10" stroke-dasharray="3.3173,3.3173" x1="326.3" y1="104.3" x2="326.3" y2="328.2"/>
			<line fill="none" stroke="#F2F2F2" stroke-width="2.2" stroke-miterlimit="10" x1="326.3" y1="329.8" x2="326.3" y2="331.5"/>
		</g>
	</g>
	<g>
		<g>
			<line fill="none" stroke="#F2F2F2" stroke-width="2.2" stroke-miterlimit="10" x1="280.2" y1="210.5" x2="281.8" y2="210.5"/>
			
				<line fill="none" stroke="#F2F2F2" stroke-width="2.2" stroke-miterlimit="10" stroke-dasharray="3.2918,3.2918" x1="285.1" y1="210.5" x2="323" y2="210.5"/>
			<line fill="none" stroke="#F2F2F2" stroke-width="2.2" stroke-miterlimit="10" x1="324.6" y1="210.5" x2="326.3" y2="210.5"/>
		</g>
	</g>
	<g>
		<g>
			<line fill="none" stroke="#F2F2F2" stroke-width="2.2" stroke-miterlimit="10" x1="280.2" y1="331.4" x2="281.8" y2="331.4"/>
			
				<line fill="none" stroke="#F2F2F2" stroke-width="2.2" stroke-miterlimit="10" stroke-dasharray="3.2512,3.2512" x1="285.1" y1="331.4" x2="374.5" y2="331.4"/>
			<line fill="none" stroke="#F2F2F2" stroke-width="2.2" stroke-miterlimit="10" x1="376.1" y1="331.4" x2="377.7" y2="331.4"/>
			<g>
				<polygon fill="#F2F2F2" points="387.1,331.4 373.9,336.8 377,331.4 373.9,326.1 				"/>
			</g>
		</g>
	</g>
	<g>
		<g>
			<line fill="none" stroke="#F2F2F2" stroke-width="2.2" stroke-miterlimit="10" x1="440.6" y1="331.4" x2="442.3" y2="331.4"/>
			
				<line fill="none" stroke="#F2F2F2" stroke-width="2.2" stroke-miterlimit="10" stroke-dasharray="3.1776,3.1776" x1="445.5" y1="331.4" x2="513.8" y2="331.4"/>
			<line fill="none" stroke="#F2F2F2" stroke-width="2.2" stroke-miterlimit="10" x1="515.4" y1="331.4" x2="517" y2="331.4"/>
			<g>
				<polygon fill="#F2F2F2" points="526.3,331.4 513.2,336.8 516.3,331.4 513.2,326.1 				"/>
			</g>
		</g>
	</g>
	<g>
		<path opacity="0.2" fill="#FFFFFF" d="M130.6,77.4V62.3h-2.8v-3h2.8v-1.7c0-2,0.6-3.6,1.7-4.7c1.1-1.1,2.7-1.6,4.7-1.6
			c0.7,0,1.5,0.1,2.3,0.3l-0.1,3.2c-0.4-0.1-1-0.1-1.6-0.1c-1.9,0-2.9,1-2.9,3v1.6h3.7v3h-3.7v15.1H130.6z"/>
		<path opacity="0.2" fill="#FFFFFF" d="M148.2,77.8c-2.6,0-4.7-0.8-6.3-2.4c-1.6-1.6-2.4-3.8-2.4-6.5v-0.5c0-1.8,0.3-3.4,1-4.9
			c0.7-1.4,1.7-2.5,2.9-3.3c1.3-0.8,2.7-1.2,4.2-1.2c2.5,0,4.4,0.8,5.7,2.4c1.3,1.6,2,3.8,2,6.7v1.6h-11.8c0.1,1.5,0.6,2.7,1.5,3.6
			c0.9,0.9,2,1.3,3.3,1.3c1.9,0,3.4-0.8,4.6-2.3l2.2,2.1c-0.7,1.1-1.7,1.9-2.9,2.5S149.8,77.8,148.2,77.8z M147.8,62.2
			c-1.1,0-2,0.4-2.7,1.2c-0.7,0.8-1.1,1.9-1.3,3.3h7.8v-0.3c-0.1-1.4-0.5-2.4-1.1-3.1S148.9,62.2,147.8,62.2z"/>
		<path opacity="0.2" fill="#FFFFFF" d="M168.8,77.4c-0.2-0.3-0.3-0.9-0.5-1.7c-1.3,1.4-2.9,2-4.8,2c-1.8,0-3.3-0.5-4.5-1.6
			s-1.7-2.3-1.7-3.9c0-1.9,0.7-3.4,2.2-4.4c1.4-1,3.5-1.6,6.2-1.6h2.5v-1.2c0-0.9-0.3-1.7-0.8-2.3c-0.5-0.6-1.3-0.8-2.4-0.8
			c-0.9,0-1.7,0.2-2.3,0.7c-0.6,0.5-0.9,1.1-0.9,1.8h-4.1c0-1,0.3-1.9,1-2.8c0.7-0.9,1.6-1.5,2.7-2c1.1-0.5,2.4-0.7,3.8-0.7
			c2.1,0,3.8,0.5,5.1,1.6c1.3,1.1,1.9,2.6,1.9,4.5v8.2c0,1.6,0.2,2.9,0.7,3.9v0.3H168.8z M164.3,74.5c0.8,0,1.6-0.2,2.3-0.6
			c0.7-0.4,1.2-0.9,1.6-1.6v-3.4H166c-1.5,0-2.6,0.3-3.4,0.8c-0.8,0.5-1.1,1.3-1.1,2.2c0,0.8,0.3,1.4,0.8,1.9
			C162.8,74.3,163.5,74.5,164.3,74.5z"/>
		<path opacity="0.2" fill="#FFFFFF" d="M181,54.9v4.4h3.2v3H181v10.1c0,0.7,0.1,1.2,0.4,1.5c0.3,0.3,0.8,0.5,1.5,0.5
			c0.5,0,0.9-0.1,1.4-0.2v3.2c-0.9,0.3-1.8,0.4-2.7,0.4c-3.1,0-4.7-1.7-4.7-5.2V62.3h-3v-3h3v-4.4H181z"/>
		<path opacity="0.2" fill="#FFFFFF" d="M197.6,75.7c-1.2,1.4-2.9,2.1-5.1,2.1c-2,0-3.5-0.6-4.5-1.7c-1-1.2-1.5-2.8-1.5-5V59.3h4.1
			V71c0,2.3,1,3.5,2.9,3.5c2,0,3.3-0.7,4-2.1v-13h4.1v18.1h-3.8L197.6,75.7z"/>
		<path opacity="0.2" fill="#FFFFFF" d="M214.5,63c-0.5-0.1-1.1-0.1-1.7-0.1c-1.9,0-3.1,0.7-3.8,2.1v12.4H205V59.3h3.9l0.1,2
			c1-1.6,2.3-2.4,4.1-2.4c0.6,0,1.1,0.1,1.4,0.2L214.5,63z"/>
		<path opacity="0.2" fill="#FFFFFF" d="M224,77.8c-2.6,0-4.7-0.8-6.3-2.4c-1.6-1.6-2.4-3.8-2.4-6.5v-0.5c0-1.8,0.3-3.4,1-4.9
			c0.7-1.4,1.7-2.5,2.9-3.3c1.3-0.8,2.7-1.2,4.2-1.2c2.5,0,4.4,0.8,5.7,2.4c1.3,1.6,2,3.8,2,6.7v1.6h-11.8c0.1,1.5,0.6,2.7,1.5,3.6
			c0.9,0.9,2,1.3,3.3,1.3c1.9,0,3.4-0.8,4.6-2.3l2.2,2.1c-0.7,1.1-1.7,1.9-2.9,2.5S225.5,77.8,224,77.8z M223.5,62.2
			c-1.1,0-2,0.4-2.7,1.2c-0.7,0.8-1.1,1.9-1.3,3.3h7.8v-0.3c-0.1-1.4-0.5-2.4-1.1-3.1S224.7,62.2,223.5,62.2z"/>
	</g>
	<g>
		<path opacity="0.2" fill="#FFFFFF" d="M130.6,188.6v-15.1h-2.8v-3h2.8v-1.7c0-2,0.6-3.6,1.7-4.7c1.1-1.1,2.7-1.6,4.7-1.6
			c0.7,0,1.5,0.1,2.3,0.3l-0.1,3.2c-0.4-0.1-1-0.1-1.6-0.1c-1.9,0-2.9,1-2.9,3v1.6h3.7v3h-3.7v15.1H130.6z"/>
		<path opacity="0.2" fill="#FFFFFF" d="M148.2,188.9c-2.6,0-4.7-0.8-6.3-2.4c-1.6-1.6-2.4-3.8-2.4-6.5v-0.5c0-1.8,0.3-3.4,1-4.9
			s1.7-2.5,2.9-3.3c1.3-0.8,2.7-1.2,4.2-1.2c2.5,0,4.4,0.8,5.7,2.4c1.3,1.6,2,3.8,2,6.7v1.6h-11.8c0.1,1.5,0.6,2.7,1.5,3.6
			c0.9,0.9,2,1.3,3.3,1.3c1.9,0,3.4-0.8,4.6-2.3l2.2,2.1c-0.7,1.1-1.7,1.9-2.9,2.5S149.8,188.9,148.2,188.9z M147.8,173.4
			c-1.1,0-2,0.4-2.7,1.2c-0.7,0.8-1.1,1.9-1.3,3.3h7.8v-0.3c-0.1-1.4-0.5-2.4-1.1-3.1S148.9,173.4,147.8,173.4z"/>
		<path opacity="0.2" fill="#FFFFFF" d="M168.8,188.6c-0.2-0.3-0.3-0.9-0.5-1.7c-1.3,1.4-2.9,2-4.8,2c-1.8,0-3.3-0.5-4.5-1.6
			s-1.7-2.3-1.7-3.9c0-1.9,0.7-3.4,2.2-4.4c1.4-1,3.5-1.6,6.2-1.6h2.5v-1.2c0-0.9-0.3-1.7-0.8-2.3c-0.5-0.6-1.3-0.8-2.4-0.8
			c-0.9,0-1.7,0.2-2.3,0.7s-0.9,1.1-0.9,1.8h-4.1c0-1,0.3-1.9,1-2.8c0.7-0.9,1.6-1.5,2.7-2c1.1-0.5,2.4-0.7,3.8-0.7
			c2.1,0,3.8,0.5,5.1,1.6c1.3,1.1,1.9,2.6,1.9,4.5v8.2c0,1.6,0.2,2.9,0.7,3.9v0.3H168.8z M164.3,185.7c0.8,0,1.6-0.2,2.3-0.6
			c0.7-0.4,1.2-0.9,1.6-1.6v-3.4H166c-1.5,0-2.6,0.3-3.4,0.8c-0.8,0.5-1.1,1.3-1.1,2.2c0,0.8,0.3,1.4,0.8,1.9
			C162.8,185.4,163.5,185.7,164.3,185.7z"/>
		<path opacity="0.2" fill="#FFFFFF" d="M181,166.1v4.4h3.2v3H181v10.1c0,0.7,0.1,1.2,0.4,1.5c0.3,0.3,0.8,0.5,1.5,0.5
			c0.5,0,0.9-0.1,1.4-0.2v3.2c-0.9,0.3-1.8,0.4-2.7,0.4c-3.1,0-4.7-1.7-4.7-5.2v-10.3h-3v-3h3v-4.4H181z"/>
		<path opacity="0.2" fill="#FFFFFF" d="M197.6,186.8c-1.2,1.4-2.9,2.1-5.1,2.1c-2,0-3.5-0.6-4.5-1.7c-1-1.2-1.5-2.8-1.5-5v-11.7
			h4.1v11.7c0,2.3,1,3.5,2.9,3.5c2,0,3.3-0.7,4-2.1v-13h4.1v18.1h-3.8L197.6,186.8z"/>
		<path opacity="0.2" fill="#FFFFFF" d="M214.5,174.2c-0.5-0.1-1.1-0.1-1.7-0.1c-1.9,0-3.1,0.7-3.8,2.1v12.4H205v-18.1h3.9l0.1,2
			c1-1.6,2.3-2.4,4.1-2.4c0.6,0,1.1,0.1,1.4,0.2L214.5,174.2z"/>
		<path opacity="0.2" fill="#FFFFFF" d="M224,188.9c-2.6,0-4.7-0.8-6.3-2.4c-1.6-1.6-2.4-3.8-2.4-6.5v-0.5c0-1.8,0.3-3.4,1-4.9
			c0.7-1.4,1.7-2.5,2.9-3.3c1.3-0.8,2.7-1.2,4.2-1.2c2.5,0,4.4,0.8,5.7,2.4c1.3,1.6,2,3.8,2,6.7v1.6h-11.8c0.1,1.5,0.6,2.7,1.5,3.6
			c0.9,0.9,2,1.3,3.3,1.3c1.9,0,3.4-0.8,4.6-2.3l2.2,2.1c-0.7,1.1-1.7,1.9-2.9,2.5C226.9,188.6,225.5,188.9,224,188.9z M223.5,173.4
			c-1.1,0-2,0.4-2.7,1.2c-0.7,0.8-1.1,1.9-1.3,3.3h7.8v-0.3c-0.1-1.4-0.5-2.4-1.1-3.1S224.7,173.4,223.5,173.4z"/>
	</g>
	<g>
		<path opacity="0.2" fill="#FFFFFF" d="M130.6,299.8v-15.1h-2.8v-3h2.8V280c0-2,0.6-3.6,1.7-4.7s2.7-1.6,4.7-1.6
			c0.7,0,1.5,0.1,2.3,0.3l-0.1,3.2c-0.4-0.1-1-0.1-1.6-0.1c-1.9,0-2.9,1-2.9,3v1.6h3.7v3h-3.7v15.1H130.6z"/>
		<path opacity="0.2" fill="#FFFFFF" d="M148.2,300.1c-2.6,0-4.7-0.8-6.3-2.4c-1.6-1.6-2.4-3.8-2.4-6.5v-0.5c0-1.8,0.3-3.4,1-4.9
			s1.7-2.5,2.9-3.3c1.3-0.8,2.7-1.2,4.2-1.2c2.5,0,4.4,0.8,5.7,2.4c1.3,1.6,2,3.8,2,6.7v1.6h-11.8c0.1,1.5,0.6,2.7,1.5,3.6
			c0.9,0.9,2,1.3,3.3,1.3c1.9,0,3.4-0.8,4.6-2.3l2.2,2.1c-0.7,1.1-1.7,1.9-2.9,2.5S149.8,300.1,148.2,300.1z M147.8,284.6
			c-1.1,0-2,0.4-2.7,1.2c-0.7,0.8-1.1,1.9-1.3,3.3h7.8v-0.3c-0.1-1.4-0.5-2.4-1.1-3.1S148.9,284.6,147.8,284.6z"/>
		<path opacity="0.2" fill="#FFFFFF" d="M168.8,299.8c-0.2-0.3-0.3-0.9-0.5-1.7c-1.3,1.4-2.9,2-4.8,2c-1.8,0-3.3-0.5-4.5-1.6
			s-1.7-2.3-1.7-3.9c0-1.9,0.7-3.4,2.2-4.4c1.4-1,3.5-1.6,6.2-1.6h2.5v-1.2c0-0.9-0.3-1.7-0.8-2.3c-0.5-0.6-1.3-0.8-2.4-0.8
			c-0.9,0-1.7,0.2-2.3,0.7s-0.9,1.1-0.9,1.8h-4.1c0-1,0.3-1.9,1-2.8c0.7-0.9,1.6-1.5,2.7-2c1.1-0.5,2.4-0.7,3.8-0.7
			c2.1,0,3.8,0.5,5.1,1.6c1.3,1.1,1.9,2.6,1.9,4.5v8.2c0,1.6,0.2,2.9,0.7,3.9v0.3H168.8z M164.3,296.8c0.8,0,1.6-0.2,2.3-0.6
			c0.7-0.4,1.2-0.9,1.6-1.6v-3.4H166c-1.5,0-2.6,0.3-3.4,0.8c-0.8,0.5-1.1,1.3-1.1,2.2c0,0.8,0.3,1.4,0.8,1.9
			C162.8,296.6,163.5,296.8,164.3,296.8z"/>
		<path opacity="0.2" fill="#FFFFFF" d="M181,277.2v4.4h3.2v3H181v10.1c0,0.7,0.1,1.2,0.4,1.5c0.3,0.3,0.8,0.5,1.5,0.5
			c0.5,0,0.9-0.1,1.4-0.2v3.2c-0.9,0.3-1.8,0.4-2.7,0.4c-3.1,0-4.7-1.7-4.7-5.2v-10.3h-3v-3h3v-4.4H181z"/>
		<path opacity="0.2" fill="#FFFFFF" d="M197.6,298c-1.2,1.4-2.9,2.1-5.1,2.1c-2,0-3.5-0.6-4.5-1.7c-1-1.2-1.5-2.8-1.5-5v-11.7h4.1
			v11.7c0,2.3,1,3.5,2.9,3.5c2,0,3.3-0.7,4-2.1v-13h4.1v18.1h-3.8L197.6,298z"/>
		<path opacity="0.2" fill="#FFFFFF" d="M214.5,285.3c-0.5-0.1-1.1-0.1-1.7-0.1c-1.9,0-3.1,0.7-3.8,2.1v12.4H205v-18.1h3.9l0.1,2
			c1-1.6,2.3-2.4,4.1-2.4c0.6,0,1.1,0.1,1.4,0.2L214.5,285.3z"/>
		<path opacity="0.2" fill="#FFFFFF" d="M224,300.1c-2.6,0-4.7-0.8-6.3-2.4c-1.6-1.6-2.4-3.8-2.4-6.5v-0.5c0-1.8,0.3-3.4,1-4.9
			c0.7-1.4,1.7-2.5,2.9-3.3c1.3-0.8,2.7-1.2,4.2-1.2c2.5,0,4.4,0.8,5.7,2.4c1.3,1.6,2,3.8,2,6.7v1.6h-11.8c0.1,1.5,0.6,2.7,1.5,3.6
			c0.9,0.9,2,1.3,3.3,1.3c1.9,0,3.4-0.8,4.6-2.3l2.2,2.1c-0.7,1.1-1.7,1.9-2.9,2.5C226.9,299.8,225.5,300.1,224,300.1z M223.5,284.6
			c-1.1,0-2,0.4-2.7,1.2c-0.7,0.8-1.1,1.9-1.3,3.3h7.8v-0.3c-0.1-1.4-0.5-2.4-1.1-3.1S224.7,284.6,223.5,284.6z"/>
	</g>
</g>
</svg>
