<?xml version="1.0" encoding="utf-8"?>
<!-- Generator: Adobe Illustrator 16.0.0, SVG Export Plug-In . SVG Version: 6.00 Build 0)  -->
<!DOCTYPE svg PUBLIC "-//W3C//DTD SVG 1.1//EN" "http://www.w3.org/Graphics/SVG/1.1/DTD/svg11.dtd">
<svg version="1.1" id="Layer_1" xmlns="http://www.w3.org/2000/svg" xmlns:xlink="http://www.w3.org/1999/xlink" x="0px" y="0px"
	 width="489.8px" height="263.8px" viewBox="0 0 489.8 263.8" enable-background="new 0 0 489.8 263.8" xml:space="preserve">
<polygon fill="#69B145" points="133.9,8.8 250.5,56.2 250.5,66.1 131.9,112.3 13.8,66.1 13.8,55.1 "/>
<g>
	<path fill="#F2F2F2" d="M263.8,182.6c0,7.5-4.1,14.3-10.6,17.8l-111.6,60.9c-3,1.7-6.3,2.5-9.7,2.5c-3.3,0-6.7-0.8-9.7-2.5
		L10.6,200.4C4.1,196.9,0,190.1,0,182.6V60.9c0-8.6,5.4-16.2,13.3-19L124.9,1.3c2.2-0.8,4.6-1.3,7-1.3c2.4,0,4.8,0.5,7,1.3
		l111.6,40.6c7.9,2.9,13.3,10.5,13.3,19V182.6z M242.5,60.6L131.9,20.3L21.2,60.6l110.6,40.3L242.5,60.6z M243.5,182.6V81.8
		L142,118.7v119.2L243.5,182.6z"/>
</g>
<g>
	<path fill="#F2F2F2" d="M83,69.7c1,0,1.9-0.3,2.6-0.9c0.7-0.6,1.2-1.4,1.2-2.3h2.6c-0.1,0.9-0.4,1.8-1,2.7c-0.6,0.8-1.4,1.5-2.4,2
		c-1,0.5-2,0.8-3.1,0.8c-2.2,0-4-0.7-5.3-2.2c-1.3-1.5-2-3.5-2-6.1v-0.5c0-1.6,0.3-3,0.9-4.2s1.4-2.2,2.5-2.9c1.1-0.7,2.4-1,3.9-1
		c1.8,0,3.3,0.5,4.6,1.6c1.2,1.1,1.9,2.5,1.9,4.3h-2.6c-0.1-1.1-0.5-1.9-1.2-2.6c-0.7-0.7-1.6-1-2.7-1c-1.4,0-2.5,0.5-3.3,1.5
		c-0.8,1-1.2,2.5-1.2,4.4v0.5c0,1.9,0.4,3.3,1.2,4.3S81.6,69.7,83,69.7z"/>
	<path fill="#F2F2F2" d="M90.6,63.4c0-1.6,0.3-3,0.9-4.3c0.6-1.3,1.5-2.3,2.6-3c1.1-0.7,2.4-1,3.8-1c2.2,0,4,0.8,5.4,2.3
		c1.4,1.5,2.1,3.6,2.1,6.1v0.2c0,1.6-0.3,3-0.9,4.3c-0.6,1.3-1.5,2.2-2.6,2.9c-1.1,0.7-2.4,1.1-3.9,1.1c-2.2,0-4-0.8-5.4-2.3
		s-2.1-3.6-2.1-6.1V63.4z M93.4,63.7c0,1.8,0.4,3.3,1.3,4.4c0.8,1.1,2,1.6,3.4,1.6c1.4,0,2.5-0.6,3.4-1.7c0.8-1.1,1.2-2.7,1.2-4.7
		c0-1.8-0.4-3.2-1.3-4.3c-0.8-1.1-2-1.7-3.4-1.7c-1.4,0-2.5,0.5-3.3,1.6C93.8,60.1,93.4,61.7,93.4,63.7z"/>
	<path fill="#F2F2F2" d="M110.3,55.4l0.1,2c1.2-1.6,2.9-2.3,4.9-2.3c3.4,0,5.2,1.9,5.2,5.8v10.8h-2.8V60.9c0-1.2-0.3-2-0.8-2.6
		c-0.5-0.6-1.3-0.8-2.5-0.8c-0.9,0-1.7,0.2-2.4,0.7s-1.2,1.1-1.6,1.9v11.6h-2.8V55.4H110.3z"/>
	<path fill="#F2F2F2" d="M127.3,51.4v3.9h3v2.2h-3v10.1c0,0.7,0.1,1.1,0.4,1.5c0.3,0.3,0.7,0.5,1.4,0.5c0.3,0,0.8-0.1,1.3-0.2v2.2
		c-0.7,0.2-1.4,0.3-2.1,0.3c-1.2,0-2.2-0.4-2.8-1.1s-0.9-1.8-0.9-3.2V57.5h-3v-2.2h3v-3.9H127.3z"/>
	<path fill="#F2F2F2" d="M140.2,57.9c-0.4-0.1-0.9-0.1-1.4-0.1c-1.8,0-3.1,0.8-3.7,2.3v11.6h-2.8V55.4h2.7l0,1.9
		c0.9-1.5,2.2-2.2,3.9-2.2c0.5,0,1,0.1,1.2,0.2V57.9z"/>
	<path fill="#F2F2F2" d="M140.5,63.4c0-1.6,0.3-3,0.9-4.3c0.6-1.3,1.5-2.3,2.6-3c1.1-0.7,2.4-1,3.8-1c2.2,0,4,0.8,5.4,2.3
		c1.4,1.5,2.1,3.6,2.1,6.1v0.2c0,1.6-0.3,3-0.9,4.3c-0.6,1.3-1.5,2.2-2.6,2.9c-1.1,0.7-2.4,1.1-3.9,1.1c-2.2,0-4-0.8-5.4-2.3
		s-2.1-3.6-2.1-6.1V63.4z M143.3,63.7c0,1.8,0.4,3.3,1.3,4.4c0.8,1.1,2,1.6,3.4,1.6c1.4,0,2.5-0.6,3.4-1.7c0.8-1.1,1.2-2.7,1.2-4.7
		c0-1.8-0.4-3.2-1.3-4.3c-0.8-1.1-2-1.7-3.4-1.7c-1.4,0-2.5,0.5-3.3,1.6C143.7,60.1,143.3,61.7,143.3,63.7z"/>
	<path fill="#F2F2F2" d="M160.6,71.7h-2.8V48.6h2.8V71.7z"/>
	<path fill="#F2F2F2" d="M166.9,71.7h-2.8V48.6h2.8V71.7z"/>
	<path fill="#F2F2F2" d="M176.8,72c-2.2,0-4-0.7-5.4-2.2c-1.4-1.5-2.1-3.4-2.1-5.8v-0.5c0-1.6,0.3-3.1,0.9-4.3
		c0.6-1.3,1.5-2.3,2.6-3c1.1-0.7,2.3-1.1,3.6-1.1c2.1,0,3.8,0.7,4.9,2.1s1.8,3.4,1.8,6v1.2h-11c0,1.6,0.5,2.9,1.4,3.9
		c0.9,1,2,1.5,3.4,1.5c1,0,1.8-0.2,2.5-0.6c0.7-0.4,1.3-0.9,1.8-1.6l1.7,1.3C181.6,70.9,179.6,72,176.8,72z M176.5,57.4
		c-1.1,0-2.1,0.4-2.8,1.2c-0.8,0.8-1.2,2-1.4,3.4h8.2v-0.2c-0.1-1.4-0.5-2.5-1.1-3.3C178.6,57.8,177.7,57.4,176.5,57.4z"/>
	<path fill="#F2F2F2" d="M193.1,57.9c-0.4-0.1-0.9-0.1-1.4-0.1c-1.8,0-3.1,0.8-3.7,2.3v11.6h-2.8V55.4h2.7l0,1.9
		c0.9-1.5,2.2-2.2,3.9-2.2c0.5,0,1,0.1,1.2,0.2V57.9z"/>
</g>
<g>
	<path fill="#36474F" d="M84.9,164.9c0,0.8-0.5,1.5-1.3,1.2l-8.9-2.9c-0.4,1.4-1,2.6-1.7,3.8c1.7,3.3,3.4,6.5,5.3,9.8
		c0.2,0.5,0.4,1,0.4,1.5c0,0.4-0.1,0.8-0.4,1c-1.1,1.1-7.3,5.4-8.9,4.5c-0.5-0.2-0.8-0.6-1.2-1.1l-6.5-8.9c-1.3,0.1-2.7,0-4.1-0.3
		c-0.2,3-0.4,6.2-1.1,8.8c-0.2,0.7-0.8,1-1.6,0.6l-9.7-5.4c-0.7-0.4-1.4-1.4-1.6-2.3l-1.3-9.7c-1.3-1.2-2.6-2.5-3.8-3.8l-5.8,2.1
		c-0.2,0.2-0.6,0.1-1-0.1c-0.4-0.2-0.7-0.6-1-1c-1.3-2-6.9-11.1-6.9-12.7c0-0.4,0.1-0.7,0.3-0.9c1.4-1.4,2.8-2.8,4.1-4.3
		c-0.7-1.9-1.2-3.6-1.7-5.4l-7-4.8c-0.6-0.4-1.1-1.4-1.1-2.1v-10c0-0.7,0.4-1.3,1-1.1l7.1,2c0.4-1.3,0.9-2.4,1.5-3.5
		c-1.3-2.8-2.7-5.4-4.2-8.1c-0.2-0.4-0.3-0.8-0.3-1.2c0-0.4,0.1-0.7,0.3-0.9c0.9-1,6.1-5.4,7.4-4.8c0.4,0.2,0.7,0.5,1,0.8l5.5,7.3
		c1.2-0.2,2.4-0.2,3.7-0.2c0.2-2.7,0.4-5.6,1-8.1c0.2-0.7,0.8-1,1.5-0.7l9.3,3.8c0.7,0.3,1.4,1.2,1.6,2.1l1.4,9.3
		c1.4,1,2.7,2.2,4,3.5l6.2-2.5c0.3-0.2,0.7-0.1,1.1,0c0.4,0.2,0.8,0.5,1.2,1c1.5,2,8.2,11.3,8.2,13c0,0.4-0.1,0.7-0.4,1
		c-1.6,1.6-3.2,3.1-4.7,4.7c0.8,2,1.5,3.9,2,5.8l8.7,5.4c0.8,0.6,1.4,1.6,1.5,2.5L84.9,164.9z M49.5,127.4
		c-7.1-3.2-12.6,0.7-12.6,8.6c0.1,8,5.8,17.5,13,21.2c7.4,3.8,13.4-0.1,13.2-8.6C63,140.2,56.8,130.7,49.5,127.4z M123.3,148.7
		c0.1,1-8.3-1.7-9.6-2.2c-0.5,1-1,1.8-1.8,2.5c0.6,1.6,3.6,9.3,3.7,10.5c0,0.2,0,0.3-0.2,0.3c-0.8,0.1-7.4,1.1-7.7,1
		c-0.8-0.4-5.8-9-6.4-10.2c-0.6-0.2-1.2-0.4-1.8-0.7c-0.6-0.3-1.2-0.6-1.8-1c-0.6,0.7-4.9,4.9-5.6,4.6c-0.3-0.1-6.7-7-7.5-7.8
		c-0.2-0.2-0.2-0.4-0.2-0.5c0-1.1,2.2-6.2,2.7-7.2c-0.7-1.3-1.3-2.6-1.8-4c-1.2-0.6-8.5-4.7-8.5-5.6l-0.2-8.4c0-0.9,7.2,1.3,8.4,1.6
		c0.4-0.9,1-1.8,1.6-2.4c-0.6-1.4-3.2-8.4-3.2-9.5c0-0.1,0-0.3,0.2-0.3c0.7-0.1,6.7-1.5,7-1.4c0.8,0.3,5.4,8,6,9.2
		c0.6,0.2,1.2,0.3,1.8,0.6c0.6,0.2,1.2,0.5,1.8,0.8c1.6-1.7,3.3-3.4,5.3-4.8l0.4,0c0.3,0.1,7.2,6.6,7.9,7.4c0.2,0.2,0.3,0.4,0.3,0.5
		c0.1,1.1-2.3,6.4-2.8,7.5c0.8,1.3,1.5,2.7,2.1,4.1c1.3,0.7,9.7,5,9.7,6L123.3,148.7z M127,218.6c0.1,1.1-8.7-2.8-10-3.4
		c-0.5,1-1.1,1.8-1.8,2.5c0.7,1.7,3.8,10.3,3.9,11.6c0,0.2,0,0.3-0.2,0.3c-0.8,0-7.7,0.4-8,0.2c-0.9-0.5-6-10.2-6.7-11.6
		c-0.6-0.3-1.3-0.6-1.9-1c-0.6-0.4-1.3-0.8-1.9-1.2c-0.6,0.7-5,4.7-5.8,4.2c-0.3-0.2-7-8.2-7.7-9.1c-0.2-0.2-0.2-0.5-0.3-0.6
		c0-1.1,2.3-6.3,2.8-7.4c-0.8-1.5-1.4-2.9-1.9-4.4c-1.2-0.8-8.8-5.9-8.9-6.8l-0.3-8.9c0-1,7.5,2.1,8.7,2.6c0.4-0.9,1-1.8,1.7-2.4
		c-0.6-1.6-3.3-9.3-3.3-10.4c0-0.1,0.1-0.3,0.2-0.3c0.7,0,6.9-0.9,7.2-0.8c0.8,0.4,5.6,9.1,6.3,10.4c0.6,0.2,1.2,0.5,1.9,0.8
		c0.6,0.3,1.3,0.7,1.9,1.1c1.7-1.7,3.4-3.3,5.5-4.5l0.4,0.1c0.3,0.2,7.5,7.8,8.3,8.7c0.2,0.2,0.3,0.5,0.3,0.6
		c0.1,1.2-2.4,6.6-2.9,7.7c0.8,1.5,1.6,3.1,2.1,4.6c1.3,0.8,10.1,6.4,10.1,7.4L127,218.6z M98.5,125.8c-4.2-1.7-7.5,0.4-7.3,4.7
		c0.2,4.4,3.7,9.4,8,11.3c4.4,1.9,7.7-0.3,7.5-4.7C106.5,132.7,102.7,127.5,98.5,125.8z M101.1,191.5c-4.4-2.3-7.8-0.3-7.6,4.2
		c0.2,4.7,3.9,10.4,8.3,12.9c4.5,2.5,8,0.6,7.8-4.2C109.5,199.7,105.6,193.8,101.1,191.5z"/>
</g>
<polygon fill="#E16B26" points="435.7,117.1 484.3,136.9 484.3,141 434.8,160.3 385.5,141 385.5,136.4 "/>
<g>
	<path fill="#F2F2F2" d="M489.8,189.6c0,3.1-1.7,6-4.4,7.4l-46.6,25.4c-1.3,0.7-2.6,1.1-4,1.1c-1.4,0-2.8-0.3-4-1.1l-46.6-25.4
		c-2.7-1.5-4.4-4.3-4.4-7.4v-50.8c0-3.6,2.3-6.7,5.6-7.9l46.6-16.9c0.9-0.3,1.9-0.5,2.9-0.5c1,0,2,0.2,2.9,0.5l46.6,16.9
		c3.3,1.2,5.6,4.4,5.6,7.9V189.6z M481,138.7l-46.2-16.8l-46.2,16.8l46.2,16.8L481,138.7z M481.4,189.6v-42.1L439.1,163v49.7
		L481.4,189.6z"/>
</g>
<g>
	<path fill="#F2F2F2" d="M421.6,141.6c0-0.3-0.1-0.6-0.4-0.7c-0.2-0.2-0.6-0.3-1.2-0.4c-0.6-0.1-1.1-0.3-1.4-0.5s-0.6-0.4-0.8-0.6
		c-0.2-0.2-0.2-0.5-0.2-0.9c0-0.6,0.2-1,0.7-1.4c0.5-0.4,1.1-0.6,1.8-0.6c0.8,0,1.4,0.2,1.9,0.6c0.5,0.4,0.7,0.9,0.7,1.5h-1.2
		c0-0.3-0.1-0.6-0.4-0.8c-0.3-0.2-0.6-0.3-1-0.3c-0.4,0-0.8,0.1-1,0.3c-0.2,0.2-0.4,0.4-0.4,0.7c0,0.3,0.1,0.5,0.3,0.6
		c0.2,0.1,0.6,0.3,1.2,0.4c0.6,0.1,1,0.3,1.4,0.5c0.4,0.2,0.6,0.4,0.8,0.6c0.2,0.3,0.3,0.6,0.3,0.9c0,0.6-0.2,1.1-0.7,1.5
		c-0.5,0.4-1.1,0.5-1.9,0.5c-0.5,0-1-0.1-1.4-0.3s-0.7-0.5-1-0.8c-0.2-0.3-0.4-0.7-0.4-1.1h1.2c0,0.4,0.2,0.7,0.5,0.9
		s0.7,0.3,1.2,0.3c0.4,0,0.8-0.1,1.1-0.3C421.5,142.1,421.6,141.9,421.6,141.6z"/>
	<path fill="#F2F2F2" d="M426.6,143.5c-0.9,0-1.7-0.3-2.2-0.9s-0.9-1.4-0.9-2.4v-0.2c0-0.7,0.1-1.3,0.4-1.8c0.3-0.5,0.6-0.9,1.1-1.2
		s1-0.4,1.5-0.4c0.9,0,1.6,0.3,2.1,0.9s0.7,1.4,0.7,2.5v0.5h-4.6c0,0.7,0.2,1.2,0.6,1.6c0.4,0.4,0.9,0.6,1.4,0.6
		c0.4,0,0.8-0.1,1-0.3c0.3-0.2,0.5-0.4,0.7-0.7l0.7,0.6C428.6,143,427.8,143.5,426.6,143.5z M426.5,137.4c-0.5,0-0.9,0.2-1.2,0.5
		c-0.3,0.3-0.5,0.8-0.6,1.4h3.4v-0.1c0-0.6-0.2-1-0.5-1.4C427.4,137.6,427,137.4,426.5,137.4z"/>
	<path fill="#F2F2F2" d="M433.4,137.6c-0.2,0-0.4,0-0.6,0c-0.8,0-1.3,0.3-1.6,1v4.8h-1.2v-6.8h1.1l0,0.8c0.4-0.6,0.9-0.9,1.6-0.9
		c0.2,0,0.4,0,0.5,0.1V137.6z"/>
	<path fill="#F2F2F2" d="M436.3,141.8l1.7-5.2h1.2l-2.4,6.8h-0.9l-2.5-6.8h1.2L436.3,141.8z"/>
	<path fill="#F2F2F2" d="M439.8,134.8c0-0.2,0.1-0.3,0.2-0.5s0.3-0.2,0.5-0.2c0.2,0,0.4,0.1,0.5,0.2s0.2,0.3,0.2,0.5
		c0,0.2-0.1,0.3-0.2,0.5s-0.3,0.2-0.5,0.2c-0.2,0-0.4-0.1-0.5-0.2S439.8,134.9,439.8,134.8z M441,143.4h-1.2v-6.8h1.2V143.4z"/>
	<path fill="#F2F2F2" d="M445.1,142.5c0.4,0,0.8-0.1,1.1-0.4c0.3-0.3,0.5-0.6,0.5-0.9h1.1c0,0.4-0.2,0.8-0.4,1.1s-0.6,0.6-1,0.8
		c-0.4,0.2-0.8,0.3-1.3,0.3c-0.9,0-1.7-0.3-2.2-0.9c-0.5-0.6-0.8-1.5-0.8-2.5v-0.2c0-0.7,0.1-1.3,0.4-1.8c0.2-0.5,0.6-0.9,1-1.2
		c0.5-0.3,1-0.4,1.6-0.4c0.8,0,1.4,0.2,1.9,0.7c0.5,0.5,0.8,1,0.8,1.8h-1.1c0-0.4-0.2-0.8-0.5-1.1c-0.3-0.3-0.7-0.4-1.1-0.4
		c-0.6,0-1,0.2-1.4,0.6c-0.3,0.4-0.5,1-0.5,1.8v0.2c0,0.8,0.2,1.4,0.5,1.8C444.1,142.3,444.5,142.5,445.1,142.5z"/>
	<path fill="#F2F2F2" d="M451.4,143.5c-0.9,0-1.7-0.3-2.2-0.9s-0.9-1.4-0.9-2.4v-0.2c0-0.7,0.1-1.3,0.4-1.8c0.3-0.5,0.6-0.9,1.1-1.2
		s1-0.4,1.5-0.4c0.9,0,1.6,0.3,2.1,0.9s0.7,1.4,0.7,2.5v0.5h-4.6c0,0.7,0.2,1.2,0.6,1.6c0.4,0.4,0.9,0.6,1.4,0.6
		c0.4,0,0.8-0.1,1-0.3c0.3-0.2,0.5-0.4,0.7-0.7l0.7,0.6C453.4,143,452.6,143.5,451.4,143.5z M451.3,137.4c-0.5,0-0.9,0.2-1.2,0.5
		c-0.3,0.3-0.5,0.8-0.6,1.4h3.4v-0.1c0-0.6-0.2-1-0.5-1.4C452.2,137.6,451.8,137.4,451.3,137.4z"/>
</g>
<path fill="#36474F" d="M431,178.3l-9.9,7.8c-0.2,0.1-0.4,0.1-0.6,0c-0.4-0.2-0.8-0.9-0.7-1.5l0.6-6.9L386.3,163
	c-0.4-0.2-0.7-0.8-0.7-1.4v-6.9c0-0.6,0.4-1,0.8-0.9l34.9,14.4l0.6-7.4c0.1-0.7,0.5-1.1,1-0.9c0.3,0.1,0.5,0.3,0.6,0.7l7.7,16
	c0.1,0.3,0.2,0.7,0.2,1C431.3,177.8,431.2,178.1,431,178.3z M428.4,203.4c-0.1,0.6-0.5,0.9-1,0.6l-33.4-16l-0.1,6
	c0,0.5-0.3,0.8-0.7,0.6c-0.2-0.1-0.4-0.3-0.5-0.6l-6.9-13.4c-0.1-0.3-0.2-0.5-0.2-0.8c0-0.3,0.1-0.5,0.2-0.6l7.4-7.3
	c0.1-0.1,0.4-0.2,0.5-0.1c0.4,0.2,0.7,0.8,0.7,1.4l-0.1,6.5l34.2,15.7c0.5,0.2,0.8,0.9,0.7,1.5L428.4,203.4z"/>
<g opacity="0.2">
	<g>
		<polygon fill="#E16B26" points="191.5,122 228.1,136.8 228.1,140 190.9,154.5 153.9,140 153.9,136.5 		"/>
		<g>
			<path fill="#F2F2F2" d="M232.3,176.5c0,2.3-1.3,4.5-3.3,5.6l-35,19.1c-0.9,0.5-2,0.8-3,0.8c-1,0-2.1-0.2-3-0.8l-35-19.1
				c-2-1.1-3.3-3.2-3.3-5.6v-38.2c0-2.7,1.7-5.1,4.2-6l35-12.7c0.7-0.2,1.4-0.4,2.2-0.4s1.5,0.2,2.2,0.4l35,12.7
				c2.5,0.9,4.2,3.3,4.2,6V176.5z M225.6,138.2l-34.7-12.6l-34.7,12.6l34.7,12.6L225.6,138.2z M225.9,176.5v-31.6l-31.8,11.6v37.4
				L225.9,176.5z"/>
		</g>
		<g>
			<path fill="#F2F2F2" d="M181,140.4c0-0.2-0.1-0.4-0.3-0.5s-0.5-0.2-0.9-0.3c-0.4-0.1-0.8-0.2-1.1-0.3c-0.3-0.1-0.5-0.3-0.6-0.5
				c-0.1-0.2-0.2-0.4-0.2-0.7c0-0.4,0.2-0.8,0.5-1.1c0.4-0.3,0.8-0.4,1.4-0.4c0.6,0,1,0.1,1.4,0.4c0.4,0.3,0.5,0.7,0.5,1.1h-0.9
				c0-0.2-0.1-0.4-0.3-0.6c-0.2-0.2-0.5-0.3-0.8-0.3c-0.3,0-0.6,0.1-0.7,0.2c-0.2,0.1-0.3,0.3-0.3,0.5c0,0.2,0.1,0.4,0.3,0.5
				c0.2,0.1,0.5,0.2,0.9,0.3c0.4,0.1,0.8,0.2,1.1,0.3c0.3,0.1,0.5,0.3,0.6,0.5s0.2,0.4,0.2,0.7c0,0.5-0.2,0.8-0.5,1.1
				s-0.8,0.4-1.4,0.4c-0.4,0-0.8-0.1-1.1-0.2c-0.3-0.1-0.6-0.3-0.7-0.6c-0.2-0.3-0.3-0.5-0.3-0.8h0.9c0,0.3,0.1,0.5,0.4,0.7
				s0.5,0.3,0.9,0.3c0.3,0,0.6-0.1,0.8-0.2S181,140.6,181,140.4z"/>
			<path fill="#F2F2F2" d="M184.7,141.8c-0.7,0-1.3-0.2-1.7-0.7s-0.7-1.1-0.7-1.8v-0.2c0-0.5,0.1-1,0.3-1.4s0.5-0.7,0.8-0.9
				c0.3-0.2,0.7-0.3,1.1-0.3c0.7,0,1.2,0.2,1.5,0.7c0.4,0.4,0.6,1.1,0.6,1.9v0.4h-3.5c0,0.5,0.2,0.9,0.4,1.2
				c0.3,0.3,0.6,0.5,1.1,0.5c0.3,0,0.6-0.1,0.8-0.2s0.4-0.3,0.6-0.5l0.5,0.4C186.2,141.5,185.6,141.8,184.7,141.8z M184.6,137.2
				c-0.4,0-0.6,0.1-0.9,0.4c-0.2,0.3-0.4,0.6-0.4,1.1h2.6v-0.1c0-0.4-0.1-0.8-0.4-1C185.3,137.3,185,137.2,184.6,137.2z"/>
			<path fill="#F2F2F2" d="M189.8,137.4c-0.1,0-0.3,0-0.4,0c-0.6,0-1,0.2-1.2,0.7v3.6h-0.9v-5.1h0.8l0,0.6c0.3-0.5,0.7-0.7,1.2-0.7
				c0.2,0,0.3,0,0.4,0.1V137.4z"/>
			<path fill="#F2F2F2" d="M192,140.5l1.3-3.9h0.9l-1.8,5.1h-0.7l-1.9-5.1h0.9L192,140.5z"/>
			<path fill="#F2F2F2" d="M194.6,135.2c0-0.1,0-0.3,0.1-0.4c0.1-0.1,0.2-0.1,0.4-0.1s0.3,0,0.4,0.1s0.1,0.2,0.1,0.4s0,0.3-0.1,0.4
				c-0.1,0.1-0.2,0.1-0.4,0.1s-0.3,0-0.4-0.1C194.7,135.5,194.6,135.4,194.6,135.2z M195.6,141.7h-0.9v-5.1h0.9V141.7z"/>
			<path fill="#F2F2F2" d="M198.6,141.1c0.3,0,0.6-0.1,0.8-0.3c0.2-0.2,0.4-0.4,0.4-0.7h0.8c0,0.3-0.1,0.6-0.3,0.8s-0.4,0.5-0.7,0.6
				c-0.3,0.2-0.6,0.2-1,0.2c-0.7,0-1.2-0.2-1.7-0.7c-0.4-0.5-0.6-1.1-0.6-1.9v-0.1c0-0.5,0.1-0.9,0.3-1.3c0.2-0.4,0.4-0.7,0.8-0.9
				c0.3-0.2,0.7-0.3,1.2-0.3c0.6,0,1,0.2,1.4,0.5c0.4,0.3,0.6,0.8,0.6,1.3h-0.8c0-0.3-0.2-0.6-0.4-0.8c-0.2-0.2-0.5-0.3-0.8-0.3
				c-0.4,0-0.8,0.2-1,0.5c-0.2,0.3-0.4,0.8-0.4,1.4v0.2c0,0.6,0.1,1,0.4,1.4C197.8,140.9,198.2,141.1,198.6,141.1z"/>
			<path fill="#F2F2F2" d="M203.4,141.8c-0.7,0-1.3-0.2-1.7-0.7s-0.7-1.1-0.7-1.8v-0.2c0-0.5,0.1-1,0.3-1.4s0.5-0.7,0.8-0.9
				c0.3-0.2,0.7-0.3,1.1-0.3c0.7,0,1.2,0.2,1.5,0.7c0.4,0.4,0.6,1.1,0.6,1.9v0.4h-3.5c0,0.5,0.2,0.9,0.4,1.2
				c0.3,0.3,0.6,0.5,1.1,0.5c0.3,0,0.6-0.1,0.8-0.2s0.4-0.3,0.6-0.5l0.5,0.4C204.9,141.5,204.2,141.8,203.4,141.8z M203.3,137.2
				c-0.4,0-0.6,0.1-0.9,0.4c-0.2,0.3-0.4,0.6-0.4,1.1h2.6v-0.1c0-0.4-0.1-0.8-0.4-1C203.9,137.3,203.6,137.2,203.3,137.2z"/>
		</g>
	</g>
	<g>
		<path fill="#36474F" d="M188,168l-7.4,5.9c-0.1,0.1-0.3,0.1-0.5,0c-0.3-0.2-0.6-0.7-0.6-1.1l0.4-5.2l-25.6-11.1
			c-0.3-0.1-0.6-0.6-0.6-1.1v-5.2c0-0.5,0.3-0.8,0.6-0.6l26.2,10.8l0.5-5.6c0-0.5,0.4-0.8,0.8-0.7c0.2,0.1,0.3,0.3,0.5,0.5l5.8,12
			c0.1,0.2,0.1,0.5,0.1,0.7C188.3,167.6,188.2,167.8,188,168z M186.1,186.8c0,0.4-0.4,0.6-0.7,0.5l-25.1-12l-0.1,4.5
			c0,0.4-0.3,0.6-0.5,0.5c-0.2-0.1-0.3-0.2-0.4-0.4l-5.2-10.1c-0.1-0.2-0.1-0.4-0.1-0.6c0-0.2,0-0.4,0.1-0.5l5.5-5.5
			c0.1-0.1,0.3-0.1,0.4-0.1c0.3,0.1,0.6,0.6,0.5,1.1l-0.1,4.9l25.7,11.8c0.3,0.2,0.6,0.7,0.5,1.1L186.1,186.8z"/>
	</g>
</g>
<g>
	<g>
		<rect x="279.7" y="153.6" fill="#E03236" width="90.9" height="23.5"/>
		<g>
			<polygon fill="#E03236" points="238.2,165.3 296.6,189.2 282.8,165.3 296.6,141.4 			"/>
		</g>
	</g>
	<g>
		<path fill="#F2F2F2" d="M301.3,172.8h-3.1v-15h3.1V172.8z"/>
		<path fill="#F2F2F2" d="M315.5,172.8h-3.1l-6-9.9v9.9h-3.1v-15h3.1l6,9.9v-9.9h3.1V172.8z"/>
		<path fill="#F2F2F2" d="M323.4,157.8h3.1v10.4c0,1-0.2,1.8-0.6,2.5c-0.4,0.7-1,1.3-1.8,1.7c-0.8,0.4-1.6,0.6-2.6,0.6
			c-1.6,0-2.8-0.4-3.7-1.2c-0.9-0.8-1.3-2-1.3-3.4h3.1c0,0.7,0.2,1.3,0.5,1.6c0.3,0.4,0.8,0.5,1.5,0.5c0.6,0,1.1-0.2,1.4-0.6
			c0.4-0.4,0.5-1,0.5-1.7V157.8z"/>
		<path fill="#F2F2F2" d="M337.4,166.3h-5.9v4h7v2.5h-10.1v-15h10.1v2.5h-7v3.6h5.9V166.3z"/>
		<path fill="#F2F2F2" d="M351.2,167.8c-0.1,1.6-0.7,2.9-1.8,3.8c-1.1,0.9-2.5,1.4-4.3,1.4c-1.9,0-3.4-0.6-4.5-1.9
			c-1.1-1.3-1.7-3.1-1.7-5.3v-0.9c0-1.4,0.3-2.7,0.8-3.8c0.5-1.1,1.2-1.9,2.2-2.5c0.9-0.6,2-0.9,3.3-0.9c1.7,0,3.1,0.5,4.2,1.4
			c1.1,0.9,1.7,2.2,1.8,3.9h-3.1c-0.1-1-0.3-1.7-0.8-2.1c-0.5-0.4-1.2-0.7-2.1-0.7c-1,0-1.8,0.4-2.3,1.1c-0.5,0.7-0.8,1.9-0.8,3.4
			v1.1c0,1.6,0.2,2.8,0.7,3.6c0.5,0.8,1.3,1.1,2.3,1.1c1,0,1.7-0.2,2.1-0.7c0.5-0.4,0.7-1.1,0.8-2H351.2z"/>
		<path fill="#F2F2F2" d="M363.4,160.3h-4.6v12.5h-3.1v-12.5h-4.5v-2.5h12.2V160.3z"/>
	</g>
</g>
</svg>
