<?xml version="1.0" encoding="UTF-8"?>
<svg width="919px" height="620px" viewBox="0 0 919 620" version="1.1" xmlns="http://www.w3.org/2000/svg" xmlns:xlink="http://www.w3.org/1999/xlink">
    <title>Group 2</title>
    <defs>
        <rect id="path-1" x="281" y="129" width="638" height="491" rx="4"></rect>
        <mask id="mask-2" maskContentUnits="userSpaceOnUse" maskUnits="objectBoundingBox" x="0" y="0" width="638" height="491" fill="white">
            <use xlink:href="#path-1"></use>
        </mask>
    </defs>
    <g id="Page-1" stroke="none" stroke-width="1" fill="none" fill-rule="evenodd">
        <g id="Group-2">
            <use id="Rectangle" stroke="#525174" mask="url(#mask-2)" stroke-width="4" fill-opacity="0.1" fill="#525174" stroke-dasharray="8" xlink:href="#path-1"></use>
            <path d="M48.5,153 C74.328897,153 95.4420642,156.538531 96.9176206,161.000417 L97,161 L97,276 L96.9176206,276.000417 C96.9722873,276.165721 97,276.332294 97,276.5 C97,281.19442 75.2858104,285 48.5,285 C21.7141896,285 0,281.19442 0,276.5 C0,276.332294 0.0277127288,276.165721 0.0823793925,276.000417 L0,276 L0,161 L0.0823793925,161.000417 C1.55793577,156.538531 22.671103,153 48.5,153 Z" id="Combined-Shape" fill="#348AA7"></path>
            <g id="Component" transform="translate(297.000000, 195.000000)">
                <rect id="Rectangle" fill="#513B56" x="0" y="0" width="203" height="48" rx="4"></rect>
                <text id="Services" font-family="Montserrat-Bold, Montserrat" font-size="24" font-weight="bold" fill="#FFFFFF">
                    <tspan x="49" y="33">Services</tspan>
                </text>
            </g>
            <text id="Angular-Module" font-family="Montserrat-Bold, Montserrat" font-size="24" font-weight="bold" fill="#212121">
                <tspan x="297" y="602">Angular Module</tspan>
            </text>
            <text id="src" font-family="Montserrat-Bold, Montserrat" font-size="24" font-weight="bold" fill="#FFFFFF">
                <tspan x="30" y="228">src</tspan>
            </text>
            <g id="Component" transform="translate(701.000000, 196.000000)">
                <rect id="Rectangle" fill="#5DD39E" x="0" y="0" width="203" height="48" rx="4"></rect>
                <text font-family="Montserrat-Bold, Montserrat" font-size="24" font-weight="bold" fill="#FFFFFF">
                    <tspan x="27" y="33">Component</tspan>
                </text>
            </g>
            <g id="Component" transform="translate(701.000000, 368.500000)">
                <rect id="Rectangle" fill="#5DD39E" x="0" y="0" width="203" height="48" rx="4"></rect>
                <text font-family="Montserrat-Bold, Montserrat" font-size="24" font-weight="bold" fill="#FFFFFF">
                    <tspan x="27" y="33">Component</tspan>
                </text>
            </g>
            <g id="Component" opacity="0.598260789" transform="translate(701.000000, 422.500000)">
                <rect id="Rectangle" fill="#5DD39E" x="0" y="0" width="203" height="48" rx="4"></rect>
                <text font-family="Montserrat-Bold, Montserrat" font-size="24" font-weight="bold" fill="#FFFFFF">
                    <tspan x="27" y="33">Component</tspan>
                </text>
            </g>
            <g id="Component" opacity="0.401181176" transform="translate(701.000000, 476.500000)">
                <rect id="Rectangle" fill="#5DD39E" x="0" y="0" width="203" height="48" rx="4"></rect>
                <text font-family="Montserrat-Bold, Montserrat" font-size="24" font-weight="bold" fill="#FFFFFF">
                    <tspan x="27" y="33">Component</tspan>
                </text>
            </g>
            <g id="Component" opacity="0.203915551" transform="translate(701.000000, 530.500000)">
                <rect id="Rectangle" fill="#5DD39E" x="0" y="0" width="203" height="48" rx="4"></rect>
                <text font-family="Montserrat-Bold, Montserrat" font-size="24" font-weight="bold" fill="#FFFFFF">
                    <tspan x="27" y="33">Component</tspan>
                </text>
            </g>
            <path id="Line" d="M136.535502,207.571269 L136.505,217.571 L257.005,217.928 L257.035714,207.928837 L281,220 L256.964498,231.928731 L256.994,221.928 L136.494,221.571 L136.464286,231.571163 L112.5,219.5 L136.535502,207.571269 Z" fill="#212121" fill-rule="nonzero"></path>
            <text id="Data" font-family="Montserrat-Bold, Montserrat" font-size="24" font-weight="bold" fill="#525174">
                <tspan x="167" y="243">Data</tspan>
            </text>
            <path id="Line" d="M540.535502,207.571269 L540.505,217.571 L661.005,217.928 L661.035714,207.928837 L685,220 L660.964498,231.928731 L660.994,221.928 L540.494,221.571 L540.464286,231.571163 L516.5,219.5 L540.535502,207.571269 Z" fill="#212121" fill-rule="nonzero"></path>
            <path id="Line" d="M517,249 L541.677568,259.53649 L534.052,266.006 L670.997,427.405 L678.622651,420.936051 L685,447 L660.322432,436.46351 L667.947,429.993 L531.002,268.594 L523.377349,275.063949 L517,249 Z" fill="#212121" fill-rule="nonzero"></path>
            <text id="Data" font-family="Montserrat-Bold, Montserrat" font-size="24" font-weight="bold" fill="#525174">
                <tspan x="571" y="243">Data</tspan>
            </text>
            <text id="Data" font-family="Montserrat-Bold, Montserrat" font-size="24" font-weight="bold" fill="#525174">
                <tspan x="517" y="375">Data</tspan>
            </text>
            <text id="App" font-family="Montserrat-Bold, Montserrat" font-size="32" font-weight="bold" fill="#513B56">
                <tspan x="834" y="182">App</tspan>
            </text>
            <path id="Line-2" d="M721.5,258.5 L721.5,328.5 L731.5,328.5 L719.5,352.5 L707.5,328.5 L717.5,328.5 L717.5,258.5 L721.5,258.5 Z" fill="#212121" fill-rule="nonzero"></path>
            <text id="Input" font-family="Montserrat-Bold, Montserrat" font-size="24" font-weight="bold" fill="#525174">
                <tspan x="734.5" y="279">Input</tspan>
            </text>
            <path id="Line-2" d="M877.5,343.5 L877.5,354.5 L873.5,354.5 L873.5,343.5 L877.5,343.5 Z M877.5,329.5 L877.5,340.5 L873.5,340.5 L873.5,329.5 L877.5,329.5 Z M877.5,315.5 L877.5,326.5 L873.5,326.5 L873.5,315.5 L877.5,315.5 Z M877.5,301.5 L877.5,312.5 L873.5,312.5 L873.5,301.5 L877.5,301.5 Z M877.5,287.5 L877.5,298.5 L873.5,298.5 L873.5,287.5 L877.5,287.5 Z M875.5,260.5 L887.5,284.5 L863.5,284.5 L875.5,260.5 Z" fill="#525174" fill-rule="nonzero"></path>
            <text id="Output" font-family="Montserrat-Bold, Montserrat" font-size="24" font-weight="bold" fill="#525174">
                <tspan x="769" y="347">Output</tspan>
            </text>
            <g id="angular" transform="translate(798.000000, 0.000000)" fill-rule="nonzero">
                <polygon id="Path" fill="#E23237" points="0.0414518747 18.5991313 52.1912265 0.0183284934 105.745391 18.2687599 97.0740729 87.2654054 52.1912265 112.122437 8.0105748 87.5957769"></polygon>
                <polygon id="Path" fill="#B52E31" points="105.745391 18.2687599 52.1912265 0.0183284934 52.1912265 112.122437 97.0740729 87.3068573"></polygon>
                <path d="M52.2737157,13.107587 L19.7783475,85.4075324 L31.917529,85.2011021 L38.4416396,68.8910329 L67.5926705,68.8910329 L74.7360721,85.4075324 L86.3384518,85.6139627 L52.2737157,13.107587 Z M52.3566194,36.2717236 L63.3397082,59.2290154 L42.6941874,59.2290154 L52.3566194,36.2717236 Z" id="Shape" fill="#FFFFFF"></path>
            </g>
        </g>
    </g>
</svg>