<?xml version="1.0" encoding="UTF-8"?>
<svg width="1021px" height="405px" viewBox="0 0 1021 405" version="1.1" xmlns="http://www.w3.org/2000/svg" xmlns:xlink="http://www.w3.org/1999/xlink">
    <title>Group 4</title>
    <g id="Page-1" stroke="none" stroke-width="1" fill="none" fill-rule="evenodd">
        <g id="Group-4">
            <path d="M48.5,95 C74.328897,95 95.4420642,98.5385306 96.9176206,103.000417 L97,103 L97,218 L96.9176206,218.000417 C96.9722873,218.165721 97,218.332294 97,218.5 C97,223.19442 75.2858104,227 48.5,227 C21.7141896,227 0,223.19442 0,218.5 C0,218.332294 0.0277127288,218.165721 0.0823793925,218.000417 L0,218 L0,103 L0.0823793925,103.000417 C1.55793577,98.5385306 22.671103,95 48.5,95 Z" id="Combined-Shape" fill="#348AA7"></path>
            <g id="Component" transform="translate(255.000000, 137.000000)">
                <rect id="Rectangle" fill="#513B56" x="0" y="0" width="203" height="48" rx="4"></rect>
                <text id="Services" font-family="Montserrat-Bold, Montserrat" font-size="24" font-weight="bold" fill="#FFFFFF">
                    <tspan x="49" y="33">Services</tspan>
                </text>
            </g>
            <g id="Component" transform="translate(532.000000, 233.000000)">
                <rect id="Rectangle" fill="#525174" x="0" y="0" width="203" height="48" rx="4"></rect>
                <text id="Controllers" font-family="Montserrat-Bold, Montserrat" font-size="24" font-weight="bold" fill="#FFFFFF">
                    <tspan x="32" y="33">Controllers</tspan>
                </text>
            </g>
            <text id="src" font-family="Montserrat-Bold, Montserrat" font-size="24" font-weight="bold" fill="#FFFFFF">
                <tspan x="30" y="170">src</tspan>
            </text>
            <g id="Component" transform="translate(818.000000, 201.000000)">
                <rect id="Rectangle" fill="#5DD39E" x="0" y="0" width="203" height="48" rx="4"></rect>
                <text font-family="Montserrat-Bold, Montserrat" font-size="24" font-weight="bold" fill="#FFFFFF">
                    <tspan x="27" y="33">Component</tspan>
                </text>
            </g>
            <g id="Component" transform="translate(818.000000, 265.000000)">
                <rect id="Rectangle" fill="#5DD39E" x="0" y="0" width="203" height="48" rx="4"></rect>
                <text font-family="Montserrat-Bold, Montserrat" font-size="24" font-weight="bold" fill="#FFFFFF">
                    <tspan x="27" y="33">Component</tspan>
                </text>
            </g>
            <path id="Line" d="M136.547243,149.594955 L136.507,159.594 L215.007,159.905 L215.047618,149.905233 L239,162 L214.952757,173.905045 L214.992,163.905 L136.492,163.594 L136.452382,173.594767 L112.5,161.5 L136.547243,149.594955 Z" fill="#212121" fill-rule="nonzero"></path>
            <path id="Line" d="M780.811731,245.384165 L805,257 L781.19437,269.381114 L781.034,259.382 L750.156887,259.874746 L748.157141,259.906632 L748.093368,255.907141 L750.093113,255.875254 L780.971,255.383 L780.811731,245.384165 Z" fill="#212121" fill-rule="nonzero"></path>
            <path id="Line" d="M524,289 L509.977115,311.877034 L504.688,303.389 L428.057706,351.14038 L426.360279,352.198086 L424.244867,348.803233 L425.942294,347.745526 L502.573,299.994 L497.284642,291.507912 L524,289 Z" fill="#212121" fill-rule="nonzero"></path>
            <path id="Line" d="M470.469333,188.221801 L472.123766,189.345567 L505.27,211.86 L510.889396,203.588207 L524,227 L497.404203,223.441407 L503.023,215.169 L469.876234,192.654433 L468.221801,191.530667 L470.469333,188.221801 Z" fill="#212121" fill-rule="nonzero"></path>
            <text id="Data" font-family="Montserrat-Bold, Montserrat" font-size="24" font-weight="bold" fill="#525174">
                <tspan x="146" y="185">Data</tspan>
            </text>
            <path id="Line" d="M357,201 L369,225 L359,225 L359,257 L369,257 L357,281 L345,257 L355,257 L355,225 L345,225 L357,201 Z" fill="#212121" fill-rule="nonzero"></path>
            <text id="Data" font-family="Montserrat-Bold, Montserrat" font-size="24" font-weight="bold" fill="#525174">
                <tspan x="372" y="252">Data</tspan>
            </text>
            <text id="App" font-family="Montserrat-Bold, Montserrat" font-size="32" font-weight="bold" fill="#513B56">
                <tspan x="952" y="188">App</tspan>
            </text>
            <g id="ember" transform="translate(887.000000, 0.000000)" fill-rule="nonzero">
                <path d="M129.928821,37.0608558 C129.61309,33.9602406 127.361287,32.5775853 125.248028,32.5775853 C124.280246,32.5775853 123.509985,32.8541672 123.213829,32.9726297 L122.798956,33.1505776 L122.443569,33.407331 C121.949636,33.7822927 121.080742,34.2957995 120.310482,34.5723814 C120.271079,33.9404121 120.290653,33.1304949 120.389287,32.4591228 L120.409116,32.3406604 C120.981854,26.8893532 119.836378,23.7096782 117.01209,22.899761 C116.537986,22.76147 116.044308,22.7022388 115.550375,22.7022388 C113.832161,22.7022388 112.311469,23.5317303 111.323858,24.2427593 C110.494367,23.1961713 109.111966,22.6036048 107.373923,22.6036048 C104.78656,22.6036048 102.712704,23.8085664 101.962273,25.743877 C101.883213,25.9413992 101.784325,26.2375554 101.665862,26.6325997 C100.14517,23.2749768 97.0443008,21.9912098 94.160782,21.9912098 C91.4351284,21.9912098 88.7885345,23.0578804 87.8009236,23.8083122 C87.7615209,23.8477149 87.7022896,23.8675434 87.6430584,23.9267746 C85.0556957,25.7637055 83.0410712,28.0744863 81.6190131,30.8591169 C80.9278126,28.4497021 79.4071206,26.1981526 76.681467,24.4995127 L76.6420642,24.4601099 C76.5630045,24.4207072 76.5037733,24.3813044 76.4247136,24.3416475 C79.0911359,19.6013693 81.4611479,13.3208248 80.0390899,7.33643654 C78.5379721,0.957003873 74.7853049,0.0087957111 72.6720463,0.0087957111 C71.8031521,0.0087957111 70.9144293,0.166915142 70.0058781,0.482899792 L69.9466469,0.502728274 L69.8871615,0.522302544 C65.9173978,2.08265153 64.1793551,4.43308924 63.803885,4.98625303 C63.4090948,5.57856537 59.063861,12.1753487 58.0172731,21.8333445 C57.8988106,22.899761 57.7800939,24.0058343 57.6616315,25.1119077 C57.0494906,24.2427593 56.0423055,23.4529248 54.4422995,22.9589922 C53.9486212,22.801127 53.4351143,22.7418957 52.9216075,22.7418957 C50.7292892,22.7418957 48.9515896,24.0848941 48.0036356,24.9736168 L47.9838071,24.9537883 C47.1543156,23.7292524 45.8311458,22.9986492 44.3694308,22.9394179 L44.0140434,22.9394179 C41.6834342,22.9394179 39.826929,23.9664316 38.4641022,25.1317362 C37.595208,23.61079 35.9952021,22.662836 34.1191226,22.662836 C33.9610032,22.662836 33.8227123,22.662836 33.6844213,22.6826645 L33.3684367,22.6826645 C30.781074,22.6826645 28.7468752,23.9072004 27.9173837,25.9413992 C27.8581524,26.0995186 27.7790927,26.2967866 27.700033,26.55354 C25.6658342,24.0256628 23.0784715,22.8405297 19.6023861,22.8405297 L19.2668272,22.8405297 C17.0940832,22.8799325 11.682433,23.7887379 8.36421284,31.2544155 C7.850706,32.3998916 7.45566164,33.5651962 7.15950547,34.7106723 C6.56496674,34.4366584 5.91798788,34.295102 5.26334336,34.2957995 C3.52530067,34.2957995 2.22195932,35.2834104 1.58999002,36.2117901 C1.07648319,36.9622219 -0.563179722,39.62839 0.246737491,42.2355811 C0.68143882,43.6378107 1.68862401,44.7044813 3.11068204,45.2573909 C4.35504637,45.7513235 5.93496962,46.2251733 7.12010272,46.5609865 C7.850706,48.2199694 9.15430157,50.1357058 11.4650823,51.893577 C13.104491,53.1379413 15.1979211,53.7699106 17.6668213,53.7699106 C21.8145329,53.7699106 25.8236994,51.9726367 26.2584007,51.7751145 L26.4162659,51.696309 L26.4556687,51.656652 C27.2457574,52.4861435 28.2925996,53.0787101 29.6157694,53.3354635 C30.0108138,53.414269 30.5243206,53.4737544 31.1168871,53.4737544 C33.3684367,53.4737544 34.9287856,52.3280241 36.3706722,50.1753628 C37.555551,52.0318679 39.7084666,53.0784559 42.2561723,53.0784559 L42.2760007,53.0784559 C42.4142917,53.0784559 42.5525826,53.1775983 42.7107021,53.1775983 C44.0534462,53.1775983 45.7322576,52.7034942 47.1347414,50.4519447 C48.2997918,52.5453748 50.4328788,53.7500821 52.9612645,53.7500821 C55.2125598,53.7500821 57.1679531,52.8219567 57.5233405,52.644263 L57.6024002,52.604606 C58.352832,52.2095616 58.9850555,51.8541742 59.4787339,51.5775923 C61.1575453,52.466315 63.705251,53.453926 66.825949,53.453926 C67.3592843,53.453926 67.8923654,53.4340975 68.4257007,53.3751205 L68.5639916,53.355292 L68.7022826,53.3354635 C75.3186402,52.0318679 79.624217,50.4519447 82.1917512,49.2469831 C83.9890251,51.2616077 86.8529697,53.1971725 90.9414501,53.4933287 C91.3957257,53.5329857 91.8695755,53.5525599 92.3238511,53.5525599 C95.681474,53.5525599 98.3674707,52.604606 100.342692,51.5577638 C100.974662,52.2293901 101.764751,52.8415309 102.791764,53.2564038 C103.403905,53.5131572 104.035874,53.6316197 104.687672,53.6316197 C108.795727,53.6316197 110.711717,48.7334763 111.245053,47.0744933 L112.232409,44.4281536 C113.101558,45.3560249 114.207631,46.1067109 115.609861,46.5017552 C116.380121,46.7191059 117.209612,46.8373142 118.058932,46.8373142 C122.58186,46.8373142 126.92684,43.6378107 127.61804,43.1047296 C128.862404,42.0777159 130.225231,39.9642031 129.928821,37.0608558" id="Path" fill="#FFFFFF"></path>
                <path d="M88.4941578,38.3992784 C88.4941578,38.3992784 87.9214198,36.384908 90.0545068,32.4939498 C92.1677654,28.62282 93.8270026,30.7360786 93.8270026,30.7360786 C93.8270026,30.7360786 95.6438507,32.7113004 93.5702491,35.6540505 C91.4963933,38.616629 88.4941578,38.3995326 88.4941578,38.3995326 M72.1999759,41.2039917 C69.7707327,47.5635958 63.8654041,44.9764874 63.8654041,44.9764874 C63.8654041,44.9764874 63.1937778,42.7051094 65.1095142,36.3256767 C67.0255048,29.9658184 71.5283496,32.454547 71.5283496,32.454547 C71.5283496,32.454547 74.6292191,34.8441333 72.1999759,41.2039917 M67.7957651,14.5601049 C67.7957651,14.5601049 71.4691184,4.98116881 72.3580953,9.64238727 C73.2468181,14.3033515 64.6554928,28.1682902 64.6554928,28.1682902 C64.7342983,25.0478465 67.7957651,14.5603591 67.7957651,14.5603591 M15.259186,38.3990241 C15.4170512,32.2369421 19.4460462,29.5509455 20.84853,30.8939438 C22.2507595,32.2369421 21.7372527,35.1402894 19.0906588,36.9573918 C16.4638934,38.7744942 15.259186,38.3990241 15.259186,38.3990241 M126.573232,37.391839 C126.375709,35.3179831 124.49963,36.0882434 124.49963,36.0882434 C124.49963,36.0882434 121.497395,38.4188526 118.851055,38.1620992 C116.224035,37.8855173 117.053781,32.0000172 117.053781,32.0000172 C117.053781,32.0000172 117.626265,26.588367 116.065916,26.1340914 C114.505821,25.6798158 112.58983,27.5363209 112.58983,27.5363209 C112.58983,27.5363209 110.200244,30.1826606 109.074088,33.5405377 L108.758358,33.6391717 C108.758358,33.6391717 109.113745,27.7338431 108.699126,26.3908448 C108.383142,25.7192185 105.539026,25.7784498 105.08475,26.9635829 C104.610646,28.1484617 102.339268,36.4240565 102.181403,39.9003961 C102.181403,39.9003961 97.737535,43.6726376 93.8465768,44.3046069 C89.9558728,44.9167478 89.0274931,42.4875045 89.0274931,42.4875045 C89.0274931,42.4875045 99.5940402,39.5447545 99.2188243,31.1110403 C98.8631827,22.6775803 90.7063046,25.798024 89.7779249,26.4894788 C88.8892022,27.161105 84.1293498,30.0247954 82.7271202,37.9844055 C82.6874632,38.2609874 82.5888293,39.4461205 82.5888293,39.4461205 C82.5888293,39.4461205 78.5003489,42.1913484 76.2292251,42.9219517 C76.2292251,42.9219517 82.5888293,32.2171137 74.8267413,27.3387987 C71.3112532,25.2255402 68.5067941,29.669408 68.5067941,29.669408 C68.5067941,29.669408 79.0138557,17.9769591 76.6835007,8.08178408 C75.5774273,3.38141708 73.2269896,2.86791024 71.0544998,3.63817049 C67.7759366,4.94176606 66.5315723,6.83767396 66.5315723,6.83767396 C66.5315723,6.83767396 62.2852266,12.999756 61.2976157,22.1640735 C60.310259,31.3283909 58.8683725,42.3886163 58.8683725,42.3886163 C58.8683725,42.3886163 56.8537479,44.3638382 54.9972428,44.4624722 C53.1407376,44.5613604 53.9702291,38.9323595 53.9702291,38.9323595 C53.9702291,38.9323595 55.4121156,30.34078 55.3132274,28.8991477 C55.2145934,27.4572612 55.1157053,26.6671725 53.3974911,26.1536656 C51.6988511,25.6401588 49.8225175,27.8129028 49.8225175,27.8129028 C49.8225175,27.8129028 44.9047998,35.2587519 44.489927,36.404228 L44.2331736,36.8783321 L43.9764201,36.5623475 C43.9764201,36.5623475 47.4525055,26.4104191 44.1345396,26.2723823 C40.8163194,26.1142629 38.6438296,29.8865044 38.6438296,29.8865044 C38.6438296,29.8865044 34.8713339,36.2067059 34.7134687,36.9179891 L34.4567152,36.6017502 C34.4567152,36.6017502 36.0170642,29.2545351 35.7010796,27.4374327 C35.3850949,25.6205845 33.686455,25.9958004 33.686455,25.9958004 C33.686455,25.9958004 31.5139652,25.739047 30.9409729,27.1412766 C30.3682349,28.5435061 28.2946332,37.8067118 28.0378798,40.7492076 C28.0378798,40.7492076 22.6064011,44.6404201 19.0314276,44.6798228 C15.4567082,44.7390541 15.8319241,42.4084448 15.8319241,42.4084448 C15.8319241,42.4084448 28.9263483,37.9251743 25.351629,29.0768414 C23.7518773,26.8054634 21.8755436,26.0944344 19.2487782,26.1340914 C16.6024386,26.1933226 13.5013149,27.7930743 11.3682278,32.5529268 C10.3610426,34.8243048 9.94616978,36.9769661 9.94616978,38.6163748 C9.94616978,38.6163748 7.49709808,39.0904789 6.25298796,38.0436367 C5.00862363,37.0166231 4.29759461,38.0436367 4.29759461,38.0436367 C4.29759461,38.0436367 2.12510481,41.1445062 4.23836338,41.9737435 C6.35162195,42.8034892 9.63018513,43.5737494 9.63018513,43.5737494 C9.92659551,44.9167478 10.8153182,47.109066 13.4026809,49.0644594 C17.2738106,52.0072094 24.7394882,48.6101838 24.7394882,48.6101838 L27.8007007,46.7930814 C27.8007007,46.7930814 27.8995889,49.5385635 30.1313099,49.9531821 C32.3632852,50.3680549 33.2914106,49.9137793 37.1625404,40.5125369 C39.4339184,35.693199 39.5917836,35.9499524 39.5917836,35.9499524 L39.848537,35.8907212 C39.848537,35.8907212 38.09092,45.0944415 38.7622921,47.5831701 C39.4339184,50.0718988 42.3766684,49.8151454 42.3766684,49.8151454 C42.3766684,49.8151454 43.9764201,50.3876292 45.2800157,45.825299 C46.5836113,41.2629687 49.0525115,36.5031162 49.0525115,36.5031162 L49.3684961,36.5031162 C49.3684961,36.5031162 48.281997,45.6674337 49.9412342,48.669415 C51.6002171,51.6716505 55.8859655,49.5581377 55.8859655,49.5581377 C55.8859655,49.5581377 58.888201,47.9782145 59.3620509,47.5041104 C59.3620509,47.5041104 62.9171959,50.5063459 67.9536303,49.9531821 C79.1918036,47.7410353 83.1813958,44.7390541 83.1813958,44.7390541 C83.1813958,44.7390541 85.1169607,49.617369 91.0815205,50.0716446 C97.9152287,50.5851514 101.648068,46.2795746 101.648068,46.2795746 C101.648068,46.2795746 101.588836,49.0644594 103.978677,50.0520703 C106.368263,51.039427 107.968269,45.825299 107.968269,45.825299 L111.957861,35.1402894 L112.313503,35.1402894 C112.313503,35.1402894 112.511025,41.9739977 116.46096,43.1194738 C120.430978,44.2453757 125.546472,40.2951863 125.546472,40.2951863 C125.546472,40.2951863 126.790582,39.4656948 126.573486,37.391839" id="Shape" fill="#E24B31"></path>
            </g>
            <g id="Group-3" transform="translate(302.000000, 295.000000)">
                <circle id="Oval" fill="#348AA7" cx="55" cy="55" r="55"></circle>
                <text id="model" font-family="Montserrat-Bold, Montserrat" font-size="24" font-weight="bold" fill="#FFFFFF">
                    <tspan x="15" y="64">model</tspan>
                </text>
            </g>
        </g>
    </g>
</svg>