<?xml version="1.0" encoding="UTF-8"?>
<svg width="904px" height="583px" viewBox="0 0 904 583" version="1.1" xmlns="http://www.w3.org/2000/svg" xmlns:xlink="http://www.w3.org/1999/xlink">
    <title>Group</title>
    <defs>
        <rect id="path-1" x="0" y="0" width="203" height="48" rx="4"></rect>
        <mask id="mask-2" maskContentUnits="userSpaceOnUse" maskUnits="objectBoundingBox" x="0" y="0" width="203" height="48" fill="white">
            <use xlink:href="#path-1"></use>
        </mask>
    </defs>
    <g id="Page-1" stroke="none" stroke-width="1" fill="none" fill-rule="evenodd">
        <g id="Group">
            <path d="M48.5,157 C74.328897,157 95.4420642,160.538531 96.9176206,165.000417 L97,165 L97,280 L96.9176206,280.000417 C96.9722873,280.165721 97,280.332294 97,280.5 C97,285.19442 75.2858104,289 48.5,289 C21.7141896,289 0,285.19442 0,280.5 C0,280.332294 0.0277127288,280.165721 0.0823793925,280.000417 L0,280 L0,165 L0.0823793925,165.000417 C1.55793577,160.538531 22.671103,157 48.5,157 Z" id="Combined-Shape" fill="#348AA7"></path>
            <g id="Component" transform="translate(297.000000, 199.000000)">
                <rect id="Rectangle" fill="#5DD39E" x="0" y="0" width="203" height="48" rx="4"></rect>
                <text font-family="Montserrat-Bold, Montserrat" font-size="24" font-weight="bold" fill="#FFFFFF">
                    <tspan x="27" y="33">Component</tspan>
                </text>
            </g>
            <g id="Component" transform="translate(345.000000, 451.000000)">
                <use id="Rectangle" stroke="#525174" mask="url(#mask-2)" stroke-width="4" fill-opacity="0.37" fill="#525174" stroke-dasharray="8" xlink:href="#path-1"></use>
                <text id="Context" font-family="Montserrat-Bold, Montserrat" font-size="24" font-weight="bold" fill="#212121">
                    <tspan x="52" y="33">Context</tspan>
                </text>
            </g>
            <text id="src" font-family="Montserrat-Bold, Montserrat" font-size="24" font-weight="bold" fill="#FFFFFF">
                <tspan x="30" y="232">src</tspan>
            </text>
            <g id="Component" transform="translate(701.000000, 200.000000)">
                <rect id="Rectangle" fill="#5DD39E" x="0" y="0" width="203" height="48" rx="4"></rect>
                <text font-family="Montserrat-Bold, Montserrat" font-size="24" font-weight="bold" fill="#FFFFFF">
                    <tspan x="27" y="33">Component</tspan>
                </text>
            </g>
            <g id="Component" transform="translate(701.000000, 372.500000)">
                <rect id="Rectangle" fill="#5DD39E" x="0" y="0" width="203" height="48" rx="4"></rect>
                <text font-family="Montserrat-Bold, Montserrat" font-size="24" font-weight="bold" fill="#FFFFFF">
                    <tspan x="27" y="33">Component</tspan>
                </text>
            </g>
            <g id="Component" opacity="0.598260789" transform="translate(701.000000, 426.500000)">
                <rect id="Rectangle" fill="#5DD39E" x="0" y="0" width="203" height="48" rx="4"></rect>
                <text font-family="Montserrat-Bold, Montserrat" font-size="24" font-weight="bold" fill="#FFFFFF">
                    <tspan x="27" y="33">Component</tspan>
                </text>
            </g>
            <g id="Component" opacity="0.401181176" transform="translate(701.000000, 480.500000)">
                <rect id="Rectangle" fill="#5DD39E" x="0" y="0" width="203" height="48" rx="4"></rect>
                <text font-family="Montserrat-Bold, Montserrat" font-size="24" font-weight="bold" fill="#FFFFFF">
                    <tspan x="27" y="33">Component</tspan>
                </text>
            </g>
            <g id="Component" opacity="0.203915551" transform="translate(701.000000, 534.500000)">
                <rect id="Rectangle" fill="#5DD39E" x="0" y="0" width="203" height="48" rx="4"></rect>
                <text font-family="Montserrat-Bold, Montserrat" font-size="24" font-weight="bold" fill="#FFFFFF">
                    <tspan x="27" y="33">Component</tspan>
                </text>
            </g>
            <path id="Line" d="M136.535502,211.571269 L136.505,221.571 L257.005,221.928 L257.035714,211.928837 L281,224 L256.964498,235.928731 L256.994,225.928 L136.494,225.571 L136.464286,235.571163 L112.5,223.5 L136.535502,211.571269 Z" fill="#212121" fill-rule="nonzero"></path>
            <text id="Data" font-family="Montserrat-Bold, Montserrat" font-size="24" font-weight="bold" fill="#525174">
                <tspan x="167" y="247">Data</tspan>
            </text>
            <path id="Line" d="M540.535502,211.571269 L540.505,221.571 L661.005,221.928 L661.035714,211.928837 L685,224 L660.964498,235.928731 L660.994,225.928 L540.494,225.571 L540.464286,235.571163 L516.5,223.5 L540.535502,211.571269 Z" fill="#212121" fill-rule="nonzero"></path>
            <text id="Data" font-family="Montserrat-Bold, Montserrat" font-size="24" font-weight="bold" fill="#525174">
                <tspan x="571" y="247">Data</tspan>
            </text>
            <text id="App" font-family="Montserrat-Bold, Montserrat" font-size="32" font-weight="bold" fill="#513B56">
                <tspan x="431" y="185">App</tspan>
            </text>
            <text id="Home" font-family="Montserrat-Bold, Montserrat" font-size="32" font-weight="bold" fill="#513B56">
                <tspan x="803" y="186">Home</tspan>
            </text>
            <path id="Line-2" d="M760,262.5 L760,332.5 L770,332.5 L758,356.5 L746,332.5 L756,332.5 L756,262.5 L760,262.5 Z" fill="#212121" fill-rule="nonzero"></path>
            <path id="Line-3" d="M644.335658,445.547922 L670.5,451.5 L650.039733,468.860227 L647.662,459.146 L576.97534,476.442692 L575.032648,476.918032 L574.081968,473.032648 L576.02466,472.557308 L646.712,455.261 L644.335658,445.547922 Z" fill="#212121" fill-rule="nonzero"></path>
            <path id="Line-3" d="M644.835658,470.047922 L671,476 L650.539733,493.360227 L648.162,483.646 L577.47534,500.942692 L575.532648,501.418032 L574.581968,497.532648 L576.52466,497.057308 L647.212,479.761 L644.835658,470.047922 Z" fill="#212121" fill-rule="nonzero"></path>
            <text id="Props" font-family="Montserrat-Bold, Montserrat" font-size="24" font-weight="bold" fill="#525174">
                <tspan x="773" y="283">Props</tspan>
            </text>
            <g id="react" transform="translate(773.000000, 0.000000)" fill-rule="nonzero">
                <path d="M0,58.289686 C0,68.117546 9.58688048,77.2917497 24.7006642,82.4632039 C21.682506,97.6727315 24.1600833,109.932111 32.4343434,114.708712 C40.9390402,119.618806 53.60948,116.2201 65.6356169,105.696643 C77.3582518,115.79507 89.2055575,119.769177 97.4726644,114.978767 C105.969697,110.054863 108.553551,96.9643481 105.452109,81.2796667 C121.194356,76.0698524 130,68.2469474 130,58.289686 C130,48.6899408 120.395747,40.3852329 105.48532,35.2470241 C108.824352,18.9143125 105.995244,6.95260751 97.3781394,1.97858001 C89.0706678,-2.81694512 77.0854066,1.36277239 65.1905829,11.7251166 C52.8154699,0.726506043 40.9487482,-2.63128219 32.3408403,2.35655495 C24.0410329,7.16588972 21.672798,19.6482693 24.7006642,35.1391043 C10.0968046,40.2358842 0,48.7288124 0,58.289686 Z" id="Path" fill="#FFFFFF"></path>
                <path d="M102.553497,40.3841002 C101.32946,39.9614304 100.095037,39.5698753 98.8514047,39.2098075 C99.0576437,38.3661846 99.2483624,37.5187932 99.423463,36.6680683 C102.225734,22.9741345 100.393519,11.9423408 94.1365045,8.31084559 C88.1375268,4.82793022 78.3260148,8.45942538 68.4167847,17.1400719 C67.4403581,17.9973994 66.4856051,18.8794251 65.5534396,19.7853046 C64.9291938,19.1829484 64.2939169,18.5922851 63.6479359,18.0136187 C53.2628388,8.73096777 42.8533121,4.81973271 36.6029138,8.46198711 C30.6095346,11.954637 28.8343217,22.3260192 31.3571802,35.3036959 C31.608187,36.5888645 31.8915932,37.8674049 32.2071244,39.1380793 C30.734227,39.5592262 29.3117156,40.0080397 27.9507869,40.4855444 C15.7757174,44.7584944 8,51.4558568 8,58.4022185 C8,65.5770856 16.3467578,72.7734712 29.0287401,77.1365938 C30.0570616,77.4887435 31.0939423,77.8150373 32.1384163,78.1151711 C31.7991012,79.484124 31.4978557,80.8623553 31.2350325,82.2482512 C28.8297412,95.0004965 30.7082706,105.125953 36.6858725,108.597085 C42.8599285,112.180932 53.2221229,108.497178 63.3125387,99.6182541 C64.1100613,98.9163426 64.9106375,98.1719066 65.7122316,97.3916065 C66.721895,98.3722636 67.7585171,99.324398 68.8208899,100.2469 C78.5947397,108.713387 88.2474597,112.132259 94.219972,108.651906 C100.38843,105.057299 102.392669,94.1797212 99.789906,80.94536 C99.591416,79.9345051 99.3598444,78.9021317 99.1002806,77.8508015 C99.8280771,77.6345923 100.542132,77.4112103 101.238883,77.178606 C114.422688,72.7816687 123,65.672894 123,58.4022185 C123,51.430752 114.97388,44.6883032 102.553497,40.3841002 Z" id="Path" fill="#53C1DE"></path>
                <path d="M99.6367371,72.46585 C99.0092329,72.6751055 98.3649614,72.8771983 97.7084954,73.0731515 C96.2553278,68.4413903 94.2940596,63.5159549 91.8948087,58.4278222 C94.184818,53.4599218 96.0698711,48.5979283 97.4823907,43.9958414 C98.6566111,44.3386316 99.7967888,44.6993288 100.895302,45.0804911 C111.519685,48.7626723 118,54.2079208 118,58.4032641 C118,62.8723279 111.000915,68.6741806 99.6372452,72.46585 L99.6367371,72.46585 Z M94.9215638,81.8741631 C96.0703792,87.7179692 96.2344957,93.0015436 95.473361,97.1319102 C94.7894576,100.843254 93.4145375,103.317483 91.714433,104.308505 C88.0962488,106.417433 80.3583851,103.676134 72.0143575,96.4458181 C71.0576041,95.616982 70.0937373,94.7318669 69.12733,93.795589 C72.3624064,90.232617 75.5954503,86.090483 78.7507549,81.4909543 C84.3012456,80.9951875 89.5448435,80.1842583 94.3001568,79.0776086 C94.533883,80.0292353 94.7422043,80.9619317 94.9215638,81.8741631 L94.9215638,81.8741631 Z M47.2363248,103.944227 C43.7014691,105.201295 40.8860839,105.237109 39.184455,104.249157 C35.5627141,102.146369 34.0577202,94.0268446 36.1109546,83.1368591 C36.3551173,81.8498916 36.6346801,80.5699904 36.9493206,79.2986316 C41.6517914,80.3459325 46.8572818,81.0995594 52.4209831,81.5538844 C55.5971198,86.0546691 58.9236543,90.1916869 62.2761019,93.8145193 C61.5636175,94.5085229 60.8342722,95.1847579 60.0887289,95.8426096 C55.6342111,99.7637206 51.1705476,102.544926 47.2368329,103.944227 L47.2363248,103.944227 Z M30.6758028,72.4382221 C25.0775507,70.511434 20.4543435,68.0075304 17.2853202,65.275441 C14.4379246,62.8196303 13,60.3817266 13,58.4032641 C13,54.1941069 19.2328698,48.8245792 29.6280994,45.1751422 C30.9328505,44.7190865 32.250581,44.3015904 33.5795976,43.9231903 C35.016506,48.6286259 36.901051,53.5484333 39.1753092,58.5234965 C36.8715812,63.5727456 34.9601068,68.5708319 33.5099878,73.3315233 C32.5581332,73.0571848 31.6131195,72.7593278 30.6758028,72.4382221 L30.6758028,72.4382221 Z M36.2273097,34.3885054 C34.0694065,23.2846597 35.5022502,14.9088104 39.1082399,12.8070457 C42.9494803,10.568165 51.4423814,13.7607189 60.3940973,21.7641036 C60.9662186,22.2757308 61.5408803,22.8114045 62.1165583,23.3654968 C58.7813861,26.9719571 55.4853377,31.0777656 52.3366384,35.5524573 C46.9370536,36.0564101 41.7681464,36.8658044 37.0163899,37.9499425 C36.723685,36.7694904 36.4605747,35.581797 36.2273097,34.3879937 L36.2273097,34.3885054 Z M85.7503484,46.7018378 C84.6279934,44.7496883 83.4640037,42.8221119 82.2591894,40.9204502 C85.9225945,41.3860309 89.4320452,42.0050999 92.7275855,42.7628198 C91.7383137,45.9558853 90.5051536,49.2947646 89.0530021,52.7175507 C87.9919952,50.6903761 86.8908911,48.6847386 85.7503484,46.7018378 L85.7503484,46.7018378 Z M65.5548749,26.8947014 C67.8169386,29.3622795 70.0825591,32.1179037 72.3110882,35.1073416 C67.7905229,34.8922434 63.2624151,34.891219 58.7417543,35.1042719 C60.9723158,32.1424618 63.2572441,29.3909306 65.5548749,26.8947014 L65.5548749,26.8947014 Z M45.2298357,46.7356052 C44.1035729,48.7027362 43.0230568,50.6960669 41.9891702,52.7139693 C40.5608995,49.3029506 39.3389176,45.9492342 38.3410081,42.7106338 C41.6167325,41.9723557 45.1099239,41.3691472 48.7494483,40.9112409 C47.5311316,42.8246881 46.3576039,44.7666781 45.2298357,46.7356052 L45.2298357,46.7356052 Z M48.8541171,76.2477985 C45.0941728,75.8251944 41.5481389,75.2526835 38.2734307,74.5348705 C39.2870913,71.2389679 40.5360026,67.813112 41.9947593,64.3289306 C43.0330045,66.3483288 44.1182686,68.342862 45.2496516,70.3108761 C46.4041127,72.3184132 47.6059426,74.2979498 48.8541171,76.2477985 L48.8541171,76.2477985 Z M65.6905377,90.2607565 C63.3659776,87.7348529 61.0475147,84.9413683 58.7829104,81.9365816 C60.9809535,82.0235582 63.2221851,82.0675582 65.5,82.0675582 C67.8403112,82.0675582 70.1536932,82.0148605 72.4304918,81.9125351 C70.1948493,84.9720659 67.9373585,87.7696436 65.6905377,90.2607565 Z M89.0997474,64.151396 C90.6342111,67.6734378 91.9278352,71.0808751 92.9552146,74.3210103 C89.6261396,75.085893 86.0323442,75.7018922 82.2454706,76.159287 C83.4589934,74.2221199 84.6341237,72.2608353 85.7701643,70.2765971 C86.9250188,68.2599906 88.0351547,66.2177511 89.0997474,64.151396 L89.0997474,64.151396 Z M81.5214273,67.8095306 C79.7823007,70.8516436 77.9453933,73.8360074 76.0136171,76.7578908 C72.6073108,77.0029602 69.0871901,77.1293322 65.5,77.1293322 C61.9275449,77.1293322 58.4521369,77.0172858 55.1052784,76.798821 C53.1233998,73.8837407 51.2517434,70.8942119 49.4943238,67.8366469 C47.7451186,64.7953041 46.1112448,61.6881701 44.5962342,58.5219616 C46.1073914,55.3548045 47.7363279,52.2460061 49.4795889,49.2021601 L49.4795889,49.2031833 C51.2223029,46.158689 53.0792246,43.1819428 55.0463388,40.2793812 C58.4607746,40.0194746 61.9615876,39.8833818 65.5005081,39.8833818 C69.0551797,39.8833818 72.5605656,40.0204979 75.9739853,40.282451 C77.9212024,43.180546 79.7662475,46.1469306 81.5056762,49.1760671 C83.2549318,52.2131412 84.9056073,55.3067111 86.4550839,58.4518687 C84.921546,61.6290705 83.2761204,64.7502693 81.5219354,67.8095306 L81.5214273,67.8095306 Z M91.6392341,12.6602087 C95.483523,14.8929499 96.978863,23.8960542 94.5633529,35.7028757 C94.4050291,36.4720188 94.2329243,37.2382202 94.0471227,38.0011052 C89.2841879,36.8944555 84.1117241,36.0707357 78.6963881,35.5591085 C75.5415917,31.0358122 72.2729807,26.9228409 68.9916672,23.3629386 C69.8515071,22.5282433 70.7318089,21.7151874 71.6317577,20.9245233 C80.1078915,13.4967192 88.0296876,10.564072 91.6392341,12.6602087 L91.6392341,12.6602087 Z" id="Shape" fill="#FFFFFF"></path>
                <path d="M65.5,48 C71.2992764,48 76,52.7011275 76,58.4997398 C76,64.2988725 71.2992764,69 65.5,69 C59.701244,69 55,64.2988725 55,58.4997398 C55,52.7011275 59.701244,48 65.5,48" id="Path" fill="#53C1DE"></path>
            </g>
        </g>
    </g>
</svg>