<?xml version="1.0" encoding="UTF-8"?>
<svg width="919px" height="619px" viewBox="0 0 919 619" version="1.1" xmlns="http://www.w3.org/2000/svg" xmlns:xlink="http://www.w3.org/1999/xlink">
    <title>Group 5</title>
    <defs>
        <rect id="path-1" x="281" y="128" width="638" height="491" rx="4"></rect>
        <mask id="mask-2" maskContentUnits="userSpaceOnUse" maskUnits="objectBoundingBox" x="0" y="0" width="638" height="491" fill="white">
            <use xlink:href="#path-1"></use>
        </mask>
    </defs>
    <g id="Page-1" stroke="none" stroke-width="1" fill="none" fill-rule="evenodd">
        <g id="Group-5">
            <path d="M48.5,152 C74.328897,152 95.4420642,155.538531 96.9176206,160.000417 L97,160 L97,275 L96.9176206,275.000417 C96.9722873,275.165721 97,275.332294 97,275.5 C97,280.19442 75.2858104,284 48.5,284 C21.7141896,284 0,280.19442 0,275.5 C0,275.332294 0.0277127288,275.165721 0.0823793925,275.000417 L0,275 L0,160 L0.0823793925,160.000417 C1.55793577,155.538531 22.671103,152 48.5,152 Z" id="Combined-Shape" fill="#348AA7"></path>
            <g id="Component" transform="translate(297.000000, 194.000000)">
                <rect id="Rectangle" fill="#5DD39E" x="0" y="0" width="203" height="48" rx="4"></rect>
                <text font-family="Montserrat-Bold, Montserrat" font-size="24" font-weight="bold" fill="#FFFFFF">
                    <tspan x="27" y="33">Component</tspan>
                </text>
            </g>
            <use id="Rectangle" stroke="#525174" mask="url(#mask-2)" stroke-width="4" fill-opacity="0.1" fill="#525174" stroke-dasharray="8" xlink:href="#path-1"></use>
            <text id="Vue-Instance" font-family="Montserrat-Bold, Montserrat" font-size="24" font-weight="bold" fill="#212121">
                <tspan x="297" y="601">Vue Instance</tspan>
            </text>
            <text id="src" font-family="Montserrat-Bold, Montserrat" font-size="24" font-weight="bold" fill="#FFFFFF">
                <tspan x="30" y="227">src</tspan>
            </text>
            <g id="Component" transform="translate(701.000000, 195.000000)">
                <rect id="Rectangle" fill="#5DD39E" x="0" y="0" width="203" height="48" rx="4"></rect>
                <text font-family="Montserrat-Bold, Montserrat" font-size="24" font-weight="bold" fill="#FFFFFF">
                    <tspan x="27" y="33">Component</tspan>
                </text>
            </g>
            <g id="Component" transform="translate(701.000000, 367.500000)">
                <rect id="Rectangle" fill="#5DD39E" x="0" y="0" width="203" height="48" rx="4"></rect>
                <text font-family="Montserrat-Bold, Montserrat" font-size="24" font-weight="bold" fill="#FFFFFF">
                    <tspan x="27" y="33">Component</tspan>
                </text>
            </g>
            <g id="Component" opacity="0.598260789" transform="translate(701.000000, 421.500000)">
                <rect id="Rectangle" fill="#5DD39E" x="0" y="0" width="203" height="48" rx="4"></rect>
                <text font-family="Montserrat-Bold, Montserrat" font-size="24" font-weight="bold" fill="#FFFFFF">
                    <tspan x="27" y="33">Component</tspan>
                </text>
            </g>
            <g id="Component" opacity="0.401181176" transform="translate(701.000000, 475.500000)">
                <rect id="Rectangle" fill="#5DD39E" x="0" y="0" width="203" height="48" rx="4"></rect>
                <text font-family="Montserrat-Bold, Montserrat" font-size="24" font-weight="bold" fill="#FFFFFF">
                    <tspan x="27" y="33">Component</tspan>
                </text>
            </g>
            <g id="Component" opacity="0.203915551" transform="translate(701.000000, 529.500000)">
                <rect id="Rectangle" fill="#5DD39E" x="0" y="0" width="203" height="48" rx="4"></rect>
                <text font-family="Montserrat-Bold, Montserrat" font-size="24" font-weight="bold" fill="#FFFFFF">
                    <tspan x="27" y="33">Component</tspan>
                </text>
            </g>
            <path id="Line" d="M136.535502,206.571269 L136.505,216.571 L257.005,216.928 L257.035714,206.928837 L281,219 L256.964498,230.928731 L256.994,220.928 L136.494,220.571 L136.464286,230.571163 L112.5,218.5 L136.535502,206.571269 Z" fill="#212121" fill-rule="nonzero"></path>
            <text id="Data" font-family="Montserrat-Bold, Montserrat" font-size="24" font-weight="bold" fill="#525174">
                <tspan x="167" y="242">Data</tspan>
            </text>
            <path id="Line" d="M540.535502,206.571269 L540.505,216.571 L661.005,216.928 L661.035714,206.928837 L685,219 L660.964498,230.928731 L660.994,220.928 L540.494,220.571 L540.464286,230.571163 L516.5,218.5 L540.535502,206.571269 Z" fill="#212121" fill-rule="nonzero"></path>
            <text id="Data" font-family="Montserrat-Bold, Montserrat" font-size="24" font-weight="bold" fill="#525174">
                <tspan x="571" y="242">Data</tspan>
            </text>
            <text id="App" font-family="Montserrat-Bold, Montserrat" font-size="32" font-weight="bold" fill="#513B56">
                <tspan x="431" y="180">App</tspan>
            </text>
            <text id="Home" font-family="Montserrat-Bold, Montserrat" font-size="32" font-weight="bold" fill="#513B56">
                <tspan x="803" y="181">Home</tspan>
            </text>
            <path id="Line-2" d="M760,257.5 L760,327.5 L770,327.5 L758,351.5 L746,327.5 L756,327.5 L756,257.5 L760,257.5 Z" fill="#212121" fill-rule="nonzero"></path>
            <text id="Props" font-family="Montserrat-Bold, Montserrat" font-size="24" font-weight="bold" fill="#525174">
                <tspan x="773" y="278">Props</tspan>
            </text>
            <text id="Events-&amp;" font-family="Montserrat-Bold, Montserrat" font-size="24" font-weight="bold" fill="#525174">
                <tspan x="477" y="399">Events &amp;</tspan>
            </text>
            <text id="Watchers" font-family="Montserrat-Bold, Montserrat" font-size="24" font-weight="bold" fill="#525174">
                <tspan x="466" y="427">Watchers</tspan>
            </text>
            <g id="vue" transform="translate(774.000000, -0.000000)" fill-rule="nonzero">
                <polygon id="Path" fill="#41B883" points="104 0 130 0 65 112.125 0 0 49.725 0 65 26 79.95 0"></polygon>
                <polygon id="Path" fill="#41B883" points="0 0 65 112.125 130 0 104 0 65 67.275 25.675 0"></polygon>
                <polygon id="Path" fill="#35495E" points="25.675 0 65 67.6 104 0 79.95 0 65 26 49.725 0"></polygon>
            </g>
            <path id="Line-4" d="M676.033426,528.392551 L685.5,553.5 L659.734097,546.00879 L666.566328,538.623073 C665.125326,537.200752 663.707276,535.778338 662.312179,534.355831 L660.922488,532.930976 L659.530037,531.49533 L662.401329,528.710428 L663.79378,530.146074 C665.584736,531.992586 667.41512,533.839263 669.284934,535.686098 L676.033426,528.392551 Z M649.085349,513.952124 L650.38696,515.470613 C652.087528,517.454535 653.833665,519.438678 655.625375,521.423037 L656.977702,522.911347 L658.327292,524.387358 L655.375271,527.086537 L654.025681,525.610527 C652.188282,523.601013 650.396652,521.591285 648.650793,519.581337 L647.349982,518.073834 L646.048371,516.555345 L649.085349,513.952124 Z M636.821705,498.340479 L638.009107,499.94985 C639.557167,502.048046 641.156261,504.146529 642.806396,506.245292 L644.053568,507.819417 L645.301384,509.382412 L642.175393,511.878044 L640.927577,510.315048 C639.226758,508.184628 637.577319,506.05393 635.979268,503.922947 L634.790365,502.324655 L633.602963,500.715284 L636.821705,498.340479 Z M625.874111,481.798295 L626.917057,483.50483 C628.331324,485.818946 629.807746,488.133453 631.346338,490.448344 L632.276954,491.837324 L633.396296,493.494754 L630.081437,495.733438 L628.962095,494.076009 C627.370596,491.719448 625.841888,489.362504 624.375989,487.00517 L623.503986,485.590722 L622.46104,483.884187 L625.874111,481.798295 Z M616.601523,464.325246 L617.462742,466.130322 C618.629934,468.576702 619.866663,471.023542 621.172952,473.47084 L621.965074,474.939273 L622.922295,476.695328 L619.410185,478.60977 L618.452964,476.853715 C617.090377,474.354001 615.798367,471.853828 614.576961,469.353196 L613.85259,467.852762 L612.99137,466.047685 L616.601523,464.325246 Z M609.384663,445.921105 L610.020944,447.817193 C610.883743,450.388295 611.823403,452.959866 612.839958,455.531921 L613.459118,457.075212 L614.213317,458.927558 L610.508626,460.435956 L609.754427,458.58361 C608.68091,455.947005 607.685852,453.309913 606.769288,450.672349 L606.228769,449.089754 L605.592489,447.193667 L609.384663,445.921105 Z M604.66311,426.802928 L605.03284,428.768456 C605.549681,431.516039 606.15432,434.264001 606.846792,437.012387 L607.200348,438.386616 L607.708317,440.321032 L603.839484,441.33697 L603.331515,439.402554 C602.589274,436.575997 601.937169,433.74901 601.375237,430.921636 L601.101785,429.507917 L600.732055,427.542389 L604.66311,426.802928 Z M602.762675,407.195221 L602.835411,409.193898 C602.93753,411.999964 603.131224,414.806148 603.416507,417.612515 L603.566781,419.015714 L603.790433,421.00317 L599.815522,421.450475 L599.59187,419.463019 C599.266396,416.570745 599.035287,413.678277 598.898557,410.78568 L598.838057,409.339371 L598.765321,407.340694 L602.762675,407.195221 Z M599.878685,387.06119 L603.851945,387.522929 L603.621076,389.509559 C603.295026,392.315215 603.060518,395.120669 602.917535,397.925988 L602.853671,399.328636 L602.773547,401.32703 L598.776759,401.166783 L598.856882,399.168389 C598.972825,396.276622 599.183092,393.38498 599.487669,390.493529 L599.647816,389.04782 L599.878685,387.06119 Z M603.971268,367.190674 L607.83669,368.219516 L607.322269,370.152227 C606.591097,372.899284 605.94767,375.645906 605.391952,378.392136 L605.121402,379.765219 L604.74482,381.729446 L600.816367,380.976283 L601.192949,379.012056 C601.734712,376.186253 602.366544,373.360835 603.088411,370.535844 L603.456847,369.123385 L603.971268,367.190674 Z M610.719483,348.065661 L614.419272,349.586041 L613.659082,351.435936 C612.603732,354.004092 611.625038,356.571761 610.722966,359.138957 L610.190917,360.679219 L609.548009,362.57307 L605.760308,361.287255 L606.403215,359.393404 C607.297146,356.760098 608.269314,354.127262 609.319686,351.494909 L609.959292,349.915556 L610.719483,348.065661 Z M619.654981,329.953167 L623.162184,331.876583 L622.200476,333.630184 C620.860209,336.074059 619.589303,338.517478 618.387731,340.960439 L617.675108,342.426161 L616.808863,344.228831 L613.203523,342.496341 L614.069768,340.693671 C615.269619,338.19676 616.539861,335.700307 617.880466,333.204311 L618.693273,331.706768 L619.654981,329.953167 Z M630.39032,312.818685 L633.699936,315.065114 L632.576722,316.719922 C631.007805,319.031374 629.500867,321.342446 628.055892,323.653131 L627.196342,325.039494 L626.149043,326.743362 L622.741308,324.648763 L623.788608,322.944895 C625.235292,320.591264 626.744583,318.238023 628.316465,315.885163 L629.267106,314.473493 L630.39032,312.818685 Z M642.483771,296.742041 L645.605349,299.243191 L644.354774,300.80398 C642.675333,302.900019 641.046794,304.995782 639.46915,307.091262 L638.29546,308.662818 L637.104958,310.269898 L633.890799,307.888893 L635.081301,306.281814 C636.657755,304.153732 638.285453,302.025935 639.964388,299.898417 L641.233196,298.30283 L642.483771,296.742041 Z M655.710227,281.552123 L658.658197,284.255727 L657.306395,285.729712 C655.489708,287.7106 653.718429,289.691277 651.992555,291.671734 L650.706663,293.157036 L649.402552,294.673379 L646.369867,292.065158 L647.673977,290.548815 C649.399493,288.542488 651.170613,286.536381 652.987334,284.530488 L654.358425,283.026108 L655.710227,281.552123 Z M685.5,255.5 L676.033426,280.607449 L669.285194,273.313645 C667.98724,274.595646 666.708285,275.877571 665.448329,277.159417 L664.141662,278.495761 L662.74718,279.929435 L659.879832,277.140472 L661.274313,275.706798 C663.002791,273.92974 664.767088,272.152831 666.567202,270.376064 L659.734097,262.99121 L685.5,255.5 Z" fill="#525174" fill-rule="nonzero"></path>
        </g>
    </g>
</svg>